<svg version="1.1" id="Layer_1" xmlns="http://www.w3.org/2000/svg" xmlns:xlink="http://www.w3.org/1999/xlink" x="0px" y="0px"
	 width="100%" viewBox="0 0 3000 2000" enable-background="new 0 0 3000 2000" xml:space="preserve">
<path fill="none" opacity="1.000000" stroke="#000000" stroke-linecap="round" stroke-linejoin="round" stroke-width="3.000000"
	d="
M2272.000000,1000.000000 
	C2216.331299,1000.000000 2160.662598,1000.000000 2105.109375,1000.000000 
	C2103.242432,1004.190918 2104.051270,1007.669556 2104.047119,1011.000061 
	C2103.980713,1064.666626 2104.002441,1118.333374 2103.998047,1172.000000 
	C2103.997070,1182.942017 2103.985107,1182.979126 2093.000000,1182.992310 
	C2071.000000,1183.018555 2049.000000,1183.018555 2027.000000,1182.992188 
	C2016.014771,1182.979004 2016.002075,1182.942017 2016.001831,1172.000000 
	C2015.998657,1059.666626 2016.000000,947.333313 2016.000000,835.000000 
	C2016.000000,832.291687 2016.000000,829.583313 2016.000000,826.500000 
	C1937.000000,826.500000 1859.000000,826.500000 1781.096436,826.500000 
	C1779.018921,829.816895 1780.067749,833.009888 1780.057129,836.000183 
	C1779.959961,863.333191 1779.544189,890.677490 1780.190430,917.995483 
	C1780.518555,931.865784 1779.473389,944.578125 1769.103027,955.101562 
	C1766.133911,958.114685 1765.810303,962.586792 1765.932861,967.001892 
	C1766.767578,997.055176 1762.652832,1027.011475 1763.416382,1056.989380 
	C1763.781616,1071.327393 1762.488281,1085.697876 1764.015381,1099.998413 
	C1765.132690,1110.460205 1761.920044,1120.608521 1761.970093,1131.000122 
	C1762.070923,1151.999634 1762.348755,1173.007080 1761.921509,1193.998413 
	C1761.208984,1229.004272 1759.522583,1263.997192 1759.321045,1299.001831 
	C1759.267578,1308.260864 1759.729248,1317.673340 1759.900146,1327.001831 
	C1760.346313,1351.352173 1756.609009,1375.610352 1758.000000,1400.000000 
"/>
<path fill="none" opacity="1.000000" stroke="#000000" stroke-linecap="round" stroke-linejoin="round" stroke-width="3.000000"
	d="
M2237.000000,693.000000 
	C2239.552246,711.868408 2251.430664,722.000000 2271.000000,722.000000 
	C2355.333252,722.000000 2439.666748,722.020691 2524.000000,721.923889 
	C2527.346924,721.920044 2531.407959,723.755981 2533.959961,719.973022 
	C2536.540527,716.148376 2538.363525,712.245789 2532.008057,709.977417 
	C2528.629395,708.771545 2525.376709,707.209778 2521.992676,706.020935 
	C2505.822266,700.339966 2496.504150,687.058289 2495.935303,670.002136 
	C2494.942627,640.248108 2465.345947,613.277466 2438.999756,613.991638 
	C2436.668213,614.054810 2434.313721,613.805176 2432.003662,614.035828 
	C2424.497559,614.785217 2419.409668,613.180786 2415.726074,605.125244 
	C2407.748291,587.679199 2392.036865,580.673889 2374.037354,582.390686 
	C2356.250488,584.087219 2343.154297,594.245056 2336.827637,611.938354 
	C2335.926270,614.458313 2336.889648,616.859314 2335.921875,618.964111 
	C2334.199463,622.709778 2333.072998,626.186096 2327.002686,626.251404 
	C2300.804199,626.533081 2287.184570,638.419617 2281.000000,665.000000 
	C2262.360107,657.837219 2248.404297,664.866089 2239.887939,677.926880 
	C2236.918701,682.480225 2239.326904,687.617676 2237.000000,692.000000 
"/>
<path fill="none" opacity="1.000000" stroke="#000000" stroke-linecap="round" stroke-linejoin="round" stroke-width="3.000000"
	d="
M1451.000000,797.000000 
	C1444.342285,798.452820 1437.451172,798.469543 1431.891968,803.889221 
	C1422.854126,812.700317 1418.604858,827.348816 1423.000000,838.000000 
	C1427.846436,849.744873 1437.924194,856.000000 1452.000000,856.000000 
	C1538.000000,856.000000 1624.000000,856.018188 1710.000000,855.937500 
	C1713.670166,855.934082 1718.722900,857.925232 1719.933838,851.986511 
	C1721.190918,845.822571 1716.480957,844.140381 1711.986450,843.056091 
	C1695.144165,838.992493 1684.233276,828.517151 1680.303955,811.927979 
	C1678.881592,805.923157 1679.817505,799.212158 1678.000000,793.000000 
	C1669.045654,762.394226 1638.436646,745.004395 1610.007935,748.073181 
	C1608.959961,748.186340 1608.576050,750.197327 1605.510864,749.906006 
	C1596.783691,729.254700 1582.137573,715.104126 1557.009033,718.076538 
	C1531.207397,721.128601 1521.044312,739.298889 1517.159302,762.313354 
	C1495.894043,756.565063 1469.285156,771.214355 1464.951416,800.326233 
	C1460.733887,798.896179 1456.559814,797.194641 1452.000000,798.000000 
"/>
<path fill="none" opacity="1.000000" stroke="#000000" stroke-linecap="round" stroke-linejoin="round" stroke-width="3.000000"
	d="
M1153.000000,489.000000 
	C1151.902222,506.693665 1150.215942,524.385620 1153.925537,542.015686 
	C1154.462769,544.569275 1154.056030,547.334656 1153.991455,549.999817 
	C1153.012939,590.360779 1155.842041,630.664124 1156.650757,670.986938 
	C1157.104980,693.626038 1156.888550,716.350525 1158.039185,738.997986 
	C1160.645630,790.301331 1160.860718,841.670837 1162.573486,892.980835 
	C1163.319336,915.323914 1162.061768,937.769470 1164.248047,959.975586 
	C1166.777710,985.671021 1163.999512,1011.467468 1166.452026,1036.956543 
	C1168.385864,1057.055664 1165.539429,1077.230225 1168.463623,1096.931152 
	C1170.847412,1112.992065 1167.198853,1129.288940 1172.000000,1145.000000 
"/>
<path fill="none" opacity="1.000000" stroke="#000000" stroke-linecap="round" stroke-linejoin="round" stroke-width="3.000000"
	d="
M980.000000,477.000000 
	C977.726807,463.000000 979.715820,449.000000 978.749390,434.000000 
	C1034.333374,434.000000 1088.666626,434.000000 1144.224365,434.000000 
	C1143.224121,450.012390 1145.488037,465.070099 1142.575928,480.496643 
	C1117.939209,471.502045 1093.853271,463.049652 1070.082520,453.788361 
	C1064.196655,451.495209 1059.824585,451.731598 1053.913086,453.744751 
	C1031.030518,461.537170 1008.627319,470.567230 986.041443,479.109528 
	C974.471985,483.485199 963.565735,489.667297 951.905518,493.728699 
	C945.739136,495.876526 948.134521,499.802185 948.117249,503.000641 
	C947.929626,537.666321 948.000000,572.333313 948.000000,607.000000 
	C948.000000,819.666687 947.481506,1032.335815 948.460388,1244.997925 
	C948.644592,1285.012695 946.840393,1324.982544 947.793457,1365.004883 
	C948.737488,1404.649048 948.000000,1444.333374 948.000000,1484.000000 
"/>
<path fill="none" opacity="1.000000" stroke="#000000" stroke-linecap="round" stroke-linejoin="round" stroke-width="2.000000"
	d="
M681.000000,1038.000000 
	C681.000000,954.665344 681.000000,871.330688 681.000000,787.500000 
	C624.333313,787.500000 568.666687,787.500000 512.000000,787.500000 
	C512.000000,789.891785 512.000000,791.945862 512.000000,794.000000 
	C512.000000,857.000000 512.005493,920.000000 511.987183,983.000000 
	C511.986023,987.019470 512.428711,991.091309 511.000000,995.000000 
"/>
<path fill="none" opacity="1.000000" stroke="#000000" stroke-linecap="round" stroke-linejoin="round" stroke-width="3.000000"
	d="
M1796.000000,982.000000 
	C1804.518433,991.365967 1805.633545,1003.975281 1809.702271,1015.108826 
	C1828.769897,1067.286743 1853.640137,1116.321167 1888.216675,1159.827881 
	C1911.065063,1188.577393 1938.526489,1212.420166 1972.989624,1227.024536 
	C2001.316650,1239.028564 2030.342651,1242.017578 2061.040771,1238.339478 
	C2110.024414,1232.470581 2149.154297,1208.296387 2182.711670,1174.712036 
	C2213.081787,1144.317749 2235.761963,1108.006104 2254.111816,1069.052734 
	C2259.583008,1057.438843 2263.389160,1045.082642 2270.000000,1034.000000 
"/>
<path fill="none" opacity="1.000000" stroke="#000000" stroke-linecap="round" stroke-linejoin="round" stroke-width="3.000000"
	d="
M1803.000000,1300.000000 
	C1991.333374,1300.000000 2179.666748,1300.000000 2368.000000,1300.000000 
"/>
<path fill="none" opacity="1.000000" stroke="#000000" stroke-linecap="round" stroke-linejoin="round" stroke-width="3.000000"
	d="
M2460.000000,1113.000000 
	C2462.664551,1110.832764 2461.982910,1107.800781 2461.983643,1105.000000 
	C2462.003662,1018.000000 2461.999756,931.000000 2462.002930,844.000000 
	C2462.002930,842.880920 2462.260010,841.691101 2459.978027,840.500000 
	C2409.000000,840.500000 2357.000000,840.500000 2304.000000,840.500000 
	C2304.000000,853.649109 2304.000000,866.324585 2304.000000,879.000000 
	C2304.000000,901.000000 2304.025635,923.000061 2303.972900,944.999939 
	C2303.964600,948.426880 2304.920654,952.117493 2302.000000,955.000000 
"/>
<path fill="none" opacity="1.000000" stroke="#000000" stroke-linecap="round" stroke-linejoin="round" stroke-width="3.000000"
	d="
M2368.000000,1270.000000 
	C2338.000000,1269.666626 2307.991699,1268.707397 2278.001465,1269.104980 
	C2122.335693,1271.168579 1966.666016,1269.364136 1811.000000,1270.011963 
	C1807.974609,1270.024536 1804.871338,1269.508423 1802.000000,1271.000000 
"/>
<path fill="none" opacity="1.000000" stroke="#000000" stroke-linecap="round" stroke-linejoin="round" stroke-width="3.000000"
	d="
M923.000000,1484.000000 
	C923.000000,1336.332642 923.000000,1188.665161 923.000000,1040.000000 
	C825.666687,1040.000000 729.333313,1040.000000 632.000000,1040.000000 
	C632.000000,1188.665161 632.000000,1336.332642 632.000000,1484.000000 
"/>
<path fill="none" opacity="1.000000" stroke="#000000" stroke-linecap="round" stroke-linejoin="round" stroke-width="3.000000"
	d="
M1802.000000,1315.000000 
	C1805.543579,1316.686768 1809.322754,1315.971924 1813.000000,1315.972778 
	C1961.666626,1316.004639 2110.333252,1316.000000 2259.000000,1316.000000 
	C2292.000000,1316.000000 2325.000000,1316.015381 2358.000000,1315.976440 
	C2361.348877,1315.972534 2364.793701,1316.602539 2368.000000,1315.000000 
"/>
<path fill="none" opacity="1.000000" stroke="#000000" stroke-linecap="round" stroke-linejoin="round" stroke-width="3.000000"
	d="
M1781.000000,939.000000 
	C1791.759888,953.374451 1794.986572,969.473877 1792.013916,987.002319 
	C1791.903931,987.650391 1792.024902,988.334412 1791.996460,988.999878 
	C1788.870850,1061.977539 1788.676025,1135.038452 1790.593994,1207.984375 
	C1791.760254,1252.346436 1789.828125,1296.735962 1792.475708,1340.971558 
	C1793.653687,1360.654541 1792.314209,1380.419067 1795.000000,1400.000000 
"/>
<path fill="none" opacity="1.000000" stroke="#000000" stroke-linecap="round" stroke-linejoin="round" stroke-width="3.000000"
	d="
M1367.000000,973.000000 
	C1360.207153,982.604614 1350.710449,989.392822 1341.045288,998.768250 
	C1340.469727,986.575745 1335.526123,977.297119 1335.617432,965.996887 
	C1336.314819,879.669250 1335.997681,793.333313 1336.041382,707.000000 
	C1336.041626,706.333191 1336.000000,705.666687 1333.500000,704.000000 
	C1282.670898,704.000000 1230.335449,704.000000 1178.000000,704.000000 
"/>
<path fill="none" opacity="1.000000" stroke="#000000" stroke-linecap="round" stroke-linejoin="round" stroke-width="3.000000"
	d="
M1144.000000,482.000000 
	C1150.416870,488.207825 1159.282715,488.879303 1167.077759,491.791779 
	C1173.789795,494.299530 1176.212646,497.790619 1176.154541,505.001251 
	C1175.832275,544.998657 1176.000000,585.000000 1176.000000,625.000000 
	C1176.000000,794.333313 1176.008667,963.666687 1175.946655,1133.000000 
	C1175.945190,1137.040527 1177.272339,1141.434326 1174.000000,1145.000000 
"/>
<path fill="none" opacity="1.000000" stroke="#000000" stroke-linecap="round" stroke-linejoin="round" stroke-width="3.000000"
	d="
M390.000000,1132.000000 
	C362.995880,1132.000000 335.991760,1132.000000 308.000000,1132.000000 
	C308.000000,1249.998047 308.000000,1366.999023 308.000000,1484.000000 
"/>
<path fill="none" opacity="1.000000" stroke="#000000" stroke-linecap="round" stroke-linejoin="round" stroke-width="3.000000"
	d="
M255.000000,1486.000000 
	C1087.666626,1486.000000 1920.333374,1486.000000 2753.000000,1486.000000 
"/>
<path fill="none" opacity="1.000000" stroke="#000000" stroke-linecap="round" stroke-linejoin="round" stroke-width="3.000000"
	d="
M1662.000000,1004.000000 
	C1616.330933,1004.000000 1570.661743,1004.000000 1524.000000,1004.000000 
	C1524.000000,1031.658325 1524.000000,1058.341675 1524.000000,1084.890747 
	C1519.809082,1086.757568 1516.330566,1085.947144 1512.999878,1085.952637 
	C1469.666626,1086.024048 1426.333374,1085.984253 1383.000000,1086.028198 
	C1379.322510,1086.031860 1375.543579,1085.313232 1372.000000,1087.000000 
"/>
<path fill="none" opacity="1.000000" stroke="#000000" stroke-linecap="round" stroke-linejoin="round" stroke-width="3.000000"
	d="
M2402.000000,1047.000000 
	C2399.079346,1049.882568 2399.978271,1053.577026 2400.032715,1056.999512 
	C2401.203369,1130.661865 2401.245605,1204.349365 2402.621094,1277.988403 
	C2403.380859,1318.661377 2402.986572,1359.338989 2404.000000,1400.000000 
"/>
<path fill="none" opacity="1.000000" stroke="#000000" stroke-linecap="round" stroke-linejoin="round" stroke-width="3.000000"
	d="
M946.000000,622.000000 
	C913.663208,622.000000 881.326477,622.000000 848.000000,622.000000 
	C848.000000,702.663879 848.000000,782.331909 848.000000,862.000000 
"/>
<path fill="none" opacity="1.000000" stroke="#000000" stroke-linecap="round" stroke-linejoin="round" stroke-width="3.000000"
	d="
M1758.000000,1300.000000 
	C1659.333374,1300.000000 1560.666626,1300.000000 1462.000000,1300.000000 
"/>
<path fill="none" opacity="1.000000" stroke="#000000" stroke-linecap="round" stroke-linejoin="round" stroke-width="3.000000"
	d="
M2309.000000,1268.000000 
	C2312.319580,1260.826050 2307.639648,1254.111084 2307.795654,1246.995483 
	C2308.328369,1222.673828 2308.688232,1198.309448 2307.842041,1174.005493 
	C2306.507080,1135.665405 2307.656738,1097.247070 2306.154297,1059.033203 
	C2304.908447,1027.342407 2305.039551,995.665161 2303.952881,964.001648 
	C2303.577148,953.062439 2292.681396,948.124451 2290.683350,938.140320 
	C2271.522949,957.029236 2275.630615,980.215881 2274.057861,1002.004150 
	C2273.481689,1009.983215 2274.606201,1018.041016 2273.021240,1026.004272 
	C2271.417969,1034.061646 2274.351318,1041.908081 2274.158447,1050.003784 
	C2272.967285,1099.993408 2271.821777,1149.981689 2271.583252,1199.998047 
	C2271.491455,1219.275269 2270.035645,1238.645874 2270.025635,1258.000000 
	C2270.023682,1261.348633 2269.397461,1264.793579 2271.000000,1268.000000 
"/>
<path fill="none" opacity="1.000000" stroke="#000000" stroke-linecap="round" stroke-linejoin="round" stroke-width="3.000000"
	d="
M1700.000000,1268.000000 
	C1695.903076,1232.086060 1698.430664,1195.989746 1697.382935,1159.988892 
	C1696.404785,1126.374390 1696.683105,1092.628784 1696.213623,1059.010986 
	C1695.771973,1027.391235 1694.812134,995.667725 1693.571655,964.016785 
	C1693.240845,955.578064 1686.917603,947.771240 1679.903809,939.501099 
	C1672.597412,949.298706 1666.533325,957.653564 1665.507935,970.962097 
	C1662.397583,1011.337280 1666.377319,1051.757202 1663.665894,1091.977417 
	C1660.786621,1134.686646 1663.810547,1177.375732 1661.642212,1219.981812 
	C1660.827271,1235.995972 1660.220703,1251.981445 1660.000000,1268.000000 
"/>
<path fill="none" opacity="1.000000" stroke="#000000" stroke-linecap="round" stroke-linejoin="round" stroke-width="3.000000"
	d="
M1794.000000,1025.000000 
	C1795.925537,1027.720215 1796.093140,1030.810669 1796.012207,1034.000366 
	C1794.556885,1091.357666 1798.754517,1148.641846 1798.196533,1206.001953 
	C1797.985840,1227.656738 1801.308960,1249.378296 1800.567871,1270.985229 
	C1800.018433,1287.010254 1802.375610,1302.977783 1800.195679,1319.026611 
	C1798.711182,1329.955933 1802.439941,1340.868896 1802.143677,1352.003784 
	C1801.380981,1380.659058 1801.333252,1409.333374 1801.000000,1438.000000 
"/>
<path fill="none" opacity="1.000000" stroke="#000000" stroke-linecap="round" stroke-linejoin="round" stroke-width="3.000000"
	d="
M1758.000000,1270.000000 
	C1658.998901,1270.000000 1559.997803,1270.000000 1461.383667,1270.000000 
	C1456.311890,1285.666626 1461.506836,1300.333374 1459.811890,1314.806885 
	C1464.190918,1316.757568 1467.669556,1315.949585 1471.000000,1315.953125 
	C1530.333374,1316.017700 1589.666626,1316.000000 1649.000000,1316.000000 
	C1682.000000,1316.000000 1715.000000,1316.015381 1748.000000,1315.976440 
	C1751.348877,1315.972534 1754.793579,1316.602539 1758.000000,1315.000000 
"/>
<path fill="none" opacity="1.000000" stroke="#000000" stroke-linecap="round" stroke-linejoin="round" stroke-width="3.000000"
	d="
M1274.000000,936.000000 
	C1264.051880,951.630066 1267.136108,968.278076 1269.921143,985.013123 
	C1271.291992,993.250854 1270.737427,1001.691772 1271.473755,1010.046387 
	C1273.571777,1033.847778 1283.005371,1055.421387 1289.099609,1077.973022 
	C1293.553589,1094.455322 1298.268921,1110.874390 1303.761963,1127.080688 
	C1306.000610,1133.685303 1301.753418,1140.754395 1299.621948,1146.868164 
	C1288.152222,1179.765381 1282.576416,1213.832275 1276.833496,1247.972046 
	C1273.681030,1266.713379 1270.967163,1285.583618 1266.090820,1304.024048 
	C1265.431763,1306.516357 1266.000000,1309.333374 1266.000000,1312.000000 
"/>
<path fill="none" opacity="1.000000" stroke="#000000" stroke-linecap="round" stroke-linejoin="round" stroke-width="3.000000"
	d="
M2404.000000,1047.000000 
	C2406.664551,1049.167236 2406.033203,1052.202515 2405.975830,1054.999512 
	C2404.848633,1110.022217 2407.675049,1165.006714 2408.681396,1219.987549 
	C2409.254150,1251.283081 2409.141846,1282.676636 2410.790771,1314.010986 
	C2412.963135,1355.291504 2411.938965,1396.664429 2412.000000,1438.000000 
"/>
<path fill="none" opacity="1.000000" stroke="#000000" stroke-linecap="round" stroke-linejoin="round" stroke-width="3.000000"
	d="
M1060.000000,501.000000 
	C1054.530273,508.865936 1055.505981,518.341919 1054.268555,527.038208 
	C1050.994263,550.048828 1047.780151,573.061768 1044.386353,596.057007 
	C1042.038208,611.968140 1040.423706,628.052856 1038.000977,644.000183 
	C1035.218506,662.316589 1032.888916,680.707336 1030.351196,699.048584 
	C1028.099243,715.324463 1025.949463,731.662842 1023.877625,747.984436 
	C1020.743408,772.674194 1017.255249,797.329346 1013.720398,821.959900 
	C1011.420349,837.986572 1008.818604,854.060608 1006.477539,870.069824 
	C1004.055969,886.629578 1002.028748,903.336975 999.984741,919.998108 
	C997.447266,940.681030 994.922729,961.415039 991.591064,981.933594 
	C988.235596,1002.598755 986.011536,1023.427734 982.468994,1044.080444 
	C979.703125,1060.205078 978.115540,1076.687378 975.878967,1092.983398 
	C973.495361,1110.351318 970.562988,1127.709351 968.498901,1145.059326 
	C966.641113,1160.675903 963.787903,1176.210327 962.520508,1191.961426 
	C961.887878,1199.824707 961.088806,1208.222046 958.236755,1216.085815 
	C957.094910,1219.234253 957.357178,1223.452393 958.961975,1228.000000 
	C1027.330078,1228.000000 1095.665039,1228.000000 1164.000000,1228.000000 
"/>
<path fill="none" opacity="1.000000" stroke="#000000" stroke-linecap="round" stroke-linejoin="round" stroke-width="3.000000"
	d="
M1200.000000,1484.000000 
	C1200.000000,1477.333374 1200.228394,1470.656494 1199.931885,1464.003052 
	C1199.667480,1458.066772 1202.069580,1455.784180 1208.001831,1455.920898 
	C1219.662231,1456.189697 1231.333374,1456.000000 1243.000000,1456.000000 
	C1305.666626,1456.000000 1368.333374,1456.000000 1431.000000,1456.000000 
	C1445.007935,1456.000000 1459.015869,1456.000000 1474.000000,1456.000000 
	C1474.000000,1465.975342 1474.000000,1474.987671 1474.000000,1484.000000 
"/>
<path fill="none" opacity="1.000000" stroke="#000000" stroke-linecap="round" stroke-linejoin="round" stroke-width="3.000000"
	d="
M861.000000,1038.000000 
	C859.313293,1034.456421 860.031067,1030.677368 860.028015,1027.000000 
	C859.986572,976.333313 860.000000,925.666687 860.000000,875.000000 
	C860.000000,871.633362 860.000000,868.266663 860.000000,864.000000 
	C803.666687,864.000000 748.333313,864.000000 694.297546,864.000000 
	C691.166382,866.366638 692.042542,868.331421 692.041016,870.000061 
	C691.991150,923.333313 691.996826,976.666687 692.009338,1030.000000 
	C692.010010,1032.699219 691.595825,1035.467163 693.000000,1038.000000 
"/>
<path fill="none" opacity="1.000000" stroke="#000000" stroke-linecap="round" stroke-linejoin="round" stroke-width="6.000000"
	d="
M1695.500000,1692.000000 
	C1694.365356,1663.251587 1669.359863,1653.698853 1649.020996,1661.058105 
	C1631.999756,1667.216919 1624.714844,1682.509399 1627.208374,1698.968384 
	C1629.942383,1717.015625 1644.879761,1729.106934 1662.000000,1729.000000 
	C1678.548096,1728.896606 1693.032349,1715.718872 1695.012817,1699.001465 
	C1695.251099,1696.990234 1695.666626,1695.000000 1696.000000,1693.000000 
"/>
<path fill="none" opacity="1.000000" stroke="#000000" stroke-linecap="round" stroke-linejoin="round" stroke-width="3.000000"
	d="
M950.000000,1291.000000 
	C952.177917,1292.421143 954.635132,1291.985229 957.000000,1291.985840 
	C1027.000000,1292.003418 1097.000000,1292.003296 1167.000000,1291.985840 
	C1169.364868,1291.985229 1171.822021,1292.421143 1174.000000,1291.000000 
"/>
<path fill="none" opacity="1.000000" stroke="#000000" stroke-linecap="round" stroke-linejoin="round" stroke-width="3.000000"
	d="
M1173.000000,1259.000000 
	C1177.222534,1294.910522 1175.860352,1330.978516 1175.972412,1367.000122 
	C1176.093750,1405.999756 1176.000000,1445.000000 1176.000000,1484.000000 
"/>
<path fill="none" opacity="1.000000" stroke="#000000" stroke-linecap="round" stroke-linejoin="round" stroke-width="3.000000"
	d="
M952.000000,1262.000000 
	C1025.333374,1262.000000 1098.666626,1262.000000 1172.000000,1262.000000 
"/>
<path fill="none" opacity="1.000000" stroke="#000000" stroke-linecap="round" stroke-linejoin="round" stroke-width="3.000000"
	d="
M658.000000,1042.000000 
	C658.000000,1189.333374 658.000000,1336.666626 658.000000,1484.000000 
"/>
<path fill="none" opacity="1.000000" stroke="#000000" stroke-linecap="round" stroke-linejoin="round" stroke-width="3.000000"
	d="
M896.000000,1042.000000 
	C896.000000,1189.333374 896.000000,1336.666626 896.000000,1484.000000 
"/>
<path fill="none" opacity="1.000000" stroke="#000000" stroke-linecap="round" stroke-linejoin="round" stroke-width="3.000000"
	d="
M730.000000,1042.000000 
	C730.000000,1189.333374 730.000000,1336.666626 730.000000,1484.000000 
"/>
<path fill="none" opacity="1.000000" stroke="#000000" stroke-linecap="round" stroke-linejoin="round" stroke-width="2.000000"
	d="
M823.000000,1042.000000 
	C823.000000,1189.333374 823.000000,1336.666626 823.000000,1484.000000 
"/>
<path fill="none" opacity="1.000000" stroke="#000000" stroke-linecap="round" stroke-linejoin="round" stroke-width="3.000000"
	d="
M1232.000000,1454.000000 
	C1232.000000,1447.649170 1232.000000,1441.298218 1232.000000,1434.000000 
	C1302.333374,1434.000000 1371.666626,1434.000000 1442.000000,1434.000000 
	C1442.000000,1441.298340 1442.000000,1447.649170 1442.000000,1454.000000 
"/>
<path fill="none" opacity="1.000000" stroke="#000000" stroke-linecap="round" stroke-linejoin="round" stroke-width="3.000000"
	d="
M2586.000000,1300.000000 
	C2528.000000,1300.000000 2470.000000,1300.000000 2412.000000,1300.000000 
"/>
<path fill="none" opacity="1.000000" stroke="#000000" stroke-linecap="round" stroke-linejoin="round" stroke-width="3.000000"
	d="
M2412.000000,1315.000000 
	C2415.543701,1316.686768 2419.322510,1315.969238 2423.000000,1315.972046 
	C2477.333252,1316.012573 2531.666748,1316.000000 2586.000000,1316.000000 
"/>
<path fill="none" opacity="1.000000" stroke="#000000" stroke-linecap="round" stroke-linejoin="round" stroke-width="3.000000"
	d="
M1159.000000,1191.000000 
	C1155.845093,1193.117432 1152.313354,1191.925903 1148.999878,1191.931030 
	C1087.333374,1192.025146 1025.666626,1192.000000 964.000000,1192.000000 
"/>
<path fill="none" opacity="1.000000" stroke="#000000" stroke-linecap="round" stroke-linejoin="round" stroke-width="3.000000"
	d="
M1062.000000,183.000000 
	C1062.000000,239.333328 1062.000000,295.666656 1062.000000,352.000000 
"/>
<path fill="none" opacity="1.000000" stroke="#000000" stroke-linecap="round" stroke-linejoin="round" stroke-width="3.000000"
	d="
M2412.000000,1271.000000 
	C2414.532715,1269.595825 2417.300537,1270.067505 2420.000000,1270.000732 
	C2475.660400,1268.623901 2531.331787,1269.083374 2588.000000,1268.984985 
	C2588.000000,1340.663574 2588.000000,1412.331787 2588.000000,1484.000000 
"/>
<path fill="none" opacity="1.000000" stroke="#000000" stroke-linecap="round" stroke-linejoin="round" stroke-width="3.000000"
	d="
M969.000000,1157.000000 
	C972.154907,1159.117432 975.686584,1157.925415 979.000122,1157.930908 
	C1037.333374,1158.026489 1095.666626,1158.000000 1154.000000,1158.000000 
"/>
<path fill="none" opacity="1.000000" stroke="#000000" stroke-linecap="round" stroke-linejoin="round" stroke-width="5.000000"
	d="
M1288.000000,1693.000000 
	C1304.628540,1690.761719 1321.338013,1692.575928 1338.000366,1692.010010 
	C1342.215576,1691.866821 1346.521973,1692.571899 1351.088867,1690.112183 
	C1348.632935,1675.736328 1342.970337,1664.400635 1327.056763,1659.803467 
	C1313.356445,1655.845459 1301.825317,1659.686646 1293.272583,1669.244019 
	C1282.131592,1681.694092 1282.475220,1700.587769 1291.162109,1714.901611 
	C1298.456299,1726.920654 1320.907349,1732.095459 1334.965454,1725.921265 
	C1338.486328,1724.375000 1342.388916,1723.203857 1345.000000,1720.000000 
"/>
<path fill="none" opacity="1.000000" stroke="#000000" stroke-linecap="round" stroke-linejoin="round" stroke-width="3.000000"
	d="
M548.000000,1338.000000 
	C496.666656,1338.000000 445.333344,1338.000000 394.000000,1338.000000 
"/>
<path fill="none" opacity="1.000000" stroke="#000000" stroke-linecap="round" stroke-linejoin="round" stroke-width="3.000000"
	d="
M548.000000,1400.000000 
	C496.666656,1400.000000 445.333344,1400.000000 394.000000,1400.000000 
"/>
<path fill="none" opacity="1.000000" stroke="#000000" stroke-linecap="round" stroke-linejoin="round" stroke-width="2.000000"
	d="
M548.000000,1369.000000 
	C496.666656,1369.000000 445.333344,1369.000000 394.000000,1369.000000 
"/>
<path fill="none" opacity="1.000000" stroke="#000000" stroke-linecap="round" stroke-linejoin="round" stroke-width="3.000000"
	d="
M548.000000,1246.000000 
	C496.666656,1246.000000 445.333344,1246.000000 394.000000,1246.000000 
"/>
<path fill="none" opacity="1.000000" stroke="#000000" stroke-linecap="round" stroke-linejoin="round" stroke-width="3.000000"
	d="
M548.000000,1124.000000 
	C496.666656,1124.000000 445.333344,1124.000000 394.000000,1124.000000 
"/>
<path fill="none" opacity="1.000000" stroke="#000000" stroke-linecap="round" stroke-linejoin="round" stroke-width="2.000000"
	d="
M548.000000,1277.000000 
	C496.666656,1277.000000 445.333344,1277.000000 394.000000,1277.000000 
"/>
<path fill="none" opacity="1.000000" stroke="#000000" stroke-linecap="round" stroke-linejoin="round" stroke-width="3.000000"
	d="
M548.000000,1094.000000 
	C496.666656,1094.000000 445.333344,1094.000000 394.000000,1094.000000 
"/>
<path fill="none" opacity="1.000000" stroke="#000000" stroke-linecap="round" stroke-linejoin="round" stroke-width="3.000000"
	d="
M548.000000,1062.000000 
	C496.666656,1062.000000 445.333344,1062.000000 394.000000,1062.000000 
"/>
<path fill="none" opacity="1.000000" stroke="#000000" stroke-linecap="round" stroke-linejoin="round" stroke-width="2.000000"
	d="
M548.000000,1461.000000 
	C496.666656,1461.000000 445.333344,1461.000000 394.000000,1461.000000 
"/>
<path fill="none" opacity="1.000000" stroke="#000000" stroke-linecap="round" stroke-linejoin="round" stroke-width="3.000000"
	d="
M548.000000,1430.000000 
	C496.666656,1430.000000 445.333344,1430.000000 394.000000,1430.000000 
"/>
<path fill="none" opacity="1.000000" stroke="#000000" stroke-linecap="round" stroke-linejoin="round" stroke-width="3.000000"
	d="
M548.000000,1186.000000 
	C496.666656,1186.000000 445.333344,1186.000000 394.000000,1186.000000 
"/>
<path fill="none" opacity="1.000000" stroke="#000000" stroke-linecap="round" stroke-linejoin="round" stroke-width="3.000000"
	d="
M548.000000,1216.000000 
	C496.666656,1216.000000 445.333344,1216.000000 394.000000,1216.000000 
"/>
<path fill="none" opacity="1.000000" stroke="#000000" stroke-linecap="round" stroke-linejoin="round" stroke-width="3.000000"
	d="
M548.000000,1308.000000 
	C496.666656,1308.000000 445.333344,1308.000000 394.000000,1308.000000 
"/>
<path fill="none" opacity="1.000000" stroke="#000000" stroke-linecap="round" stroke-linejoin="round" stroke-width="3.000000"
	d="
M548.000000,1154.000000 
	C496.666656,1154.000000 445.333344,1154.000000 394.000000,1154.000000 
"/>
<path fill="none" opacity="1.000000" stroke="#000000" stroke-linecap="round" stroke-linejoin="round" stroke-width="3.000000"
	d="
M547.000000,1031.000000 
	C543.091309,1032.428711 539.019531,1031.985229 535.000000,1031.986938 
	C488.000000,1032.007202 441.000000,1032.000000 394.000000,1032.000000 
"/>
<path fill="none" opacity="1.000000" stroke="#000000" stroke-linecap="round" stroke-linejoin="round" stroke-width="2.000000"
	d="
M974.000000,1122.000000 
	C976.177917,1123.421143 978.635071,1122.984619 981.000000,1122.985596 
	C1026.666626,1123.005005 1072.333374,1123.003906 1118.000000,1122.991577 
	C1121.029663,1122.990723 1124.112427,1123.344727 1127.000000,1122.000000 
"/>
<path fill="none" opacity="1.000000" stroke="#000000" stroke-linecap="round" stroke-linejoin="round" stroke-width="2.000000"
	d="
M719.000000,862.000000 
	C719.000000,817.657104 719.000000,773.314148 719.000000,728.385437 
	C750.946228,725.913940 780.998657,727.074524 810.996155,727.378662 
	C815.690308,727.426208 820.333252,726.804871 825.000000,726.805237 
	C831.759583,726.805847 834.216797,728.800720 834.160583,736.001282 
	C833.832886,777.998718 834.000000,820.000000 834.000000,862.000000 
"/>
<path fill="none" opacity="1.000000" stroke="#000000" stroke-linecap="round" stroke-linejoin="round" stroke-width="3.000000"
	d="
M1353.000000,1079.000000 
	C1347.595337,1098.003662 1345.361328,1117.612793 1342.057495,1137.009766 
	C1338.598145,1157.320801 1334.293945,1177.482056 1331.522583,1197.935303 
	C1331.042358,1201.479736 1330.874268,1205.376953 1329.983521,1208.995972 
	C1326.783569,1221.995361 1326.801636,1222.065552 1312.986328,1229.976196 
	C1301.573730,1236.511108 1291.022461,1244.504883 1279.000000,1250.000000 
"/>
<path fill="none" opacity="1.000000" stroke="#000000" stroke-linecap="round" stroke-linejoin="round" stroke-width="3.000000"
	d="
M978.000000,1087.000000 
	C981.206421,1088.602539 984.651123,1087.974854 988.000000,1087.976929 
	C1040.000000,1088.009888 1092.000000,1088.000000 1144.000000,1088.000000 
"/>
<path fill="none" opacity="1.000000" stroke="#000000" stroke-linecap="round" stroke-linejoin="round" stroke-width="3.000000"
	d="
M1302.000000,1025.000000 
	C1298.390015,1036.682861 1304.661255,1052.800049 1315.009888,1057.980103 
	C1331.673096,1066.320923 1348.400269,1074.533447 1364.150635,1082.330078 
	C1363.505859,1140.329590 1365.303223,1197.735718 1360.955933,1256.067505 
	C1348.234619,1245.918457 1334.200562,1238.359375 1325.000000,1225.000000 
"/>
<path fill="none" opacity="1.000000" stroke="#000000" stroke-linecap="round" stroke-linejoin="round" stroke-width="3.000000"
	d="
M2463.000000,1126.000000 
	C2462.257080,1127.931763 2461.949707,1129.882324 2461.952881,1132.000122 
	C2462.015625,1175.333374 2462.015625,1218.666626 2461.952881,1261.999878 
	C2461.949707,1264.117676 2462.257080,1266.068237 2463.000000,1268.000000 
"/>
<path fill="none" opacity="1.000000" stroke="#000000" stroke-linecap="round" stroke-linejoin="round" stroke-width="2.000000"
	d="
M1426.000000,1432.000000 
	C1426.000000,1414.530029 1424.288330,1413.077515 1406.998169,1413.965454 
	C1360.684082,1416.344238 1314.331177,1414.374390 1267.999512,1414.958130 
	C1267.670410,1414.962280 1267.333374,1414.333374 1267.000000,1414.000000 
"/>
<path fill="none" opacity="1.000000" stroke="#000000" stroke-linecap="round" stroke-linejoin="round" stroke-width="3.000000"
	d="
M1407.000000,1333.000000 
	C1403.845093,1330.882568 1400.313721,1332.077393 1396.999878,1332.069702 
	C1352.000122,1331.965820 1306.998169,1332.232666 1262.001099,1331.870239 
	C1246.822266,1331.747925 1246.827881,1331.057983 1249.135254,1314.000000 
	C1307.666626,1314.000000 1366.333374,1314.000000 1424.164551,1314.000000 
	C1427.048584,1317.088257 1425.635864,1319.670654 1425.977783,1322.003296 
	C1427.111084,1329.735596 1423.753784,1332.964233 1415.992920,1332.060791 
	C1413.338257,1331.751709 1410.532837,1331.595825 1408.000000,1333.000000 
"/>
<path fill="none" opacity="1.000000" stroke="#000000" stroke-linecap="round" stroke-linejoin="round" stroke-width="2.000000"
	d="
M984.000000,1052.000000 
	C987.543640,1053.686768 991.322571,1052.967896 995.000000,1052.971802 
	C1037.333374,1053.015991 1079.667480,1053.126587 1121.999146,1052.856567 
	C1128.005737,1052.818359 1134.000000,1055.797485 1140.000000,1053.000000 
"/>
<path fill="none" opacity="1.000000" stroke="#000000" stroke-linecap="round" stroke-linejoin="round" stroke-width="3.000000"
	d="
M392.000000,891.000000 
	C394.755157,896.333313 391.800751,901.660278 391.832642,907.000977 
	C392.119141,954.999268 392.000000,1003.000000 392.000000,1051.000000 
	C392.000000,1102.333374 391.709137,1153.668823 392.088257,1204.999390 
	C392.415649,1249.332642 392.367493,1293.673828 392.551147,1338.001831 
	C392.704285,1374.977417 392.687439,1412.002686 392.032257,1449.000610 
	C391.825714,1460.663574 392.000000,1472.333374 392.000000,1484.000000 
"/>
<path fill="none" opacity="1.000000" stroke="#000000" stroke-linecap="round" stroke-linejoin="round" stroke-width="3.000000"
	d="
M714.000000,1484.000000 
	C714.000000,1464.994141 714.000000,1445.988281 714.000000,1425.864014 
	C706.333313,1426.312988 699.666687,1425.222900 692.000000,1427.266357 
	C692.000000,1445.988281 692.000000,1464.994141 692.000000,1484.000000 
"/>
<path fill="none" opacity="1.000000" stroke="#000000" stroke-linecap="round" stroke-linejoin="round" stroke-width="3.000000"
	d="
M770.000000,1484.000000 
	C770.000000,1464.994141 770.000000,1445.988281 770.000000,1425.864014 
	C762.333313,1426.312988 755.666687,1425.222900 748.000000,1427.266357 
	C748.000000,1445.988281 748.000000,1464.994141 748.000000,1484.000000 
"/>
<path fill="none" opacity="1.000000" stroke="#000000" stroke-linecap="round" stroke-linejoin="round" stroke-width="3.000000"
	d="
M805.000000,1484.000000 
	C805.000000,1468.666626 804.935547,1453.333008 805.022949,1438.000122 
	C805.080139,1427.968018 806.625305,1425.274170 792.998962,1425.979736 
	C790.297913,1426.119751 787.583313,1426.000000 784.000000,1426.000000 
	C784.000000,1445.988281 784.000000,1464.994141 784.000000,1484.000000 
"/>
<path fill="none" opacity="1.000000" stroke="#000000" stroke-linecap="round" stroke-linejoin="round" stroke-width="3.000000"
	d="
M860.000000,1484.000000 
	C860.000000,1464.994141 860.000000,1445.988281 860.000000,1426.500000 
	C853.000000,1426.500000 847.000000,1426.500000 840.000000,1426.500000 
	C840.000000,1445.988281 840.000000,1464.994141 840.000000,1484.000000 
"/>
<path fill="none" opacity="1.000000" stroke="#000000" stroke-linecap="round" stroke-linejoin="round" stroke-width="5.000000"
	d="
M1368.500000,1658.500000 
	C1375.000000,1675.666626 1381.626587,1692.787109 1387.925903,1710.027100 
	C1389.914307,1715.468750 1391.873047,1720.778809 1396.504639,1725.517456 
	C1405.474976,1716.404175 1406.882446,1703.778931 1412.081909,1693.039673 
	C1416.821045,1683.250854 1416.846069,1671.000854 1427.000000,1664.000000 
"/>
<path fill="none" opacity="1.000000" stroke="#000000" stroke-linecap="round" stroke-linejoin="round" stroke-width="3.000000"
	d="
M2406.000000,1016.000000 
	C2414.816650,1024.925049 2416.501465,1037.416504 2422.005615,1047.997070 
	C2433.731934,1070.537476 2445.853271,1092.741577 2459.470703,1114.333740 
	C2475.158447,1139.208984 2493.411377,1161.504395 2514.142822,1181.854492 
	C2535.297119,1202.619751 2559.266846,1219.731812 2587.000000,1231.000000 
"/>
<path fill="none" opacity="1.000000" stroke="#000000" stroke-linecap="round" stroke-linejoin="round" stroke-width="3.000000"
	d="
M1135.000000,1017.000000 
	C1131.845093,1019.117371 1128.313721,1017.922729 1124.999878,1017.930237 
	C1079.333496,1018.033630 1033.666626,1018.000000 988.000000,1018.000000 
"/>
<path fill="none" opacity="1.000000" stroke="#000000" stroke-linecap="round" stroke-linejoin="round" stroke-width="3.000000"
	d="
M994.000000,984.000000 
	C1039.333374,984.000000 1084.666626,984.000000 1130.000000,984.000000 
"/>
<path fill="none" opacity="1.000000" stroke="#000000" stroke-linecap="round" stroke-linejoin="round" stroke-width="3.000000"
	d="
M394.000000,895.000000 
	C430.004456,925.948792 465.413116,957.577881 501.166687,988.809204 
	C513.974915,999.997375 526.085205,1012.052124 539.940430,1022.082275 
	C547.183411,1027.325562 550.496460,1034.280884 550.226685,1044.006348 
	C548.914124,1091.322388 549.506653,1138.678223 549.469910,1186.000366 
	C549.433716,1232.652588 549.602417,1279.333984 549.917969,1326.000610 
	C550.274048,1378.664795 550.000000,1431.333374 550.000000,1484.000000 
"/>
<path fill="none" opacity="1.000000" stroke="#000000" stroke-linecap="round" stroke-linejoin="round" stroke-width="3.000000"
	d="
M1126.000000,949.000000 
	C1117.742310,951.225464 1109.340576,949.966736 1101.000000,949.979004 
	C1066.666626,950.029297 1032.333374,950.000000 998.000000,950.000000 
"/>
<path fill="none" opacity="1.000000" stroke="#000000" stroke-linecap="round" stroke-linejoin="round" stroke-width="3.000000"
	d="
M1266.000000,1334.000000 
	C1266.000000,1358.000000 1265.917725,1382.000488 1266.064941,1405.999634 
	C1266.096680,1411.187988 1265.825806,1415.256714 1258.998413,1415.052856 
	C1248.022095,1414.725342 1248.017456,1414.869629 1248.000488,1426.000000 
	C1247.997437,1428.000000 1248.000000,1430.000000 1248.000000,1432.000000 
"/>
<path fill="none" opacity="1.000000" stroke="#000000" stroke-linecap="round" stroke-linejoin="round" stroke-width="3.000000"
	d="
M1173.000000,1147.000000 
	C1172.092041,1180.057861 1177.884766,1212.913330 1175.987427,1245.999268 
	C1175.773193,1249.736694 1177.095703,1253.775024 1174.000000,1257.000000 
"/>
<path fill="none" opacity="1.000000" stroke="#000000" stroke-linecap="round" stroke-linejoin="round" stroke-width="3.000000"
	d="
M1374.000000,1134.000000 
	C1373.797485,1149.959961 1376.988647,1165.322632 1383.076172,1179.968262 
	C1390.819702,1198.597534 1391.617065,1218.680786 1395.842773,1238.034302 
	C1399.591797,1255.204224 1402.102783,1272.649780 1404.951050,1290.008057 
	C1406.148560,1297.306274 1408.347778,1304.482910 1408.000000,1312.000000 
"/>
<path fill="none" opacity="1.000000" stroke="#000000" stroke-linecap="round" stroke-linejoin="round" stroke-width="3.000000"
	d="
M2368.000000,1400.000000 
	C2366.540283,1374.278076 2370.315430,1348.699829 2370.059082,1322.999390 
	C2369.793457,1296.335449 2368.331055,1269.531860 2370.470215,1243.037964 
	C2372.602783,1216.622925 2371.513184,1190.325073 2371.720459,1163.997803 
	C2371.840576,1148.700073 2370.687256,1133.052368 2371.839844,1118.064575 
	C2372.995605,1103.035767 2373.632080,1088.019775 2373.894531,1072.998169 
	C2374.296387,1050.005127 2373.643066,1026.992310 2374.134277,1004.002869 
	C2374.426514,990.338074 2376.072021,976.729492 2376.292236,963.004700 
	C2376.435303,954.087280 2384.219482,948.069031 2389.498779,939.643494 
	C2397.631836,947.930298 2401.771240,956.796021 2402.124512,967.996094 
	C2402.597900,982.998169 2402.254395,998.009277 2403.163574,1013.050537 
	C2403.785889,1023.346619 2402.553955,1034.308960 2403.000000,1045.000000 
"/>
<path fill="none" opacity="1.000000" stroke="#000000" stroke-linecap="round" stroke-linejoin="round" stroke-width="2.000000"
	d="
M1121.000000,915.000000 
	C1081.333374,915.000000 1041.666626,915.000000 1002.000000,915.000000 
"/>
<path fill="none" opacity="1.000000" stroke="#000000" stroke-linecap="round" stroke-linejoin="round" stroke-width="3.000000"
	d="
M1081.000000,432.000000 
	C1078.742432,420.723267 1080.304565,409.331665 1080.071289,397.998535 
	C1079.776001,383.663513 1080.000000,369.317841 1080.000000,354.000000 
	C1067.000000,354.000000 1055.000000,354.000000 1041.915649,354.000000 
	C1042.690674,380.666656 1040.703735,406.333344 1043.000000,432.000000 
"/>
<path fill="none" opacity="1.000000" stroke="#000000" stroke-linecap="round" stroke-linejoin="round" stroke-width="3.000000"
	d="
M1116.000000,880.000000 
	C1080.000000,880.000000 1044.000000,880.000000 1008.000000,880.000000 
"/>
<path fill="none" opacity="1.000000" stroke="#000000" stroke-linecap="round" stroke-linejoin="round" stroke-width="3.000000"
	d="
M894.000000,1302.000000 
	C816.000000,1302.000000 738.000000,1302.000000 660.000000,1302.000000 
"/>
<path fill="none" opacity="1.000000" stroke="#000000" stroke-linecap="round" stroke-linejoin="round" stroke-width="3.000000"
	d="
M894.000000,1170.000000 
	C816.000000,1170.000000 738.000000,1170.000000 660.000000,1170.000000 
"/>
<path fill="none" opacity="1.000000" stroke="#000000" stroke-linecap="round" stroke-linejoin="round" stroke-width="3.000000"
	d="
M732.000000,726.000000 
	C732.000000,691.663452 732.000000,657.326843 732.000000,622.000000 
	C761.666687,622.000000 790.333313,622.000000 820.000000,622.000000 
	C820.000000,657.326843 820.000000,691.663452 820.000000,726.000000 
"/>
<path fill="none" opacity="1.000000" stroke="#000000" stroke-linecap="round" stroke-linejoin="round" stroke-width="3.000000"
	d="
M1099.000000,846.000000 
	C1070.000000,846.000000 1041.000000,846.000000 1012.000000,846.000000 
"/>
<path fill="none" opacity="1.000000" stroke="#000000" stroke-linecap="round" stroke-linejoin="round" stroke-width="6.000000"
	d="
M1251.000000,1633.000000 
	C1251.000000,1656.666626 1250.518921,1680.348877 1251.281006,1703.990967 
	C1251.522827,1711.490112 1244.592529,1718.405762 1250.000000,1726.000000 
"/>
<path fill="none" opacity="1.000000" stroke="#000000" stroke-linecap="round" stroke-linejoin="round" stroke-width="3.000000"
	d="
M818.000000,635.000000 
	C809.065979,637.114685 799.997009,635.816772 790.999084,635.928284 
	C772.002014,636.163879 753.000000,636.000000 734.000000,636.000000 
"/>
<path fill="none" opacity="1.000000" stroke="#000000" stroke-linecap="round" stroke-linejoin="round" stroke-width="6.000000"
	d="
M1178.000000,1643.000000 
	C1174.810791,1646.828125 1174.958008,1651.385132 1174.970459,1656.000122 
	C1175.034302,1679.666504 1175.000000,1703.333374 1175.000000,1727.000000 
"/>
<path fill="none" opacity="1.000000" stroke="#000000" stroke-linecap="round" stroke-linejoin="round" stroke-width="3.000000"
	d="
M2270.000000,1318.000000 
	C2266.813721,1345.271851 2268.347168,1372.658813 2268.000000,1400.000000 
"/>
<path fill="none" opacity="1.000000" stroke="#000000" stroke-linecap="round" stroke-linejoin="round" stroke-width="6.000000"
	d="
M1174.500000,1632.000000 
	C1177.443604,1643.733521 1188.833130,1648.696899 1195.303101,1657.784180 
	C1208.629150,1676.501343 1223.778198,1693.913330 1237.896362,1712.080566 
	C1240.417603,1715.325195 1242.932373,1717.601562 1247.000000,1718.000000 
"/>
<path fill="none" opacity="1.000000" stroke="#000000" stroke-linecap="round" stroke-linejoin="round" stroke-width="3.000000"
	d="
M1660.000000,1318.000000 
	C1659.065063,1345.326782 1657.111816,1372.628784 1658.000000,1400.000000 
"/>
<path fill="none" opacity="1.000000" stroke="#000000" stroke-linecap="round" stroke-linejoin="round" stroke-width="3.000000"
	d="
M1700.000000,1318.000000 
	C1699.593262,1343.694580 1703.522339,1369.279297 1701.975952,1394.998535 
	C1701.615723,1400.987427 1703.018066,1404.419312 1710.035645,1402.108032 
	C1711.468872,1401.635986 1713.611450,1401.275879 1716.000000,1404.004883 
	C1716.000000,1414.647583 1716.000000,1426.323853 1716.000000,1438.000000 
"/>
<path fill="none" opacity="1.000000" stroke="#000000" stroke-linecap="round" stroke-linejoin="round" stroke-width="3.000000"
	d="
M2310.000000,1318.000000 
	C2308.888672,1345.376709 2313.490234,1372.614014 2312.000000,1400.000000 
"/>
<path fill="none" opacity="1.000000" stroke="#000000" stroke-linecap="round" stroke-linejoin="round" stroke-width="2.000000"
	d="
M1408.000000,1334.000000 
	C1410.139160,1344.610229 1408.748657,1355.334839 1408.931030,1366.001221 
	C1409.198730,1381.663208 1409.000000,1397.333374 1409.000000,1413.000000 
"/>
<path fill="none" opacity="1.000000" stroke="#000000" stroke-linecap="round" stroke-linejoin="round" stroke-width="3.000000"
	d="
M1017.000000,811.000000 
	C1039.304199,813.285889 1061.669922,811.414978 1084.000732,811.969666 
	C1091.677124,812.160339 1099.362305,812.000000 1107.311523,812.000000 
	C1109.562988,802.879333 1106.456787,794.843018 1105.574707,787.048096 
	C1103.495361,768.672241 1099.764771,750.492432 1097.814087,732.019653 
	C1095.622681,711.267578 1091.995972,690.667236 1089.002075,669.999695 
	C1087.988403,663.001648 1087.210571,655.960571 1085.909790,649.016907 
	C1085.273560,645.620422 1089.569336,639.461853 1079.938721,640.274353 
	C1076.406860,640.572327 1077.305664,631.241455 1078.390259,627.102234 
	C1079.725098,622.007568 1078.642090,617.733093 1078.098633,612.988708 
	C1075.543457,590.680786 1074.444092,568.141357 1070.628662,546.064209 
	C1067.858032,530.033447 1069.764893,513.287048 1062.117554,497.697052 
	C1059.828125,493.029785 1060.878540,484.697571 1061.827637,477.975647 
	C1062.421021,473.773132 1062.885620,469.213928 1061.000000,465.000000 
"/>
<path fill="none" opacity="1.000000" stroke="#000000" stroke-linecap="round" stroke-linejoin="round" stroke-width="3.000000"
	d="
M2352.000000,1439.000000 
	C2337.388672,1441.771118 2322.669678,1439.257568 2307.991699,1439.753906 
	C2282.021484,1440.632080 2255.999756,1439.958008 2230.000244,1440.057251 
	C2227.009766,1440.068604 2223.816895,1439.018921 2220.000000,1441.409546 
	C2220.000000,1455.317871 2220.000000,1469.658936 2220.000000,1484.000000 
"/>
<path fill="none" opacity="1.000000" stroke="#000000" stroke-linecap="round" stroke-linejoin="round" stroke-width="3.000000"
	d="
M1742.000000,1439.000000 
	C1726.716064,1441.604492 1711.332275,1439.379028 1695.994629,1439.805298 
	C1670.347778,1440.517944 1644.666626,1440.000000 1619.000000,1440.000000 
	C1616.291626,1440.000000 1613.583374,1440.000000 1610.000000,1440.000000 
	C1610.000000,1455.317871 1610.000000,1469.658936 1610.000000,1484.000000 
"/>
<path fill="none" opacity="1.000000" stroke="#000000" stroke-linecap="round" stroke-linejoin="round" stroke-width="3.000000"
	d="
M1812.000000,1438.000000 
	C1812.000000,1426.323853 1812.000000,1414.647583 1812.000000,1402.000000 
	C1788.333374,1402.000000 1765.666626,1402.000000 1742.000000,1402.000000 
	C1742.000000,1413.645874 1742.041626,1424.323120 1741.981934,1434.999878 
	C1741.953247,1440.120850 1743.618286,1440.462158 1749.007690,1440.341919 
	C1780.325439,1439.643188 1811.666626,1440.006226 1842.999878,1439.958252 
	C1843.667114,1439.957275 1844.333374,1440.000000 1846.000000,1442.500000 
	C1846.000000,1455.317871 1846.000000,1469.658936 1846.000000,1484.000000 
"/>
<path fill="none" opacity="1.000000" stroke="#000000" stroke-linecap="round" stroke-linejoin="round" stroke-width="7.000000"
	d="
M1786.000000,1628.000000 
	C1786.000000,1660.666626 1786.000000,1693.333374 1786.000000,1726.000000 
"/>
<path fill="none" opacity="1.000000" stroke="#000000" stroke-linecap="round" stroke-linejoin="round" stroke-width="5.000000"
	d="
M1489.000000,1656.000000 
	C1481.282715,1657.535278 1480.921143,1664.989380 1479.315796,1670.099243 
	C1474.754883,1684.616943 1467.865479,1698.238403 1463.671997,1712.906250 
	C1462.480591,1717.073120 1460.718628,1722.367920 1454.923828,1724.950806 
	C1446.726196,1717.543945 1445.518921,1705.715088 1441.471802,1695.807251 
	C1436.550171,1683.758423 1432.033325,1671.569458 1426.000000,1660.000000 
"/>
<path fill="none" opacity="1.000000" stroke="#000000" stroke-linecap="round" stroke-linejoin="round" stroke-width="3.000000"
	d="
M2422.000000,1438.000000 
	C2422.000000,1426.323853 2422.000000,1414.647583 2422.000000,1402.000000 
	C2398.333252,1402.000000 2375.666748,1402.000000 2352.000000,1402.000000 
	C2352.000000,1413.645874 2352.014648,1424.322876 2351.992676,1435.000000 
	C2351.984131,1439.131470 2352.224365,1440.540649 2358.010498,1440.378418 
	C2387.320801,1439.556152 2416.669922,1440.228882 2445.997803,1439.836670 
	C2453.204102,1439.740356 2455.310059,1442.226440 2455.100098,1449.003052 
	C2454.738770,1460.658569 2455.000000,1472.333374 2455.000000,1484.000000 
"/>
<path fill="none" opacity="1.000000" stroke="#000000" stroke-linecap="round" stroke-linejoin="round" stroke-width="3.000000"
	d="
M1092.000000,777.000000 
	C1078.378540,779.187439 1064.664795,777.576721 1050.998657,777.948975 
	C1041.339111,778.212158 1031.666626,778.000000 1022.000000,778.000000 
"/>
<path fill="none" opacity="1.000000" stroke="#000000" stroke-linecap="round" stroke-linejoin="round" stroke-width="3.000000"
	d="
M2306.000000,1033.000000 
	C2320.958252,1035.213501 2336.002930,1033.506836 2351.001221,1033.963623 
	C2357.994629,1034.176636 2365.000000,1034.000000 2372.000000,1034.000000 
"/>
<path fill="none" opacity="1.000000" stroke="#000000" stroke-linecap="round" stroke-linejoin="round" stroke-width="3.000000"
	d="
M1345.000000,1246.000000 
	C1333.359375,1267.679688 1322.342285,1289.671143 1312.000000,1312.000000 
"/>
<path fill="none" opacity="1.000000" stroke="#000000" stroke-linecap="round" stroke-linejoin="round" stroke-width="3.000000"
	d="
M1697.000000,1033.000000 
	C1718.637085,1035.254883 1740.337769,1033.380615 1762.000000,1034.000000 
"/>
<path fill="none" opacity="1.000000" stroke="#000000" stroke-linecap="round" stroke-linejoin="round" stroke-width="5.000000"
	d="
M1577.000000,1693.000000 
	C1563.755493,1677.983154 1555.762451,1659.599365 1544.823853,1643.116943 
	C1542.012573,1638.880859 1540.473389,1633.216553 1535.000000,1631.000000 
"/>
<path fill="none" opacity="1.000000" stroke="#000000" stroke-linecap="round" stroke-linejoin="round" stroke-width="3.000000"
	d="
M1762.000000,1119.000000 
	C1746.374390,1116.734863 1730.662720,1118.552002 1714.999023,1118.030396 
	C1709.338623,1117.841919 1703.666626,1118.000000 1698.000000,1118.000000 
"/>
<path fill="none" opacity="1.000000" stroke="#000000" stroke-linecap="round" stroke-linejoin="round" stroke-width="3.000000"
	d="
M1762.000000,1058.000000 
	C1740.666626,1058.000000 1719.333374,1058.000000 1698.000000,1058.000000 
"/>
<path fill="none" opacity="1.000000" stroke="#000000" stroke-linecap="round" stroke-linejoin="round" stroke-width="3.000000"
	d="
M2372.000000,1058.000000 
	C2350.666748,1058.000000 2329.333252,1058.000000 2308.000000,1058.000000 
"/>
<path fill="none" opacity="1.000000" stroke="#000000" stroke-linecap="round" stroke-linejoin="round" stroke-width="3.000000"
	d="
M2372.000000,1093.000000 
	C2356.374512,1090.734863 2340.662842,1092.551880 2324.999023,1092.030396 
	C2319.338623,1091.841919 2313.666748,1092.000000 2308.000000,1092.000000 
"/>
<path fill="none" opacity="1.000000" stroke="#000000" stroke-linecap="round" stroke-linejoin="round" stroke-width="3.000000"
	d="
M1762.000000,1093.000000 
	C1746.374390,1090.734863 1730.662720,1092.552002 1714.999023,1092.030396 
	C1709.338623,1091.841919 1703.666626,1092.000000 1698.000000,1092.000000 
"/>
<path fill="none" opacity="1.000000" stroke="#000000" stroke-linecap="round" stroke-linejoin="round" stroke-width="5.000000"
	d="
M1619.000000,1631.000000 
	C1609.999146,1637.589111 1607.158203,1648.438843 1601.073730,1657.052124 
	C1593.552612,1667.698853 1588.412354,1679.960571 1579.848022,1689.868652 
	C1576.981567,1693.184937 1577.012329,1696.378784 1577.005493,1700.000000 
	C1576.988770,1709.000000 1577.000000,1718.000000 1577.000000,1727.000000 
"/>
<path fill="none" opacity="1.000000" stroke="#000000" stroke-linecap="round" stroke-linejoin="round" stroke-width="3.000000"
	d="
M2370.000000,1118.000000 
	C2349.333252,1118.000000 2328.666748,1118.000000 2308.000000,1118.000000 
"/>
<path fill="none" opacity="1.000000" stroke="#000000" stroke-linecap="round" stroke-linejoin="round" stroke-width="2.000000"
	d="
M1027.000000,742.000000 
	C1050.311890,743.831055 1073.666504,742.679077 1097.000000,743.000000 
"/>
<path fill="none" opacity="1.000000" stroke="#000000" stroke-linecap="round" stroke-linejoin="round" stroke-width="3.000000"
	d="
M2309.000000,1152.000000 
	C2326.000000,1152.000000 2343.000000,1151.971558 2360.000000,1152.024292 
	C2363.349121,1152.034668 2366.793701,1151.397461 2370.000000,1153.000000 
"/>
<path fill="none" opacity="1.000000" stroke="#000000" stroke-linecap="round" stroke-linejoin="round" stroke-width="3.000000"
	d="
M1699.000000,1152.000000 
	C1719.333374,1152.000000 1739.666626,1152.000000 1760.000000,1152.000000 
"/>
<path fill="none" opacity="1.000000" stroke="#000000" stroke-linecap="round" stroke-linejoin="round" stroke-width="3.000000"
	d="
M1760.000000,1178.000000 
	C1740.000000,1178.000000 1720.000000,1178.000000 1700.000000,1178.000000 
"/>
<path fill="none" opacity="1.000000" stroke="#000000" stroke-linecap="round" stroke-linejoin="round" stroke-width="3.000000"
	d="
M2370.000000,1178.000000 
	C2350.000000,1178.000000 2330.000000,1178.000000 2310.000000,1178.000000 
"/>
<path fill="none" opacity="1.000000" stroke="#000000" stroke-linecap="round" stroke-linejoin="round" stroke-width="3.000000"
	d="
M1294.000000,1000.000000 
	C1289.473877,988.674133 1288.164551,976.416016 1283.960815,965.014465 
	C1278.446533,950.058899 1276.536499,934.200745 1272.125000,918.963806 
	C1270.332153,912.771790 1265.200073,910.510986 1261.219482,907.445435 
	C1247.520386,913.036621 1246.752808,924.997131 1248.236938,936.970642 
	C1249.414673,946.470825 1256.239380,951.168457 1266.000000,951.000000 
"/>
<path fill="none" opacity="1.000000" stroke="#000000" stroke-linecap="round" stroke-linejoin="round" stroke-width="3.000000"
	d="
M1239.000000,883.000000 
	C1241.449585,882.519287 1243.025269,884.581543 1246.020996,884.438110 
	C1264.318359,883.561646 1282.678711,884.000000 1302.992920,884.000000 
	C1295.503784,892.461914 1294.890381,906.204651 1282.048706,904.608093 
	C1267.747070,902.830017 1247.443726,910.779358 1244.000000,886.000000 
"/>
<path fill="none" opacity="1.000000" stroke="#000000" stroke-linecap="round" stroke-linejoin="round" stroke-width="3.000000"
	d="
M1092.000000,708.000000 
	C1072.000000,708.000000 1052.000000,708.000000 1032.000000,708.000000 
"/>
<path fill="none" opacity="1.000000" stroke="#000000" stroke-linecap="round" stroke-linejoin="round" stroke-width="7.000000"
	d="
M1727.000000,1659.000000 
	C1728.846313,1681.310791 1727.650146,1703.666870 1728.000000,1726.000000 
"/>
<path fill="none" opacity="1.000000" stroke="#000000" stroke-linecap="round" stroke-linejoin="round" stroke-width="6.000000"
	d="
M1812.000000,1688.000000 
	C1820.666626,1698.666626 1829.885132,1708.945312 1837.772095,1720.160278 
	C1841.843506,1725.949585 1846.871704,1728.871948 1853.000000,1731.000000 
"/>
<path fill="none" opacity="1.000000" stroke="#000000" stroke-linecap="round" stroke-linejoin="round" stroke-width="3.000000"
	d="
M1702.000000,1401.000000 
	C1688.378540,1403.187500 1674.662964,1401.488403 1660.998901,1401.969238 
	C1655.651489,1402.157349 1650.291870,1402.000000 1644.000000,1402.000000 
	C1644.000000,1414.647583 1644.000000,1426.323853 1644.000000,1438.000000 
"/>
<path fill="none" opacity="1.000000" stroke="#000000" stroke-linecap="round" stroke-linejoin="round" stroke-width="3.000000"
	d="
M2325.000000,1438.000000 
	C2324.916260,1426.300049 2325.518799,1414.560791 2323.174316,1402.000000 
	C2300.333252,1402.000000 2277.666748,1402.000000 2254.000000,1402.000000 
	C2254.000000,1414.647583 2254.000000,1426.323853 2254.000000,1438.000000 
"/>
<path fill="none" opacity="1.000000" stroke="#000000" stroke-linecap="round" stroke-linejoin="round" stroke-width="3.000000"
	d="
M797.000000,620.000000 
	C794.535034,607.763855 797.155884,595.252808 795.494751,582.500000 
	C783.000000,582.500000 771.000000,582.500000 758.676331,582.500000 
	C756.488892,595.233643 757.073425,607.634583 757.000000,620.000000 
"/>
<path fill="none" opacity="1.000000" stroke="#000000" stroke-linecap="round" stroke-linejoin="round" stroke-width="3.000000"
	d="
M1366.000000,1085.000000 
	C1373.072144,1084.618530 1372.263428,1089.747070 1371.935913,1093.995117 
	C1370.919434,1107.177124 1373.998291,1120.000122 1375.637573,1133.970581 
	C1390.371826,1122.556152 1402.710693,1108.751587 1415.032715,1097.032593 
	C1423.817627,1105.817505 1432.654175,1114.654053 1442.140869,1124.140747 
	C1439.618896,1128.498657 1430.129639,1130.864258 1431.412109,1141.073853 
	C1431.737915,1143.668335 1427.122192,1149.216675 1421.051880,1150.292969 
	C1415.430786,1151.289429 1409.450806,1153.417969 1406.715088,1160.715332 
	C1397.006348,1151.006714 1388.503174,1142.503418 1379.999878,1134.000122 
"/>
<path fill="none" opacity="1.000000" stroke="#000000" stroke-linecap="round" stroke-linejoin="round" stroke-width="3.000000"
	d="
M1088.000000,674.000000 
	C1070.666626,674.000000 1053.333374,674.000000 1036.000000,674.000000 
"/>
<path fill="none" opacity="1.000000" stroke="#000000" stroke-linecap="round" stroke-linejoin="round" stroke-width="3.000000"
	d="
M1372.000000,1269.000000 
	C1372.000000,1283.333374 1372.000000,1297.666626 1372.000000,1312.000000 
"/>
<path fill="none" opacity="1.000000" stroke="#000000" stroke-linecap="round" stroke-linejoin="round" stroke-width="3.000000"
	d="
M2356.000000,1442.000000 
	C2356.000000,1456.000000 2356.000000,1470.000000 2356.000000,1484.000000 
"/>
<path fill="none" opacity="1.000000" stroke="#000000" stroke-linecap="round" stroke-linejoin="round" stroke-width="3.000000"
	d="
M1746.000000,1442.000000 
	C1746.000000,1456.000000 1746.000000,1470.000000 1746.000000,1484.000000 
"/>
<path fill="none" opacity="1.000000" stroke="#000000" stroke-linecap="round" stroke-linejoin="round" stroke-width="5.000000"
	d="
M1849.000000,1655.000000 
	C1832.632446,1660.024414 1825.064453,1675.943970 1811.932007,1684.900391 
	C1804.029541,1690.289917 1799.826416,1700.608276 1789.000000,1702.000000 
"/>
<path fill="none" opacity="1.000000" stroke="#000000" stroke-linecap="round" stroke-linejoin="round" stroke-width="3.000000"
	d="
M1307.000000,1269.000000 
	C1306.856567,1280.063354 1299.951782,1288.864014 1296.804321,1298.938843 
	C1295.440552,1303.304565 1293.590332,1307.637329 1292.000000,1312.000000 
"/>
<path fill="none" opacity="1.000000" stroke="#000000" stroke-linecap="round" stroke-linejoin="round" stroke-width="3.000000"
	d="
M1345.000000,1071.000000 
	C1346.534668,1063.666626 1346.534668,1056.333374 1345.000000,1049.000000 
	C1328.898804,1054.588501 1318.700928,1046.656738 1318.000000,1028.000000 
"/>
<path fill="none" opacity="1.000000" stroke="#000000" stroke-linecap="round" stroke-linejoin="round" stroke-width="3.000000"
	d="
M1431.000000,1130.000000 
	C1423.246826,1124.588989 1416.582520,1128.694824 1412.325195,1134.249268 
	C1408.525146,1139.207275 1408.041870,1146.256958 1413.000000,1152.000000 
"/>
<path fill="none" opacity="1.000000" stroke="#000000" stroke-linecap="round" stroke-linejoin="round" stroke-width="3.000000"
	d="
M1108.000000,813.000000 
	C1112.480713,824.586548 1111.784424,837.037964 1113.764038,849.038940 
	C1118.365723,876.936584 1122.139038,905.011230 1125.497437,933.060181 
	C1127.521484,949.965881 1129.476685,967.153137 1131.902954,983.868958 
	C1134.902222,1004.532166 1137.874512,1025.438477 1141.285400,1046.117798 
	C1143.323975,1058.477783 1144.703491,1071.398926 1146.476807,1083.932495 
	C1148.789795,1100.281128 1149.561401,1116.869263 1153.487671,1133.123779 
	C1155.203979,1140.228027 1155.523682,1148.325806 1156.247070,1155.976685 
	C1157.766968,1172.053589 1160.679443,1187.998169 1162.995850,1204.000610 
	C1164.684082,1215.664062 1166.792847,1227.293335 1167.815552,1239.016113 
	C1168.366211,1245.330078 1169.469727,1251.265991 1172.000000,1257.000000 
"/>
<path fill="none" opacity="1.000000" stroke="#000000" stroke-linecap="round" stroke-linejoin="round" stroke-width="3.000000"
	d="
M1041.000000,639.000000 
	C1053.000000,640.660706 1065.000000,640.660706 1077.000000,639.000000 
"/>
<path fill="none" opacity="1.000000" stroke="#000000" stroke-linecap="round" stroke-linejoin="round" stroke-width="3.000000"
	d="
M768.000000,584.000000 
	C768.560181,595.993713 766.819092,608.051331 769.000000,620.000000 
"/>
<path fill="none" opacity="1.000000" stroke="#000000" stroke-linecap="round" stroke-linejoin="round" stroke-width="3.000000"
	d="
M784.000000,584.000000 
	C784.000000,596.000000 784.000000,608.000000 784.000000,620.000000 
"/>
<path fill="none" opacity="1.000000" stroke="#000000" stroke-linecap="round" stroke-linejoin="round" stroke-width="3.000000"
	d="
M1118.000000,1019.000000 
	C1120.055786,1036.660400 1120.048218,1054.526367 1123.830811,1072.036499 
	C1124.931519,1077.132202 1124.000000,1082.666626 1124.000000,1088.000000 
"/>
<path fill="none" opacity="1.000000" stroke="#000000" stroke-linecap="round" stroke-linejoin="round" stroke-width="3.000000"
	d="
M1706.000000,1404.000000 
	C1706.000000,1415.333374 1706.000000,1426.666626 1706.000000,1438.000000 
"/>
<path fill="none" opacity="1.000000" stroke="#000000" stroke-linecap="round" stroke-linejoin="round" stroke-width="3.000000"
	d="
M2318.000000,1404.000000 
	C2318.000000,1415.333374 2318.000000,1426.666626 2318.000000,1438.000000 
"/>
<path fill="none" opacity="1.000000" stroke="#000000" stroke-linecap="round" stroke-linejoin="round" stroke-width="3.000000"
	d="
M1096.000000,813.000000 
	C1100.437012,821.189148 1098.521973,830.518738 1099.365234,839.062683 
	C1100.971680,855.336365 1102.653320,871.697205 1104.331787,887.965759 
	C1106.638062,910.320618 1108.844360,932.723450 1111.536377,955.055908 
	C1113.487915,971.246338 1115.937622,987.593079 1115.788818,1003.998108 
	C1115.746582,1008.665466 1118.289307,1012.519592 1118.000000,1017.000000 
"/>
<path fill="none" opacity="1.000000" stroke="#000000" stroke-linecap="round" stroke-linejoin="round" stroke-width="3.000000"
	d="
M1080.000000,642.000000 
	C1080.572754,661.811829 1082.956787,681.425598 1085.841797,701.023315 
	C1086.907837,708.265137 1087.028809,715.694153 1087.696533,723.027649 
	C1090.036987,748.738281 1092.499756,774.418152 1095.933105,800.008972 
	C1096.416382,803.610840 1096.000000,807.333313 1096.000000,811.000000 
"/>
<path fill="none" opacity="1.000000" stroke="#000000" stroke-linecap="round" stroke-linejoin="round" stroke-width="3.000000"
	d="
M1125.000000,1090.000000 
	C1126.666748,1106.333374 1127.988281,1122.711304 1130.094116,1138.987793 
	C1132.333862,1156.299438 1132.339966,1173.858154 1136.000000,1191.000000 
"/>
<path fill="none" opacity="1.000000" stroke="#000000" stroke-linecap="round" stroke-linejoin="round" stroke-width="3.000000"
	d="
M1136.000000,1193.000000 
	C1137.413818,1211.397217 1138.648560,1229.802490 1141.880005,1248.021240 
	C1142.682495,1252.545532 1142.000000,1257.333374 1142.000000,1262.000000 
"/>
<path fill="none" opacity="1.000000" stroke="#000000" stroke-linecap="round" stroke-linejoin="round" stroke-width="3.000000"
	d="
M1394.000000,1240.000000 
	C1386.738770,1239.536987 1381.391846,1234.503174 1374.966187,1232.090088 
	C1371.439819,1230.765625 1368.071533,1228.515381 1364.000000,1229.000000 
"/>
<path fill="none" opacity="1.000000" stroke="#000000" stroke-linecap="round" stroke-linejoin="round" stroke-width="3.000000"
	d="
M1076.000000,605.000000 
	C1066.051392,606.875366 1055.999512,605.651062 1046.000000,606.000000 
"/>
<path fill="none" opacity="1.000000" stroke="#000000" stroke-linecap="round" stroke-linejoin="round" stroke-width="3.000000"
	d="
M1758.000000,1455.000000 
	C1758.000000,1464.666626 1758.000000,1474.333374 1758.000000,1484.000000 
"/>
<path fill="none" opacity="1.000000" stroke="#000000" stroke-linecap="round" stroke-linejoin="round" stroke-width="3.000000"
	d="
M2368.000000,1455.000000 
	C2368.000000,1464.666626 2368.000000,1474.333374 2368.000000,1484.000000 
"/>
<path fill="none" opacity="1.000000" stroke="#000000" stroke-linecap="round" stroke-linejoin="round" stroke-width="3.000000"
	d="
M958.000000,1229.000000 
	C954.445679,1235.576904 955.938171,1243.091187 954.186401,1250.046997 
	C953.454712,1252.952393 953.537903,1255.910034 951.000000,1258.000000 
"/>
<path fill="none" opacity="1.000000" stroke="#000000" stroke-linecap="round" stroke-linejoin="round" stroke-width="4.000000"
	d="
M805.000000,655.000000 
	C805.000000,664.333313 805.000000,673.666687 805.000000,683.000000 
"/>
<path fill="none" opacity="1.000000" stroke="#000000" stroke-linecap="round" stroke-linejoin="round" stroke-width="4.000000"
	d="
M761.000000,655.000000 
	C761.000000,664.333313 761.000000,673.666687 761.000000,683.000000 
"/>
<path fill="none" opacity="1.000000" stroke="#000000" stroke-linecap="round" stroke-linejoin="round" stroke-width="3.000000"
	d="
M1272.000000,855.000000 
	C1272.000000,864.000000 1272.000000,873.000000 1272.000000,882.000000 
"/>
<path fill="none" opacity="1.000000" stroke="#000000" stroke-linecap="round" stroke-linejoin="round" stroke-width="5.000000"
	d="
M1757.000000,1659.000000 
	C1750.294312,1658.809814 1745.007202,1662.244873 1740.056152,1666.072632 
	C1736.815186,1668.578125 1734.418701,1672.217285 1730.000000,1673.000000 
"/>
<path fill="none" opacity="1.000000" stroke="#000000" stroke-linecap="round" stroke-linejoin="round" stroke-width="5.000000"
	d="
M790.000000,656.000000 
	C790.000000,664.666687 790.000000,673.333313 790.000000,682.000000 
"/>
<path fill="none" opacity="1.000000" stroke="#000000" stroke-linecap="round" stroke-linejoin="round" stroke-width="3.000000"
	d="
M1289.000000,1287.000000 
	C1282.758179,1294.169922 1282.755127,1303.835327 1279.000000,1312.000000 
"/>
<path fill="none" opacity="1.000000" stroke="#000000" stroke-linecap="round" stroke-linejoin="round" stroke-width="5.000000"
	d="
M746.000000,656.000000 
	C746.000000,664.666687 746.000000,673.333313 746.000000,682.000000 
"/>
<path fill="none" opacity="1.000000" stroke="#000000" stroke-linecap="round" stroke-linejoin="round" stroke-width="5.000000"
	d="
M776.000000,656.000000 
	C776.000000,664.666687 776.000000,673.333313 776.000000,682.000000 
"/>
<path fill="none" opacity="1.000000" stroke="#000000" stroke-linecap="round" stroke-linejoin="round" stroke-width="3.000000"
	d="
M1282.000000,906.000000 
	C1282.139893,914.893311 1280.856079,923.567627 1278.000000,932.000000 
"/>
<path fill="none" opacity="1.000000" stroke="#000000" stroke-linecap="round" stroke-linejoin="round" stroke-width="3.000000"
	d="
M1352.000000,1287.000000 
	C1351.169189,1295.613892 1347.547974,1303.558228 1346.000000,1312.000000 
"/>
<path fill="none" opacity="1.000000" stroke="#000000" stroke-linecap="round" stroke-linejoin="round" stroke-width="3.000000"
	d="
M1392.000000,1287.000000 
	C1390.691284,1295.491333 1395.093750,1303.525879 1394.000000,1312.000000 
"/>
<path fill="none" opacity="1.000000" stroke="#000000" stroke-linecap="round" stroke-linejoin="round" stroke-width="3.000000"
	d="
M1316.000000,1013.000000 
	C1308.186768,1011.889465 1306.057495,1000.961243 1296.142334,1002.144226 
	C1295.029785,1008.127991 1295.967407,1014.086243 1297.990112,1020.003357 
	C1299.361084,1024.014038 1302.733765,1025.067383 1305.941772,1023.846863 
	C1311.320557,1021.800232 1315.173584,1023.803162 1318.833984,1027.457153 
	C1327.920776,1024.073364 1328.902222,1013.648376 1336.000000,1009.000000 
"/>
<path fill="none" opacity="1.000000" stroke="#000000" stroke-linecap="round" stroke-linejoin="round" stroke-width="4.000000"
	d="
M433.000000,1231.000000 
	C425.666656,1231.000000 418.333344,1231.000000 411.000000,1231.000000 
"/>
<path fill="none" opacity="1.000000" stroke="#000000" stroke-linecap="round" stroke-linejoin="round" stroke-width="4.000000"
	d="
M433.000000,1079.000000 
	C425.666656,1079.000000 418.333344,1079.000000 411.000000,1079.000000 
"/>
<path fill="none" opacity="1.000000" stroke="#000000" stroke-linecap="round" stroke-linejoin="round" stroke-width="4.000000"
	d="
M477.000000,1231.000000 
	C469.666656,1231.000000 462.333344,1231.000000 455.000000,1231.000000 
"/>
<path fill="none" opacity="1.000000" stroke="#000000" stroke-linecap="round" stroke-linejoin="round" stroke-width="4.000000"
	d="
M523.000000,1049.000000 
	C515.666687,1049.000000 508.333344,1049.000000 501.000000,1049.000000 
"/>
<path fill="none" opacity="1.000000" stroke="#000000" stroke-linecap="round" stroke-linejoin="round" stroke-width="4.000000"
	d="
M477.000000,1049.000000 
	C469.666656,1049.000000 462.333344,1049.000000 455.000000,1049.000000 
"/>
<path fill="none" opacity="1.000000" stroke="#000000" stroke-linecap="round" stroke-linejoin="round" stroke-width="4.000000"
	d="
M523.000000,1231.000000 
	C515.666687,1231.000000 508.333344,1231.000000 501.000000,1231.000000 
"/>
<path fill="none" opacity="1.000000" stroke="#000000" stroke-linecap="round" stroke-linejoin="round" stroke-width="4.000000"
	d="
M433.000000,1049.000000 
	C425.666656,1049.000000 418.333344,1049.000000 411.000000,1049.000000 
"/>
<path fill="none" opacity="1.000000" stroke="#000000" stroke-linecap="round" stroke-linejoin="round" stroke-width="4.000000"
	d="
M477.000000,1079.000000 
	C469.666656,1079.000000 462.333344,1079.000000 455.000000,1079.000000 
"/>
<path fill="none" opacity="1.000000" stroke="#000000" stroke-linecap="round" stroke-linejoin="round" stroke-width="4.000000"
	d="
M523.000000,1079.000000 
	C515.666687,1079.000000 508.333344,1079.000000 501.000000,1079.000000 
"/>
<path fill="none" opacity="1.000000" stroke="#000000" stroke-linecap="round" stroke-linejoin="round" stroke-width="3.000000"
	d="
M1143.000000,1264.000000 
	C1145.143311,1272.890625 1142.877197,1282.107910 1145.000000,1291.000000 
"/>
<path fill="none" opacity="1.000000" stroke="#000000" stroke-linecap="round" stroke-linejoin="round" stroke-width="4.000000"
	d="
M477.000000,1201.000000 
	C469.666656,1201.000000 462.333344,1201.000000 455.000000,1201.000000 
"/>
<path fill="none" opacity="1.000000" stroke="#000000" stroke-linecap="round" stroke-linejoin="round" stroke-width="4.000000"
	d="
M523.000000,1201.000000 
	C515.666687,1201.000000 508.333344,1201.000000 501.000000,1201.000000 
"/>
<path fill="none" opacity="1.000000" stroke="#000000" stroke-linecap="round" stroke-linejoin="round" stroke-width="4.000000"
	d="
M433.000000,1353.000000 
	C425.666656,1353.000000 418.333344,1353.000000 411.000000,1353.000000 
"/>
<path fill="none" opacity="1.000000" stroke="#000000" stroke-linecap="round" stroke-linejoin="round" stroke-width="4.000000"
	d="
M477.000000,1353.000000 
	C469.666656,1353.000000 462.333344,1353.000000 455.000000,1353.000000 
"/>
<path fill="none" opacity="1.000000" stroke="#000000" stroke-linecap="round" stroke-linejoin="round" stroke-width="4.000000"
	d="
M523.000000,1353.000000 
	C515.666687,1353.000000 508.333344,1353.000000 501.000000,1353.000000 
"/>
<path fill="none" opacity="1.000000" stroke="#000000" stroke-linecap="round" stroke-linejoin="round" stroke-width="4.000000"
	d="
M433.000000,1383.000000 
	C425.666656,1383.000000 418.333344,1383.000000 411.000000,1383.000000 
"/>
<path fill="none" opacity="1.000000" stroke="#000000" stroke-linecap="round" stroke-linejoin="round" stroke-width="4.000000"
	d="
M477.000000,1383.000000 
	C469.666656,1383.000000 462.333344,1383.000000 455.000000,1383.000000 
"/>
<path fill="none" opacity="1.000000" stroke="#000000" stroke-linecap="round" stroke-linejoin="round" stroke-width="4.000000"
	d="
M523.000000,1383.000000 
	C515.666687,1383.000000 508.333344,1383.000000 501.000000,1383.000000 
"/>
<path fill="none" opacity="1.000000" stroke="#000000" stroke-linecap="round" stroke-linejoin="round" stroke-width="3.000000"
	d="
M1050.000000,571.000000 
	C1057.333374,572.874634 1064.666626,572.142090 1072.000000,571.000000 
"/>
<path fill="none" opacity="1.000000" stroke="#000000" stroke-linecap="round" stroke-linejoin="round" stroke-width="3.000000"
	d="
M1296.000000,1017.000000 
	C1288.807373,1019.516113 1280.646729,1018.482422 1274.000000,1023.000000 
"/>
<path fill="none" opacity="1.000000" stroke="#000000" stroke-linecap="round" stroke-linejoin="round" stroke-width="4.000000"
	d="
M433.000000,1201.000000 
	C425.666656,1201.000000 418.333344,1201.000000 411.000000,1201.000000 
"/>
<path fill="none" opacity="1.000000" stroke="#000000" stroke-linecap="round" stroke-linejoin="round" stroke-width="3.000000"
	d="
M1336.000000,1005.000000 
	C1338.118164,1013.106567 1343.541504,1019.049072 1348.977783,1025.020264 
	C1352.272949,1028.639648 1354.634644,1026.743408 1357.000000,1024.000000 
"/>
<path fill="none" opacity="1.000000" stroke="#000000" stroke-linecap="round" stroke-linejoin="round" stroke-width="5.000000"
	d="
M476.000000,1444.000000 
	C469.013367,1444.613770 461.910706,1442.791260 455.000000,1445.000000 
"/>
<path fill="none" opacity="1.000000" stroke="#000000" stroke-linecap="round" stroke-linejoin="round" stroke-width="5.000000"
	d="
M476.000000,1414.000000 
	C469.013367,1413.386230 461.910706,1415.208740 455.000000,1413.000000 
"/>
<path fill="none" opacity="1.000000" stroke="#000000" stroke-linecap="round" stroke-linejoin="round" stroke-width="5.000000"
	d="
M476.000000,1322.000000 
	C469.013367,1322.613770 461.910706,1320.791260 455.000000,1323.000000 
"/>
<path fill="none" opacity="1.000000" stroke="#000000" stroke-linecap="round" stroke-linejoin="round" stroke-width="5.000000"
	d="
M523.000000,1323.000000 
	C516.089294,1320.791260 508.986633,1322.613770 502.000000,1322.000000 
"/>
<path fill="none" opacity="1.000000" stroke="#000000" stroke-linecap="round" stroke-linejoin="round" stroke-width="5.000000"
	d="
M476.000000,1262.000000 
	C469.013367,1261.386230 461.910706,1263.208740 455.000000,1261.000000 
"/>
<path fill="none" opacity="1.000000" stroke="#000000" stroke-linecap="round" stroke-linejoin="round" stroke-width="5.000000"
	d="
M476.000000,1170.000000 
	C469.013367,1170.613770 461.910706,1168.791260 455.000000,1171.000000 
"/>
<path fill="none" opacity="1.000000" stroke="#000000" stroke-linecap="round" stroke-linejoin="round" stroke-width="5.000000"
	d="
M476.000000,1292.000000 
	C469.013367,1292.613770 461.910706,1290.791260 455.000000,1293.000000 
"/>
<path fill="none" opacity="1.000000" stroke="#000000" stroke-linecap="round" stroke-linejoin="round" stroke-width="5.000000"
	d="
M476.000000,1140.000000 
	C469.013367,1140.613770 461.910706,1138.791260 455.000000,1141.000000 
"/>
<path fill="none" opacity="1.000000" stroke="#000000" stroke-linecap="round" stroke-linejoin="round" stroke-width="2.000000"
	d="
M1150.000000,1123.000000 
	C1143.000000,1123.000000 1136.000000,1123.000000 1129.000000,1123.000000 
"/>
<path fill="none" opacity="1.000000" stroke="#000000" stroke-linecap="round" stroke-linejoin="round" stroke-width="5.000000"
	d="
M476.000000,1110.000000 
	C469.013367,1109.386230 461.910706,1111.208740 455.000000,1109.000000 
"/>
<path fill="none" opacity="1.000000" stroke="#000000" stroke-linecap="round" stroke-linejoin="round" stroke-width="5.000000"
	d="
M523.000000,1171.000000 
	C516.089294,1168.791260 508.986633,1170.613770 502.000000,1170.000000 
"/>
<path fill="none" opacity="1.000000" stroke="#000000" stroke-linecap="round" stroke-linejoin="round" stroke-width="5.000000"
	d="
M432.000000,1140.000000 
	C425.333344,1140.000000 418.666656,1140.000000 412.000000,1140.000000 
"/>
<path fill="none" opacity="1.000000" stroke="#000000" stroke-linecap="round" stroke-linejoin="round" stroke-width="5.000000"
	d="
M522.000000,1414.000000 
	C515.333313,1414.000000 508.666656,1414.000000 502.000000,1414.000000 
"/>
<path fill="none" opacity="1.000000" stroke="#000000" stroke-linecap="round" stroke-linejoin="round" stroke-width="5.000000"
	d="
M432.000000,1110.000000 
	C425.333344,1110.000000 418.666656,1110.000000 412.000000,1110.000000 
"/>
<path fill="none" opacity="1.000000" stroke="#000000" stroke-linecap="round" stroke-linejoin="round" stroke-width="5.000000"
	d="
M432.000000,1444.000000 
	C425.333344,1444.000000 418.666656,1444.000000 412.000000,1444.000000 
"/>
<path fill="none" opacity="1.000000" stroke="#000000" stroke-linecap="round" stroke-linejoin="round" stroke-width="5.000000"
	d="
M432.000000,1414.000000 
	C425.333344,1414.000000 418.666656,1414.000000 412.000000,1414.000000 
"/>
<path fill="none" opacity="1.000000" stroke="#000000" stroke-linecap="round" stroke-linejoin="round" stroke-width="5.000000"
	d="
M522.000000,1110.000000 
	C515.333313,1110.000000 508.666656,1110.000000 502.000000,1110.000000 
"/>
<path fill="none" opacity="1.000000" stroke="#000000" stroke-linecap="round" stroke-linejoin="round" stroke-width="5.000000"
	d="
M432.000000,1322.000000 
	C425.333344,1322.000000 418.666656,1322.000000 412.000000,1322.000000 
"/>
<path fill="none" opacity="1.000000" stroke="#000000" stroke-linecap="round" stroke-linejoin="round" stroke-width="5.000000"
	d="
M522.000000,1140.000000 
	C515.333313,1140.000000 508.666656,1140.000000 502.000000,1140.000000 
"/>
<path fill="none" opacity="1.000000" stroke="#000000" stroke-linecap="round" stroke-linejoin="round" stroke-width="5.000000"
	d="
M432.000000,1292.000000 
	C425.333344,1292.000000 418.666656,1292.000000 412.000000,1292.000000 
"/>
<path fill="none" opacity="1.000000" stroke="#000000" stroke-linecap="round" stroke-linejoin="round" stroke-width="5.000000"
	d="
M522.000000,1292.000000 
	C515.333313,1292.000000 508.666656,1292.000000 502.000000,1292.000000 
"/>
<path fill="none" opacity="1.000000" stroke="#000000" stroke-linecap="round" stroke-linejoin="round" stroke-width="5.000000"
	d="
M522.000000,1444.000000 
	C515.333313,1444.000000 508.666656,1444.000000 502.000000,1444.000000 
"/>
<path fill="none" opacity="1.000000" stroke="#000000" stroke-linecap="round" stroke-linejoin="round" stroke-width="5.000000"
	d="
M432.000000,1170.000000 
	C425.333344,1170.000000 418.666656,1170.000000 412.000000,1170.000000 
"/>
<path fill="none" opacity="1.000000" stroke="#000000" stroke-linecap="round" stroke-linejoin="round" stroke-width="5.000000"
	d="
M522.000000,1262.000000 
	C515.333313,1262.000000 508.666656,1262.000000 502.000000,1262.000000 
"/>
<path fill="none" opacity="1.000000" stroke="#000000" stroke-linecap="round" stroke-linejoin="round" stroke-width="5.000000"
	d="
M432.000000,1262.000000 
	C425.333344,1262.000000 418.666656,1262.000000 412.000000,1262.000000 
"/>
<path fill="none" opacity="1.000000" stroke="#000000" stroke-linecap="round" stroke-linejoin="round" stroke-width="4.000000"
	d="
M1356.000000,988.000000 
	C1358.470703,989.666687 1356.682861,991.787048 1355.892334,992.925232 
	C1351.310791,999.521484 1349.806152,1005.721069 1354.738403,1013.173096 
	C1356.415039,1015.706421 1354.083130,1021.207825 1358.088013,1022.775269 
	C1361.669800,1024.177124 1366.530518,1024.984253 1369.856934,1023.644836 
	C1373.486206,1022.183472 1376.000000,1024.828979 1379.000000,1024.000000 
"/>
<path fill="none" opacity="1.000000" stroke="#000000" stroke-linecap="round" stroke-linejoin="round" stroke-width="5.000000"
	d="
M700.000000,1148.000000 
	C693.666687,1148.000000 687.333313,1148.000000 681.000000,1148.000000 
"/>
<path fill="none" opacity="1.000000" stroke="#000000" stroke-linecap="round" stroke-linejoin="round" stroke-width="5.000000"
	d="
M700.000000,1240.000000 
	C693.666687,1240.000000 687.333313,1240.000000 681.000000,1240.000000 
"/>
<path fill="none" opacity="1.000000" stroke="#000000" stroke-linecap="round" stroke-linejoin="round" stroke-width="5.000000"
	d="
M700.000000,1278.000000 
	C693.666687,1278.000000 687.333313,1278.000000 681.000000,1278.000000 
"/>
<path fill="none" opacity="1.000000" stroke="#000000" stroke-linecap="round" stroke-linejoin="round" stroke-width="5.000000"
	d="
M771.000000,1090.000000 
	C764.666687,1090.000000 758.333313,1090.000000 752.000000,1090.000000 
"/>
<path fill="none" opacity="1.000000" stroke="#000000" stroke-linecap="round" stroke-linejoin="round" stroke-width="5.000000"
	d="
M771.000000,1220.000000 
	C764.666687,1220.000000 758.333313,1220.000000 752.000000,1220.000000 
"/>
<path fill="none" opacity="1.000000" stroke="#000000" stroke-linecap="round" stroke-linejoin="round" stroke-width="5.000000"
	d="
M771.000000,1258.000000 
	C764.666687,1258.000000 758.333313,1258.000000 752.000000,1258.000000 
"/>
<path fill="none" opacity="1.000000" stroke="#000000" stroke-linecap="round" stroke-linejoin="round" stroke-width="5.000000"
	d="
M771.000000,1364.000000 
	C764.666687,1364.000000 758.333313,1364.000000 752.000000,1364.000000 
"/>
<path fill="none" opacity="1.000000" stroke="#000000" stroke-linecap="round" stroke-linejoin="round" stroke-width="5.000000"
	d="
M771.000000,1402.000000 
	C764.666687,1402.000000 758.333313,1402.000000 752.000000,1402.000000 
"/>
<path fill="none" opacity="1.000000" stroke="#000000" stroke-linecap="round" stroke-linejoin="round" stroke-width="5.000000"
	d="
M700.000000,1384.000000 
	C693.666687,1384.000000 687.333313,1384.000000 681.000000,1384.000000 
"/>
<path fill="none" opacity="1.000000" stroke="#000000" stroke-linecap="round" stroke-linejoin="round" stroke-width="5.000000"
	d="
M771.000000,1128.000000 
	C764.666687,1128.000000 758.333313,1128.000000 752.000000,1128.000000 
"/>
<path fill="none" opacity="1.000000" stroke="#000000" stroke-linecap="round" stroke-linejoin="round" stroke-width="3.000000"
	d="
M1354.000000,1028.000000 
	C1354.594971,1035.706665 1350.370483,1041.384033 1346.000000,1047.000000 
"/>
<path fill="none" opacity="1.000000" stroke="#000000" stroke-linecap="round" stroke-linejoin="round" stroke-width="5.000000"
	d="
M700.000000,1090.000000 
	C693.666687,1090.000000 687.333313,1090.000000 681.000000,1090.000000 
"/>
<path fill="none" opacity="1.000000" stroke="#000000" stroke-linecap="round" stroke-linejoin="round" stroke-width="5.000000"
	d="
M700.000000,1326.000000 
	C693.666687,1326.000000 687.333313,1326.000000 681.000000,1326.000000 
"/>
<path fill="none" opacity="1.000000" stroke="#000000" stroke-linecap="round" stroke-linejoin="round" stroke-width="4.000000"
	d="
M869.000000,1219.000000 
	C863.000000,1219.000000 857.000000,1219.000000 851.000000,1219.000000 
"/>
<path fill="none" opacity="1.000000" stroke="#000000" stroke-linecap="round" stroke-linejoin="round" stroke-width="4.000000"
	d="
M869.000000,1127.000000 
	C863.000000,1127.000000 857.000000,1127.000000 851.000000,1127.000000 
"/>
<path fill="none" opacity="1.000000" stroke="#000000" stroke-linecap="round" stroke-linejoin="round" stroke-width="4.000000"
	d="
M803.000000,1201.000000 
	C797.000000,1202.169067 791.000000,1197.960693 785.000000,1201.000000 
"/>
<path fill="none" opacity="1.000000" stroke="#000000" stroke-linecap="round" stroke-linejoin="round" stroke-width="4.000000"
	d="
M769.000000,1201.000000 
	C763.000000,1197.960693 757.000000,1202.169067 751.000000,1201.000000 
"/>
<path fill="none" opacity="1.000000" stroke="#000000" stroke-linecap="round" stroke-linejoin="round" stroke-width="4.000000"
	d="
M869.000000,1277.000000 
	C863.000000,1277.000000 857.000000,1277.000000 851.000000,1277.000000 
"/>
<path fill="none" opacity="1.000000" stroke="#000000" stroke-linecap="round" stroke-linejoin="round" stroke-width="4.000000"
	d="
M869.000000,1401.000000 
	C863.000000,1401.000000 857.000000,1401.000000 851.000000,1401.000000 
"/>
<path fill="none" opacity="1.000000" stroke="#000000" stroke-linecap="round" stroke-linejoin="round" stroke-width="4.000000"
	d="
M803.000000,1383.000000 
	C797.000000,1383.000000 791.000000,1383.000000 785.000000,1383.000000 
"/>
<path fill="none" opacity="1.000000" stroke="#000000" stroke-linecap="round" stroke-linejoin="round" stroke-width="4.000000"
	d="
M803.000000,1325.000000 
	C797.000000,1325.000000 791.000000,1325.000000 785.000000,1325.000000 
"/>
<path fill="none" opacity="1.000000" stroke="#000000" stroke-linecap="round" stroke-linejoin="round" stroke-width="4.000000"
	d="
M869.000000,1325.000000 
	C863.000000,1325.000000 857.000000,1325.000000 851.000000,1325.000000 
"/>
<path fill="none" opacity="1.000000" stroke="#000000" stroke-linecap="round" stroke-linejoin="round" stroke-width="4.000000"
	d="
M803.000000,1147.000000 
	C797.000000,1147.000000 791.000000,1147.000000 785.000000,1147.000000 
"/>
<path fill="none" opacity="1.000000" stroke="#000000" stroke-linecap="round" stroke-linejoin="round" stroke-width="4.000000"
	d="
M869.000000,1089.000000 
	C863.000000,1089.000000 857.000000,1089.000000 851.000000,1089.000000 
"/>
<path fill="none" opacity="1.000000" stroke="#000000" stroke-linecap="round" stroke-linejoin="round" stroke-width="4.000000"
	d="
M803.000000,1239.000000 
	C797.000000,1239.000000 791.000000,1239.000000 785.000000,1239.000000 
"/>
<path fill="none" opacity="1.000000" stroke="#000000" stroke-linecap="round" stroke-linejoin="round" stroke-width="4.000000"
	d="
M869.000000,1363.000000 
	C863.000000,1363.000000 857.000000,1363.000000 851.000000,1363.000000 
"/>
<path fill="none" opacity="1.000000" stroke="#000000" stroke-linecap="round" stroke-linejoin="round" stroke-width="4.000000"
	d="
M802.000000,1108.000000 
	C796.333313,1108.333374 790.666687,1108.666748 785.000000,1109.000000 
"/>
<path fill="none" opacity="1.000000" stroke="#000000" stroke-linecap="round" stroke-linejoin="round" stroke-width="4.000000"
	d="
M767.000000,1383.000000 
	C761.666687,1383.000000 756.333313,1383.000000 751.000000,1383.000000 
"/>
<path fill="none" opacity="1.000000" stroke="#000000" stroke-linecap="round" stroke-linejoin="round" stroke-width="4.000000"
	d="
M701.000000,1071.000000 
	C695.666687,1071.000000 690.333313,1071.000000 685.000000,1071.000000 
"/>
<path fill="none" opacity="1.000000" stroke="#000000" stroke-linecap="round" stroke-linejoin="round" stroke-width="4.000000"
	d="
M767.000000,1239.000000 
	C761.666687,1239.000000 756.333313,1239.000000 751.000000,1239.000000 
"/>
<path fill="none" opacity="1.000000" stroke="#000000" stroke-linecap="round" stroke-linejoin="round" stroke-width="4.000000"
	d="
M701.000000,1221.000000 
	C695.666687,1221.000000 690.333313,1221.000000 685.000000,1221.000000 
"/>
<path fill="none" opacity="1.000000" stroke="#000000" stroke-linecap="round" stroke-linejoin="round" stroke-width="4.000000"
	d="
M767.000000,1109.000000 
	C761.666687,1109.000000 756.333313,1109.000000 751.000000,1109.000000 
"/>
<path fill="none" opacity="1.000000" stroke="#000000" stroke-linecap="round" stroke-linejoin="round" stroke-width="4.000000"
	d="
M701.000000,1403.000000 
	C695.666687,1403.000000 690.333313,1403.000000 685.000000,1403.000000 
"/>
<path fill="none" opacity="1.000000" stroke="#000000" stroke-linecap="round" stroke-linejoin="round" stroke-width="3.000000"
	d="
M1308.000000,973.000000 
	C1309.481934,978.925720 1315.877075,982.763916 1315.792358,988.997192 
	C1315.712158,994.914185 1321.642334,998.230347 1320.856934,1005.284546 
	C1316.333374,1003.660278 1311.666626,1004.051147 1307.000000,1004.000000 
"/>
<path fill="none" opacity="1.000000" stroke="#000000" stroke-linecap="round" stroke-linejoin="round" stroke-width="4.000000"
	d="
M817.000000,772.000000 
	C811.767273,770.056824 806.329285,771.397949 801.000000,771.000000 
"/>
<path fill="none" opacity="1.000000" stroke="#000000" stroke-linecap="round" stroke-linejoin="round" stroke-width="4.000000"
	d="
M767.000000,1325.000000 
	C761.666687,1325.000000 756.333313,1325.000000 751.000000,1325.000000 
"/>
<path fill="none" opacity="1.000000" stroke="#000000" stroke-linecap="round" stroke-linejoin="round" stroke-width="4.000000"
	d="
M817.000000,742.000000 
	C811.767273,740.056824 806.329285,741.397949 801.000000,741.000000 
"/>
<path fill="none" opacity="1.000000" stroke="#000000" stroke-linecap="round" stroke-linejoin="round" stroke-width="4.000000"
	d="
M817.000000,802.000000 
	C811.862915,798.526367 806.162720,804.062866 801.000000,801.000000 
"/>
<path fill="none" opacity="1.000000" stroke="#000000" stroke-linecap="round" stroke-linejoin="round" stroke-width="4.000000"
	d="
M701.000000,1345.000000 
	C695.666687,1345.000000 690.333313,1345.000000 685.000000,1345.000000 
"/>
<path fill="none" opacity="1.000000" stroke="#000000" stroke-linecap="round" stroke-linejoin="round" stroke-width="4.000000"
	d="
M767.000000,1147.000000 
	C761.666687,1147.000000 756.333313,1147.000000 751.000000,1147.000000 
"/>
<path fill="none" opacity="1.000000" stroke="#000000" stroke-linecap="round" stroke-linejoin="round" stroke-width="4.000000"
	d="
M701.000000,1259.000000 
	C695.666687,1259.000000 690.333313,1259.000000 685.000000,1259.000000 
"/>
<path fill="none" opacity="1.000000" stroke="#000000" stroke-linecap="round" stroke-linejoin="round" stroke-width="4.000000"
	d="
M701.000000,1129.000000 
	C695.666687,1129.000000 690.333313,1129.000000 685.000000,1129.000000 
"/>
<path fill="none" opacity="1.000000" stroke="#000000" stroke-linecap="round" stroke-linejoin="round" stroke-width="3.000000"
	d="
M1082.000000,625.000000 
	C1085.500000,629.440491 1084.368774,634.211731 1083.000000,639.000000 
"/>
<path fill="none" opacity="1.000000" stroke="#000000" stroke-linecap="round" stroke-linejoin="round" stroke-width="3.000000"
	d="
M1381.000000,999.000000 
	C1371.983276,1004.141296 1361.729492,1003.303772 1352.000000,1005.000000 
"/>
<path fill="none" opacity="1.000000" stroke="#000000" stroke-linecap="round" stroke-linejoin="round" stroke-width="3.000000"
	d="
M1334.000000,983.000000 
	C1330.205566,986.852112 1332.786987,991.685181 1332.000000,996.000000 
"/>
<path fill="none" opacity="1.000000" stroke="#000000" stroke-linecap="round" stroke-linejoin="round" stroke-width="3.000000"
	d="
M1367.000000,1005.000000 
	C1365.290161,1010.357239 1360.241943,1011.124268 1356.000000,1013.000000 
"/>
<path fill="none" opacity="1.000000" stroke="#000000" stroke-linecap="round" stroke-linejoin="round" stroke-width="3.000000"
	d="
M1329.000000,997.000000 
	C1324.873779,993.818176 1322.538086,988.487610 1317.000000,987.000000 
"/>
<path fill="none" opacity="1.000000" stroke="#000000" stroke-linecap="round" stroke-linejoin="round" stroke-width="3.000000"
	d="
M1056.000000,536.000000 
	C1059.666626,536.000000 1063.333374,536.000000 1067.000000,536.000000 
"/>
<path fill="none" opacity="1.000000" stroke="#000000" stroke-linecap="round" stroke-linejoin="round" stroke-width="3.000000"
	d="
M1112.000000,845.000000 
	C1108.456421,846.686707 1104.677246,845.783386 1101.000000,846.000000 
"/>
<path fill="none" opacity="1.000000" stroke="#000000" stroke-linecap="round" stroke-linejoin="round" stroke-width="4.000000"
	d="
M1339.000000,997.000000 
	C1328.163208,995.817749 1318.724487,1003.366150 1317.122559,1015.016846 
	C1316.699707,1018.092957 1316.537964,1020.910034 1314.000000,1023.000000 
"/>
</svg>