<?xml version="1.0" standalone="no"?>
<!DOCTYPE svg PUBLIC "-//W3C//DTD SVG 20010904//EN"
 "http://www.w3.org/TR/2001/REC-SVG-20010904/DTD/svg10.dtd">
<svg version="1.0" xmlns="http://www.w3.org/2000/svg"
 width="3000.000000pt" height="2000.000000pt" viewBox="0 0 3000.000000 2000.000000"
 preserveAspectRatio="xMidYMid meet">

<g transform="translate(0.000000,2000.000000) scale(0.100000,-0.100000)"
fill="#000000" stroke="none">
<path d="M10560 17360 l0 -850 -95 0 -95 0 0 -400 0 -400 -315 0 -315 0 -1
-237 c-1 -131 -2 -244 -3 -252 0 -7 -66 -39 -153 -74 l-153 -61 0 -628 0 -628
-500 0 -500 0 0 -1215 0 -1215 -55 0 -55 0 0 685 0 685 -70 0 -70 0 0 530 0
530 -115 0 -115 0 0 200 0 200 -216 -2 -215 -3 -2 -195 -2 -195 -127 -3 -128
-3 0 -529 0 -530 -60 0 -60 0 -1 -665 c-1 -366 -3 -669 -4 -675 -1 -5 -3 -15
-4 -21 -1 -7 -44 -9 -128 -8 l-128 3 -3 -878 -2 -877 -38 3 -37 3 -3 1257 -2
1257 -23 3 c-12 2 -401 2 -864 0 l-843 -2 0 -1035 c0 -569 -2 -1035 -5 -1035
-3 0 -269 232 -592 517 l-588 516 -3 -1206 -2 -1207 -425 0 -425 0 0 -1765 0
-1765 -255 0 c-248 0 -255 -1 -255 -20 0 -20 7 -20 12495 -20 12488 0 12495 0
12495 20 0 20 -7 20 -815 20 l-815 0 0 1085 0 1085 -630 0 -630 0 1 698 0 697
22 -29 c185 -246 281 -358 434 -506 211 -207 407 -349 641 -468 111 -56 134
-64 142 -52 5 8 9 17 9 20 0 3 -58 33 -128 67 -373 181 -744 518 -1065 967
l-56 78 0 1403 c0 926 -3 1404 -10 1407 -5 2 -372 2 -815 0 l-805 -2 -2 -572
-3 -572 -54 93 c-44 76 -56 90 -66 79 -7 -7 -45 -65 -84 -128 l-71 -114 -1
-106 c-1 -58 -2 -112 -3 -120 -2 -8 -3 -45 -4 -82 l-2 -68 -855 0 -855 0 -2
-917 -3 -918 -410 0 -410 0 -3 1783 -2 1782 -1200 0 -1200 0 0 -561 0 -562
-75 -119 -75 -119 0 -212 c0 -117 -3 -276 -7 -354 l-6 -143 -329 0 -328 0 0
128 c0 70 -3 231 -6 357 l-6 230 -73 125 c-40 69 -76 125 -81 124 -5 -1 -43
-57 -86 -125 l-77 -124 -2 -160 c-2 -88 -5 -181 -7 -207 l-4 -48 -704 0 -704
0 0 -410 0 -410 -747 0 -748 -1 -122 58 -122 58 0 115 c-1 112 0 116 29 159
17 25 37 68 46 97 l15 52 111 21 c169 31 171 47 11 81 -59 13 -111 26 -115 29
-4 4 49 41 117 84 178 111 169 128 -37 78 -65 -15 -118 -27 -118 -26 0 2 32
69 70 149 67 139 75 167 47 165 -7 0 -59 -54 -117 -119 -58 -65 -107 -116
-109 -114 -3 2 -15 73 -27 157 l-23 152 2 1313 2 1312 -802 0 -803 0 0 1038 0
1038 -152 60 -153 59 -3 253 -2 252 -320 0 -320 0 0 400 0 400 -95 0 -95 0 0
850 c0 843 0 850 -20 850 -20 0 -20 -7 -20 -850z m190 -1270 l0 -380 -170 0
-170 0 0 380 0 380 170 0 170 0 0 -380z m640 -625 c0 -113 -4 -205 -9 -205 -5
0 -183 63 -397 140 -214 77 -394 140 -400 140 -7 0 -187 -63 -402 -140 -214
-77 -394 -140 -401 -140 -9 0 -11 53 -11 205 l1 205 810 0 809 0 0 -205z
m-330 -155 l395 -155 6 -58 c4 -32 10 -207 13 -390 4 -183 9 -359 11 -392 2
-33 6 -184 10 -335 3 -151 8 -322 10 -380 2 -58 7 -206 10 -330 3 -124 7 -292
10 -375 6 -183 10 -343 35 -1250 11 -390 22 -793 25 -895 8 -277 34 -1205 40
-1450 3 -118 7 -269 10 -335 3 -66 7 -241 11 -390 3 -148 7 -299 9 -335 3 -36
5 -95 5 -131 0 -57 2 -67 18 -65 16 1 17 -21 20 -313 1 -173 0 -313 -2 -310
-2 2 -14 72 -25 154 -25 187 -85 620 -150 1090 -28 198 -89 639 -136 980 -47
341 -108 780 -135 975 -27 195 -63 456 -80 580 -17 124 -37 270 -45 325 -14
99 -31 219 -160 1155 -36 261 -85 619 -110 795 -24 176 -63 453 -85 615 -38
279 -97 706 -157 1137 -15 106 -28 191 -29 190 -4 -3 -43 -282 -109 -757 -25
-184 -57 -414 -70 -510 -14 -96 -66 -470 -116 -830 -49 -360 -92 -668 -94
-685 -38 -273 -99 -712 -185 -1335 -28 -201 -52 -378 -55 -395 -2 -16 -50
-358 -106 -760 -55 -401 -107 -775 -115 -830 -7 -55 -25 -181 -38 -280 -29
-208 -66 -473 -102 -730 -13 -99 -34 -245 -44 -325 -11 -80 -33 -235 -49 -345
l-29 -200 2 3813 1 3814 555 218 555 218 40 -16 c22 -9 218 -86 435 -172z
m550 -216 l90 -36 0 -3376 c0 -1856 -2 -3373 -4 -3371 -2 2 -7 101 -10 219 -3
118 -8 285 -11 370 -7 217 -13 443 -30 1060 -24 891 -25 930 -30 1080 -3 80
-7 246 -10 370 -3 124 -7 284 -10 355 -3 72 -7 229 -10 350 -3 121 -7 288 -10
370 -3 83 -7 242 -10 355 -3 113 -7 282 -10 375 -3 94 -7 256 -10 360 -3 105
-7 260 -10 345 -3 85 -9 324 -15 530 -5 206 -12 444 -15 528 -4 102 -3 152 4
152 6 0 51 -16 101 -36z m-1020 -39 c0 -19 -4 -35 -10 -35 -11 0 -14 53 -3 63
11 12 13 8 13 -28z m19 -202 c7 -71 14 -138 17 -150 4 -22 1 -23 -51 -23 -30
0 -55 4 -55 10 0 14 30 231 36 263 4 17 12 27 23 27 16 0 20 -16 30 -127z m21
-215 c0 -2 7 -61 15 -133 22 -195 31 -175 -80 -175 -52 0 -95 1 -95 3 0 2 9
68 20 147 11 79 20 147 20 152 0 7 120 12 120 6z m49 -470 c6 -68 14 -135 17
-150 l6 -28 -142 0 c-130 0 -141 1 -136 18 2 9 12 77 22 150 l17 132 102 0
102 0 12 -122z m-3049 -159 l0 -180 -37 3 -38 3 -3 165 c-1 90 0 170 2 177 3
7 21 13 41 13 l35 0 0 -181z m155 1 l0 -175 -57 -3 -58 -3 0 181 0 181 58 -3
57 -3 0 -175z m125 -1 l0 -180 -42 3 -43 3 -3 165 c-1 90 0 170 2 177 3 8 22
13 46 13 l40 0 0 -181z m2794 -91 c6 -35 26 -242 26 -265 0 -10 -36 -13 -175
-13 -173 0 -175 0 -175 22 0 26 30 258 35 276 3 9 41 12 144 12 l140 0 5 -32z
m66 -112 c23 -155 24 -174 11 -160 -5 5 -14 59 -20 119 -6 61 -14 128 -17 150
-4 22 -4 37 0 34 3 -3 15 -67 26 -143z m-2630 -66 l0 -50 -420 0 -420 0 0 50
0 50 420 0 420 0 0 -50z m1290 -4250 l0 -4300 -110 0 -110 0 0 2230 0 2230
-310 0 -310 0 0 878 0 878 -57 -1 -58 0 -3 1193 -2 1192 480 0 480 0 0 -4300z
m-1290 3720 l0 -440 -420 0 -420 0 0 440 0 440 420 0 420 0 0 -440z m2601 350
c4 -25 10 -83 13 -130 4 -47 10 -95 13 -107 l5 -23 -222 0 -223 0 7 48 c4 26
11 83 17 127 5 44 12 92 15 108 l6 27 181 -2 182 -3 6 -45z m73 -80 c9 -63 18
-130 20 -147 4 -24 1 -33 -9 -33 -18 0 -21 15 -35 155 -13 136 -13 162 -1 150
5 -6 17 -62 25 -125z m-40 -252 c8 -44 26 -222 26 -248 0 -20 -5 -20 -260 -20
-143 0 -260 1 -260 3 0 2 9 68 20 147 11 79 20 145 20 147 0 2 101 3 225 3
l224 0 5 -32z m80 -25 c4 -32 13 -100 20 -150 l13 -93 -22 0 c-21 0 -23 6 -29
68 -12 112 -16 155 -22 195 -5 32 -3 37 14 37 16 0 21 -9 26 -57z m2456 -1505
l0 -1273 -24 -168 c-13 -93 -26 -170 -28 -173 -3 -2 -51 48 -107 111 -98 109
-131 134 -131 100 0 -9 29 -77 65 -152 36 -75 63 -138 61 -141 -3 -2 -57 8
-120 23 l-116 26 -9 37 c-6 20 -39 153 -74 295 l-65 258 27 164 26 164 34 3
c31 3 39 12 107 118 l73 115 -159 3 -160 2 0 135 c0 128 -1 135 -20 135 -19 0
-20 -7 -20 -135 l0 -135 -161 0 c-88 0 -159 -4 -157 -8 2 -4 32 -58 68 -120
l65 -111 45 -1 45 -1 -45 -23 c-66 -33 -103 -108 -104 -214 -2 -136 58 -232
144 -232 35 0 40 -3 40 -22 0 -13 4 -63 9 -113 5 -49 12 -133 16 -185 4 -52 8
-106 10 -120 2 -14 6 -65 10 -115 3 -49 8 -106 11 -125 3 -19 76 -273 162
-564 l158 -529 -88 -310 c-92 -324 -85 -289 -249 -1232 -16 -93 -34 -194 -40
-222 l-10 -53 -85 0 -84 0 0 -110 0 -110 85 0 85 0 -2 -397 c-2 -310 -6 -398
-15 -399 -7 -1 -44 -2 -83 -3 l-70 -1 0 -95 0 -95 -80 0 c-92 0 -82 16 -80
-132 l1 -88 -160 0 -161 0 0 -145 0 -145 -105 0 -105 0 0 3890 0 3890 785 0
785 0 0 -1272z m-2488 1075 c9 -82 14 -151 11 -155 -2 -5 -136 -8 -298 -8
-162 0 -296 3 -298 8 -2 4 5 73 16 155 l20 147 267 0 267 0 15 -147z m73 125
c7 -32 35 -245 35 -266 0 -12 -9 -18 -25 -20 -20 -1 -25 4 -29 31 -7 47 -14
112 -22 200 -6 73 -5 77 15 77 13 0 22 -8 26 -22z m-2627 -166 c10 -7 12 -147
10 -668 l-3 -659 -550 0 -550 0 -3 654 c-1 464 1 658 9 667 9 11 113 13 542
13 293 0 538 -3 545 -7z m2572 -154 c4 -24 29 -269 30 -285 l0 -23 -340 0
-340 0 0 23 c0 25 30 255 36 275 3 9 73 12 309 12 168 0 305 -1 305 -2z m100
-1 c0 -1 9 -65 20 -142 11 -77 20 -146 20 -152 0 -8 -14 -13 -35 -13 -31 0
-35 3 -35 28 -1 15 -3 43 -5 62 -14 98 -23 206 -19 212 5 7 54 12 54 5z m-60
-362 c0 -16 16 -175 25 -247 l4 -38 -384 0 c-360 0 -385 1 -385 18 0 9 4 43
10 75 5 32 12 84 15 115 11 102 -30 92 366 92 307 0 349 -2 349 -15z m110 7
c0 -11 28 -218 35 -259 6 -33 6 -33 -34 -33 -46 0 -43 -7 -61 162 -15 143 -16
138 25 138 19 0 35 -4 35 -8z m-4245 -88 c13 -5 15 -144 15 -1229 0 -673 -3
-1230 -6 -1239 -5 -14 -36 -16 -245 -16 l-239 0 0 -2230 0 -2230 -390 0 -390
0 0 2263 0 2262 -195 170 -195 170 0 1036 c0 570 3 1039 7 1042 8 9 1616 9
1638 1z m4170 -276 c6 -39 25 -232 25 -259 0 -18 -15 -19 -425 -19 -234 0
-425 1 -425 3 0 1 9 69 20 151 11 81 20 150 20 152 0 2 175 4 390 4 l389 0 6
-32z m141 -118 c11 -80 19 -148 17 -152 -2 -5 -24 -8 -47 -8 l-43 0 -12 123
c-7 67 -14 137 -18 155 l-5 33 43 -3 44 -3 21 -145z m9054 -1775 l0 -1785 430
-1 c237 -1 437 -1 445 -1 8 0 20 0 25 1 7 1 10 314 10 916 l0 915 835 0 835 0
0 -85 c0 -71 -5 -99 -35 -180 -260 -720 -709 -1369 -1183 -1715 -509 -370
-1108 -483 -1636 -308 -518 171 -980 619 -1386 1343 -165 293 -368 777 -475
1130 -20 66 -39 122 -43 125 -4 3 -9 29 -10 57 -2 44 -13 71 -67 163 l-65 111
0 549 0 550 1160 0 1160 0 0 -1785z m4460 288 l0 -1358 -39 61 c-161 250 -326
578 -446 884 l-53 135 -7 225 -6 225 -66 115 c-36 63 -71 121 -78 128 -9 10
-28 -12 -92 -115 l-80 -128 -7 -315 c-3 -173 -6 -334 -6 -357 l0 -43 -330 0
-329 0 -3 158 c-7 336 -8 1728 -2 1735 4 4 353 7 776 7 l768 0 0 -1357z
m-13620 1275 c0 -13 15 -154 25 -240 l6 -48 -471 0 -471 0 5 33 c16 92 25 158
31 210 l6 57 435 0 c340 0 434 -3 434 -12z m147 -83 c6 -49 14 -116 18 -147
l8 -58 -51 0 c-59 0 -54 -12 -72 168 -14 145 -17 134 38 130 l47 -3 12 -90z
m-2547 -935 l0 -860 -820 0 -820 0 0 853 c0 470 3 857 7 860 3 4 372 7 820 7
l813 0 0 -860z m2434 668 c7 -32 26 -222 26 -258 l0 -30 -504 0 c-276 0 -505
2 -507 5 -3 2 4 72 15 155 l21 150 472 0 473 0 4 -22z m150 -10 c10 -62 36
-253 36 -265 0 -7 -21 -10 -57 -9 l-58 1 -12 105 c-6 58 -14 126 -17 153 l-5
47 54 0 c53 0 54 0 59 -32z m1774 -78 l-52 -80 -172 0 -173 0 -34 58 c-19 31
-40 67 -46 80 l-12 22 270 0 270 0 -51 -80z m-8241 -708 c403 -354 735 -647
738 -652 4 -6 -290 -10 -745 -10 l-750 0 0 660 c0 526 3 660 13 654 6 -5 342
-298 744 -652z m8082 421 c-16 -93 -28 -203 -29 -245 0 -76 -1 -78 -25 -78
-21 0 -25 5 -25 32 0 17 10 52 21 76 51 104 31 260 -41 332 -22 22 -40 42 -40
45 0 3 37 5 83 5 l83 0 -27 -167z m-131 92 c62 -52 81 -189 38 -280 -25 -54
-40 -70 -71 -77 -56 -12 -110 58 -122 160 -11 96 49 222 105 222 11 0 34 -11
50 -25z m-1612 -43 c6 -4 17 -54 23 -112 6 -58 14 -124 17 -147 l6 -43 -551 0
c-518 0 -551 1 -551 18 0 19 28 234 36 270 l4 22 503 0 c276 0 507 -4 513 -8z
m168 -3 c3 -3 13 -57 21 -120 8 -63 18 -129 21 -146 l6 -33 -65 0 -65 0 -6 43
c-7 51 -26 226 -26 248 0 12 11 15 54 15 30 -1 57 -4 60 -7z m5649 -340 l55
-95 6 -225 c3 -123 8 -352 11 -509 3 -157 7 -388 10 -515 3 -126 8 -374 10
-550 3 -176 9 -500 15 -720 5 -220 10 -433 10 -472 l0 -73 -176 0 -177 0 7
443 c4 243 11 681 16 972 5 292 12 694 15 895 3 201 8 453 11 560 l6 195 61
98 c33 53 61 96 63 95 1 -2 27 -46 57 -99z m7081 38 l35 -63 1 -325 c0 -178 3
-387 5 -464 2 -77 6 -401 9 -720 4 -319 8 -722 11 -895 3 -173 7 -508 10 -745
3 -236 8 -627 11 -867 l7 -438 -163 0 -163 0 7 503 c4 276 9 563 11 637 2 74
7 326 10 560 3 234 7 524 10 645 5 207 8 410 20 1145 3 168 8 437 11 599 l6
295 62 98 c33 54 62 98 63 98 1 0 17 -28 37 -63z m-6097 -4 l31 -58 6 -1175
c3 -646 8 -1263 11 -1370 3 -107 7 -440 10 -740 5 -520 8 -673 21 -1017 l5
-153 -160 0 -161 0 0 143 c0 78 4 372 10 652 5 281 12 663 15 850 3 187 7 444
10 570 3 127 7 394 10 595 3 201 10 597 15 880 6 283 10 553 10 600 l0 86 61
97 c33 53 64 97 67 97 4 0 21 -26 39 -57z m5118 -40 l53 -91 6 -298 c3 -165 8
-393 11 -509 3 -115 7 -365 10 -555 14 -867 13 -783 31 -1463 l6 -227 -177 2
-176 3 1 270 c1 149 3 288 4 310 2 22 4 141 6 265 1 124 5 425 10 670 5 245
11 625 15 845 3 220 8 464 10 543 l4 142 58 95 c32 52 62 94 67 92 5 -2 32
-44 61 -94z m-11858 -113 c6 -63 12 -130 12 -147 l1 -33 -590 0 c-374 0 -590
4 -590 10 0 10 26 199 36 258 l5 32 557 -2 557 -3 12 -115z m177 -17 c10 -75
20 -143 23 -150 4 -10 -12 -13 -71 -13 l-76 0 -1 28 c0 15 -6 82 -13 150 l-12
122 66 0 67 0 17 -137z m1596 -203 c40 -160 70 -293 67 -296 -6 -6 -199 -45
-202 -41 -1 1 -12 124 -24 272 -12 149 -24 285 -27 303 l-5 32 56 0 c30 0 55
5 55 10 0 33 15 -20 80 -280z m5047 128 c-3 -8 -6 -5 -6 6 -1 11 2 17 5 13 3
-3 4 -12 1 -19z m7 -418 c4 -217 9 -478 11 -580 3 -102 9 -426 15 -720 5 -294
12 -650 15 -790 6 -296 13 -653 20 -1035 3 -148 8 -372 11 -497 6 -224 6 -228
-14 -228 -19 0 -20 9 -26 113 -14 260 -24 856 -36 2067 -9 937 -13 2076 -6
2069 2 -2 7 -182 10 -399z m6100 -75 c4 -231 9 -492 11 -580 3 -88 7 -293 10
-455 3 -162 12 -635 20 -1050 8 -415 17 -897 20 -1070 3 -173 8 -384 11 -467
6 -150 5 -153 -15 -153 -20 0 -21 6 -21 83 -1 45 -3 168 -5 272 -3 105 -9 609
-15 1120 -5 512 -12 1067 -15 1235 -10 604 -17 1495 -12 1490 2 -3 7 -194 11
-425z m-10656 338 c5 -35 5 -63 1 -63 -4 0 -15 -3 -25 -7 -14 -5 -16 -1 -11
28 3 19 9 54 13 79 8 52 11 48 22 -37z m4761 -420 c440 -1102 1035 -1809 1710
-2033 202 -67 356 -90 571 -84 223 5 448 50 636 124 538 214 1003 666 1376
1340 96 174 233 466 267 572 7 21 16 40 21 43 4 2 6 -68 3 -158 -6 -240 -33
-1934 -33 -2064 l0 -113 -2335 0 -2335 0 0 68 c0 66 -24 1328 -34 1792 -3 129
-8 404 -12 610 l-6 375 56 -162 c31 -89 82 -228 115 -310z m-7009 435 c0 -7 7
-74 15 -148 8 -74 15 -138 15 -142 0 -5 -286 -8 -636 -8 l-636 0 5 28 c3 15
13 84 23 155 l17 127 599 0 c472 0 598 -3 598 -12z m185 -10 c8 -42 35 -238
35 -263 0 -24 -2 -25 -74 -25 l-75 0 -6 58 c-3 31 -8 71 -10 87 -2 17 -7 60
-10 98 l-7 67 71 0 c65 0 71 -2 76 -22z m1918 -61 c24 -32 27 -41 16 -48 -22
-14 -23 -13 -58 59 -29 58 -30 64 -11 47 12 -11 36 -37 53 -58z m308 4 c-32
-63 -36 -67 -61 -51 -11 7 -5 19 35 62 28 30 51 53 53 52 2 -1 -11 -29 -27
-63z m-145 -61 c8 0 32 -16 54 -36 45 -41 80 -122 80 -186 l0 -41 -22 19 c-11
10 -47 59 -79 107 -32 48 -60 89 -63 90 -3 1 -33 -38 -66 -88 -99 -144 -112
-152 -100 -63 10 72 31 119 73 161 35 34 67 48 95 41 8 -2 20 -4 28 -4z m-324
-106 c49 -31 86 -60 81 -64 -15 -13 -134 -33 -142 -24 -7 8 -41 124 -41 139 0
11 16 3 102 -51z m58 46 c25 -1 41 -16 34 -33 -6 -16 -9 -15 -43 4 -51 31 -62
43 -31 35 14 -3 32 -6 40 -6z m497 -22 c-40 -26 -50 -29 -58 -17 -15 23 -11
27 34 37 70 16 74 13 24 -20z m2999 -445 c-4 -258 -8 -520 -11 -583 -3 -63 -7
-326 -11 -585 -3 -258 -7 -504 -9 -545 -1 -41 -3 -157 -4 -257 l-1 -183 -1005
0 -1005 0 0 -250 0 -250 1001 0 1001 0 -6 -222 c-3 -123 -6 -307 -7 -410 l0
-188 -70 0 -69 0 0 -195 0 -195 -175 0 -175 0 0 -225 0 -225 -660 0 -660 0 0
145 0 145 -160 0 -160 0 0 110 0 110 -80 0 -80 0 0 95 c0 107 9 98 -94 95 -39
-1 -62 3 -67 12 -5 7 -9 187 -9 401 l0 387 85 0 85 0 0 110 0 110 -84 0 -84 0
-6 33 c-3 17 -51 286 -106 597 -97 549 -101 570 -159 737 -56 160 -61 180 -67
290 l-6 118 146 -145 146 -144 47 46 c35 33 59 47 87 51 76 12 154 92 158 163
1 20 19 47 60 89 l58 60 -150 150 -150 150 -205 -205 -205 -205 0 55 c0 30 -3
84 -6 120 -13 156 -19 271 -15 276 2 2 346 4 763 4 l758 0 0 410 0 410 686 0
686 0 -6 -467z m-3202 324 c26 -37 60 -77 76 -88 28 -21 28 -22 14 -63 -51
-144 -159 -186 -245 -96 -44 46 -81 141 -58 149 20 6 66 57 111 124 22 33 43
55 47 50 4 -4 29 -38 55 -76z m10706 -107 c112 -269 250 -535 399 -774 l81
-129 0 -733 0 -734 -245 0 -245 0 0 38 c0 20 -7 359 -15 752 -8 393 -17 861
-20 1040 -3 179 -8 404 -11 500 -3 96 -4 173 -1 170 2 -3 28 -61 57 -130z
m-11142 2 c13 -59 31 -138 39 -176 l16 -68 231 -114 c222 -110 231 -116 228
-142 -2 -15 -14 -90 -28 -167 -14 -77 -38 -214 -54 -305 -16 -91 -42 -241 -59
-335 -16 -93 -46 -264 -66 -380 -20 -115 -38 -211 -40 -213 -7 -7 -460 -280
-462 -279 -1 1 20 126 47 277 40 224 65 334 139 591 l90 315 -158 530 c-87
291 -156 531 -154 533 3 4 166 38 193 40 11 1 21 -27 38 -107z m-1811 -12 c6
-58 12 -126 12 -152 l1 -48 -662 0 c-365 0 -668 4 -674 8 -8 5 -5 49 10 155
l20 147 641 -2 640 -3 12 -105z m188 78 c12 -74 35 -243 35 -260 0 -17 -8 -19
-82 -16 l-83 3 -12 115 c-6 63 -14 132 -16 153 l-5 37 78 0 79 0 6 -32z m1785
1 c0 -15 -5 -19 -17 -16 -10 3 -31 9 -48 13 l-30 7 30 7 c53 13 65 11 65 -11z
m508 11 c28 0 -1 -17 -40 -24 -34 -6 -38 -5 -38 15 0 19 4 21 31 15 17 -3 39
-6 47 -6z m-550 -61 c49 -10 49 -10 65 -67 16 -57 68 -142 87 -142 6 0 10 -25
10 -55 0 -38 -4 -55 -12 -54 -7 0 -51 19 -98 43 l-84 43 -27 122 c-29 137 -33
130 59 110z m-7618 -184 l0 -135 -770 0 -770 0 0 135 0 135 770 0 770 0 0
-135z m12140 10 l0 -105 -325 0 -325 0 0 53 c0 28 -3 76 -6 105 l-6 52 331 0
331 0 0 -105z m6100 0 l0 -105 -324 0 -323 0 -7 31 c-3 17 -6 65 -6 105 l0 74
330 0 330 0 0 -105z m-17170 -2165 l0 -2210 -105 0 -105 0 0 2210 0 2210 105
0 105 0 0 -2210z m730 1575 l0 -635 -345 0 -345 0 0 635 0 635 345 0 345 0 0
-635z m930 0 l-1 -635 -449 0 -450 0 0 635 0 635 450 0 450 0 0 -635z m720 0
l0 -635 -345 0 -344 0 -1 635 0 635 345 0 345 0 0 -635z m280 -1575 l0 -2210
-120 0 -120 0 0 2210 0 2210 120 0 120 0 0 -2210z m4216 1933 c-2 -2 -31 10
-65 26 l-61 31 0 54 0 54 38 -5 c20 -2 48 0 62 5 l25 9 3 -85 c2 -46 1 -86 -2
-89z m-2236 142 c0 -3 7 -71 15 -151 9 -80 13 -149 10 -154 -6 -10 -1417 -15
-1427 -5 -4 4 33 288 41 313 2 5 1361 2 1361 -3z m204 -3 c6 -10 46 -270 46
-298 0 -11 -18 -14 -89 -14 l-89 0 -7 68 c-3 37 -10 100 -16 140 -15 118 -20
109 70 111 44 1 82 -2 85 -7z m6220 -112 c-1 -30 -2 -97 -3 -148 l-1 -92 -317
2 -318 3 -3 148 -3 147 323 -2 323 -3 -1 -55z m6096 -90 l0 -150 -320 0 -320
0 0 150 0 150 320 0 320 0 0 -150z m-18230 -25 l0 -135 -770 0 -770 0 0 135 0
135 770 0 770 0 0 -135z m8105 -38 c24 -14 40 -30 41 -42 1 -20 -9 -625 -21
-1290 -4 -203 -9 -372 -10 -374 -2 -1 -74 52 -159 120 -98 77 -156 129 -156
141 0 10 45 273 100 585 55 313 112 639 127 726 14 86 29 157 32 157 3 0 24
-11 46 -23z m107 -153 c13 -199 18 -262 29 -439 l12 -180 62 -180 c52 -150 69
-216 100 -393 20 -118 35 -215 33 -217 -2 -2 -66 25 -143 59 l-140 63 3 344
c2 189 5 385 7 434 2 50 4 208 5 353 1 200 4 262 13 259 8 -2 14 -40 19 -103z
m-2455 -34 c6 -58 13 -127 15 -155 l3 -50 -757 -2 -758 -3 0 25 c0 23 21 181
35 263 l6 32 722 -2 722 -3 12 -105z m225 0 c9 -58 18 -127 20 -155 l3 -50
-92 -3 c-89 -3 -93 -2 -97 20 -8 34 -26 223 -26 264 l0 35 88 -3 87 -3 17
-105z m6146 -47 l-3 -108 -312 -3 -313 -2 0 110 0 110 315 0 316 0 -3 -107z
m6100 0 l-3 -108 -312 -3 -313 -2 0 110 0 110 315 0 316 0 -3 -107z m-18228
-38 l0 -135 -770 0 -770 0 0 135 0 135 770 0 770 0 0 -135z m8802 -12 l118
-117 -36 -38 -37 -37 -28 21 c-56 42 -168 -2 -209 -82 -25 -48 -26 -117 -3
-142 16 -18 15 -20 -10 -46 l-27 -27 -115 115 c-63 63 -115 119 -115 125 0 10
330 345 340 345 2 0 58 -53 122 -117z m3321 -110 c3 -5 2 -72 -1 -150 l-5
-143 -302 0 -303 0 -6 23 c-3 12 -6 79 -6 150 l0 127 309 0 c171 0 312 -3 314
-7z m6097 -143 l0 -150 -307 2 -308 3 -3 148 -3 147 311 0 310 0 0 -150z
m-12440 108 c0 -2 7 -61 15 -133 8 -71 15 -140 15 -152 l0 -23 -800 0 c-755 0
-800 1 -800 18 0 9 9 76 20 147 11 72 20 133 20 137 0 7 1530 12 1530 6z m235
-10 c3 -7 13 -77 23 -155 l19 -143 -104 0 c-76 0 -103 3 -103 13 0 6 -7 72
-15 146 -8 74 -12 138 -9 143 9 14 184 10 189 -4z m-6015 -133 l0 -135 -770 0
-770 0 0 135 0 135 770 0 770 0 0 -135z m8801 85 c26 -14 25 -75 -1 -118 -25
-41 -97 -77 -134 -68 -72 18 -38 144 49 182 37 16 60 17 86 4z m-10381 -1785
l0 -1745 -405 0 -405 0 0 1745 0 1745 405 0 405 0 0 -1745z m13690 1463 c0
-46 3 -93 6 -105 l6 -23 -306 0 -306 0 0 105 0 105 300 0 300 0 0 -82z m6100
-23 l0 -105 -299 0 -300 0 -3 105 -3 105 303 0 302 0 0 -105z m-18210 -50 l0
-135 -770 0 -770 0 0 135 0 135 770 0 770 0 0 -135z m5829 -17 c7 -68 14 -138
18 -155 l5 -33 -846 0 c-670 0 -846 3 -846 13 0 6 9 71 20 142 11 72 20 136
20 143 0 9 169 12 809 12 l808 0 12 -122z m243 68 c4 -26 10 -76 13 -110 4
-33 10 -80 15 -103 l7 -43 -108 0 c-60 0 -109 3 -110 8 0 4 -2 18 -4 32 -8 50
-25 220 -25 245 l0 26 102 -3 103 -3 7 -49z m-4274 -713 l-3 -638 -342 -3
-343 -2 0 640 0 640 345 0 345 0 -2 -637z m932 10 c0 -346 -4 -634 -8 -641 -7
-10 -103 -12 -448 -10 l-439 3 -3 638 -2 637 450 0 449 0 1 -627z m720 -13 l0
-640 -339 0 c-303 0 -340 2 -345 16 -3 9 -6 297 -6 640 l1 624 344 0 345 0 0
-640z m2797 618 c-3 -8 -6 -5 -6 6 -1 11 2 17 5 13 3 -3 4 -12 1 -19z m5865
-308 c-1 -140 -5 -337 -8 -437 l-7 -183 -283 0 -284 0 -1 63 c0 34 -2 118 -4
187 -2 69 -6 239 -10 378 l-6 252 303 -2 303 -3 -3 -255z m6098 38 c0 -123 -3
-321 -7 -440 l-6 -218 -282 0 -282 0 -6 73 c-4 39 -6 144 -7 232 0 88 -3 253
-6 368 l-7 207 302 0 301 0 0 -222z m-18210 12 l0 -130 -770 0 -770 0 0 130 0
130 770 0 770 0 0 -130z m5854 38 c6 -28 26 -235 26 -265 l0 -23 -885 0 -885
0 4 28 c2 15 12 84 22 155 l17 127 848 0 849 0 4 -22z m261 0 c3 -13 10 -61
15 -108 6 -47 13 -106 17 -132 l6 -48 -117 0 c-107 0 -116 1 -116 19 0 27 -19
220 -25 259 l-6 32 110 0 c107 0 111 -1 116 -22z m-6115 -343 l0 -135 -770 0
-770 0 0 135 0 135 770 0 770 0 0 -135z m7754 31 c-3 -9 29 -40 90 -87 52 -41
95 -77 95 -82 1 -4 -73 -156 -164 -337 l-165 -330 -76 0 c-89 0 -91 -29 12
229 71 177 76 200 43 201 -3 0 -43 -96 -90 -212 l-85 -213 -42 -3 c-23 -2 -42
-2 -42 0 0 2 18 57 40 123 39 115 40 134 8 135 -4 0 -26 -58 -50 -130 l-42
-130 -49 0 c-46 0 -49 1 -44 23 5 19 27 142 83 463 l16 92 226 136 c125 75
230 136 234 136 4 0 5 -6 2 -14z m-1855 -128 c7 -62 14 -132 18 -155 l5 -43
-931 0 -930 0 4 28 c3 15 12 79 20 142 9 63 18 121 20 128 3 9 191 12 893 12
l889 0 12 -112z m265 80 c19 -122 36 -249 36 -262 0 -14 -18 -16 -119 -16
l-120 0 -5 43 c-8 62 -26 234 -26 252 0 13 18 15 115 15 l114 0 5 -32z m2158
-45 c86 -38 133 -65 139 -78 7 -16 119 -638 119 -659 0 -3 -25 -6 -55 -6 l-55
0 -1 43 c0 81 -18 217 -27 217 -18 -1 -31 -18 -28 -36 2 -11 7 -66 11 -122 l8
-102 -87 0 -86 0 0 220 c0 213 -1 220 -20 220 -19 0 -20 -7 -20 -220 l0 -220
-110 0 c-60 0 -110 3 -110 8 0 4 14 58 30 120 17 62 28 117 25 122 -19 30 -35
2 -66 -120 l-34 -130 -147 0 c-82 0 -148 2 -148 5 0 5 310 627 315 633 2 2 43
-28 92 -67 l88 -71 3 156 c2 135 5 155 18 150 8 -3 74 -32 146 -63z m-8322
-248 l0 -135 -770 0 -770 0 0 135 0 135 770 0 770 0 0 -135z m5937 -135 c6
-58 12 -111 12 -117 1 -7 10 -13 21 -13 18 0 20 5 15 38 -12 78 -21 193 -16
197 8 8 241 6 241 -2 0 -5 7 -53 15 -108 8 -55 15 -108 15 -117 0 -17 -59 -18
-1111 -18 l-1111 0 6 28 c3 15 10 65 16 112 7 47 13 91 15 98 4 10 196 12 937
10 l933 -3 12 -105z m6153 -90 l0 -130 -1484 0 -1484 0 -1 120 c-1 66 1 125 4
130 4 6 542 10 1486 10 l1479 0 0 -130z m6109 13 c-2 -65 -4 -124 -7 -130 -3
-10 -578 -13 -2828 -13 l-2824 0 1 122 c0 67 2 125 5 130 3 4 1276 8 2830 8
l2824 0 -1 -117z m2181 -13 l0 -130 -871 0 -870 0 2 123 c0 67 3 125 6 130 2
4 393 7 869 7 l864 0 0 -130z m-20380 -75 l0 -135 -770 0 -770 0 0 135 0 135
770 0 770 0 0 -135z m6250 -965 l0 -950 -1115 0 -1115 0 0 950 0 950 1115 0
1115 0 0 -950z m5840 810 l0 -60 -1482 2 -1483 3 -3 44 c-2 24 -1 50 2 57 5
12 233 14 1486 14 l1480 0 0 -60z m6100 0 l0 -60 -2822 2 -2822 3 -4 43 c-2
24 -1 50 2 58 5 12 390 14 2826 14 l2820 0 0 -60z m2190 0 l0 -60 -870 0 -870
0 0 60 0 60 870 0 870 0 0 -60z m-18580 -865 l0 -895 -65 0 -65 0 0 295 0 295
-125 0 -125 0 0 -295 0 -295 -155 0 -155 0 0 895 0 895 345 0 345 0 0 -895z
m928 -2 l2 -893 -75 0 -75 0 0 295 0 295 -120 0 -120 0 0 -295 0 -295 -55 0
-55 0 0 295 0 295 -125 0 -125 0 0 -295 0 -295 -75 0 -75 0 0 895 0 895 448
-2 447 -3 3 -892z m722 2 l0 -895 -155 0 -155 0 0 295 0 295 -125 0 -125 0 0
-295 0 -295 -65 0 -65 0 0 895 0 895 345 0 345 0 0 -895z m-3450 710 l0 -135
-770 0 -770 0 0 135 0 135 770 0 770 0 0 -135z m8750 5 l0 -70 -865 0 -865 0
0 70 0 70 865 0 865 0 0 -70z m2754 -167 c3 -120 7 -303 8 -408 l3 -190 -204
-3 -204 -2 6 62 c4 35 7 178 8 318 1 140 4 297 6 348 l5 92 183 0 182 0 7
-217z m583 -135 c-4 -194 -7 -379 -7 -410 l0 -58 -85 0 -85 0 0 -195 0 -195
-110 0 -110 0 0 195 0 195 -68 0 -68 0 -2 103 c-1 56 -4 240 -8 410 l-7 307
278 0 278 0 -6 -352z m5099 200 c-3 -84 -6 -256 -7 -382 0 -125 -3 -241 -6
-257 -5 -28 -7 -29 -69 -29 l-64 0 0 -195 0 -195 -175 0 -175 0 0 -225 0 -225
-1850 0 -1850 0 0 225 0 225 -165 0 -165 0 0 195 0 195 -49 0 -48 0 -6 98 c-4
53 -7 176 -7 272 0 96 -3 237 -6 313 l-5 137 2327 0 2327 0 -7 -152z m408 144
c3 -5 8 -190 12 -410 l7 -402 -202 0 -202 0 5 118 c3 64 6 232 7 372 1 140 4
272 7 293 l4 37 179 0 c98 0 180 -4 183 -8z m593 -284 c-4 -161 -7 -346 -7
-410 l0 -118 -85 0 -85 0 0 -195 0 -196 -112 3 -113 3 -2 190 -2 190 -64 3
-64 3 -6 307 c-4 169 -7 353 -7 410 l0 102 277 0 276 0 -6 -292z m2193 -538
l0 -830 -650 0 -650 0 0 225 0 225 -162 2 -163 3 -2 170 c-1 94 -2 180 -3 193
0 19 -5 22 -44 22 -55 0 -55 -3 -56 249 0 107 -3 278 -6 382 l-6 189 871 0
871 0 0 -830z m-11795 265 l0 -390 -697 -3 -698 -2 0 395 0 395 698 -2 697 -3
0 -390z m-8585 200 l0 -135 -770 0 -770 0 0 135 0 135 770 0 770 0 0 -135z m0
-300 l0 -135 -770 0 -770 0 0 135 0 135 770 0 770 0 0 -135z m0 -310 l0 -135
-770 0 -770 0 0 135 0 135 770 0 770 0 0 -135z m11550 -60 l0 -175 -285 0
-285 0 0 175 0 175 285 0 285 0 0 -175z m100 0 l0 -175 -30 0 -30 0 0 175 0
175 30 0 30 0 0 -175z m855 0 l0 -170 -277 -3 -278 -2 0 175 0 175 278 -2 277
-3 0 -170z m115 -1 l0 -175 -37 3 -38 3 -3 160 c-1 87 0 165 2 172 3 7 21 13
41 13 l35 0 0 -176z m5050 1 l0 -175 -295 0 -295 0 0 175 0 175 295 0 295 0 0
-175z m75 0 c0 -154 -2 -170 -17 -173 -17 -3 -18 10 -18 173 0 163 1 176 18
173 15 -3 17 -19 17 -173z m875 0 l0 -175 -285 0 -285 0 0 175 0 175 285 0
285 0 0 -175z m95 0 l0 -170 -27 -3 -28 -3 0 176 0 176 28 -3 27 -3 0 -170z
m-9965 -35 l0 -80 -865 0 -865 0 0 73 c0 41 3 77 6 80 4 4 393 7 865 7 l859 0
0 -80z m-7120 -315 l0 -275 -85 0 -85 0 0 275 0 275 85 0 85 0 0 -275z m560 0
l0 -275 -85 0 -85 0 0 275 0 275 85 0 85 0 0 -275z m360 0 l0 -275 -85 0 -85
0 0 275 0 275 85 0 85 0 0 -275z m550 0 l0 -275 -85 0 -85 0 0 275 0 275 85 0
85 0 0 -275z m-3100 100 l0 -135 -770 0 -770 0 0 135 0 135 770 0 770 0 0
-135z m8916 8 l-1 -88 -1032 -3 -1033 -2 0 83 c0 46 3 87 7 90 3 4 468 7 1033
7 l1027 0 -1 -87z m3034 -178 l0 -205 -660 0 -660 0 0 205 0 205 660 0 660 0
0 -205z m1000 0 l0 -205 -415 0 -415 0 0 145 c0 138 -1 145 -20 145 -19 0 -20
-7 -20 -145 l0 -145 -45 0 -45 0 0 205 0 205 480 0 480 0 0 -205z m5100 0 l0
-205 -660 0 -660 0 0 205 0 205 660 0 660 0 0 -205z m1000 0 l0 -205 -421 0
-420 0 2 148 c2 130 0 147 -14 150 -15 3 -17 -12 -17 -147 l0 -151 -45 0 -45
0 0 205 0 205 480 0 480 0 0 -205z m-9820 -80 l0 -125 -1345 0 -1345 0 0 125
0 125 1345 0 1345 0 0 -125z m-9230 -20 l0 -105 -770 0 -770 0 0 105 0 105
770 0 770 0 0 -105z"/>
<path d="M7390 13335 l0 -175 35 0 35 0 0 175 0 175 -35 0 -35 0 0 -175z"/>
<path d="M7540 13335 l0 -175 35 0 35 0 0 175 0 175 -35 0 -35 0 0 -175z"/>
<path d="M7688 13488 c-2 -13 -2 -92 0 -175 l3 -153 34 0 35 0 0 175 0 175
-34 0 c-28 0 -35 -4 -38 -22z"/>
<path d="M7830 13335 l0 -175 40 0 40 0 0 175 0 175 -40 0 -40 0 0 -175z"/>
<path d="M7980 13335 l0 -175 34 0 35 0 3 143 c4 206 4 207 -38 207 l-34 0 0
-175z"/>
<path d="M7863 13042 c-32 -3 -33 -4 -33 -53 l0 -49 40 0 40 0 0 49 c0 28 -3
51 -7 53 -5 2 -23 2 -40 0z"/>
<path d="M7980 12993 l0 -53 35 0 35 0 0 49 c0 48 0 49 -35 53 l-35 4 0 -53z"/>
<path d="M7390 12990 l0 -50 35 0 35 0 0 50 0 50 -35 0 -35 0 0 -50z"/>
<path d="M7540 12990 l0 -50 35 0 35 0 0 50 0 50 -35 0 -35 0 0 -50z"/>
<path d="M7690 12990 l0 -50 35 0 35 0 0 50 0 50 -35 0 -35 0 0 -50z"/>
<path d="M7310 12607 c0 -29 3 -33 23 -31 12 1 55 3 95 3 l72 1 0 30 0 30 -95
0 -95 0 0 -33z"/>
<path d="M7620 12610 l0 -30 100 0 100 0 0 30 0 30 -100 0 -100 0 0 -30z"/>
<path d="M7940 12610 l0 -30 100 0 100 0 0 30 0 30 -100 0 -100 0 0 -30z"/>
<path d="M7310 12460 l0 -30 95 0 95 0 0 30 0 30 -95 0 -95 0 0 -30z"/>
<path d="M7620 12461 l0 -29 73 -4 c114 -5 127 -2 127 33 l0 29 -100 0 -100 0
0 -29z"/>
<path d="M7940 12460 l0 -30 90 0 c50 0 93 -1 98 -2 4 -2 8 12 10 30 l3 32
-100 0 -101 0 0 -30z"/>
<path d="M7308 12315 c-3 -13 -3 -27 0 -30 3 -3 47 -5 99 -5 l93 0 0 30 0 30
-94 0 c-92 0 -94 -1 -98 -25z"/>
<path d="M7620 12311 l0 -30 100 -3 100 -3 0 33 0 32 -100 0 -100 0 0 -29z"/>
<path d="M7940 12310 l0 -30 90 0 c50 0 93 -1 98 -2 4 -2 8 12 10 30 l3 32
-100 0 -101 0 0 -30z"/>
<path d="M7308 12165 c-3 -13 -3 -27 0 -30 3 -3 49 -5 102 -5 l97 0 -5 30 -4
30 -93 0 c-91 0 -93 -1 -97 -25z"/>
<path d="M7620 12161 c0 -35 9 -38 123 -33 l77 4 0 29 0 29 -100 0 -100 0 0
-29z"/>
<path d="M7940 12161 c0 -35 9 -38 123 -33 l77 4 0 29 0 29 -100 0 -100 0 0
-29z"/>
<path d="M7308 12035 c-3 -3 -3 -17 0 -30 4 -24 6 -25 98 -25 l94 0 0 30 0 30
-93 0 c-52 0 -96 -2 -99 -5z"/>
<path d="M7620 12011 l0 -29 78 -4 c113 -5 122 -2 122 33 l0 29 -100 0 -100 0
0 -29z"/>
<path d="M7940 12010 l0 -30 100 0 100 0 0 30 0 30 -100 0 -100 0 0 -30z"/>
<path d="M7310 11860 l0 -30 95 0 95 0 0 30 0 30 -95 0 -95 0 0 -30z"/>
<path d="M7620 11861 c0 -35 9 -38 123 -33 l77 4 0 29 0 29 -100 0 -100 0 0
-29z"/>
<path d="M7940 11861 c0 -35 9 -38 123 -33 l77 4 0 29 0 29 -100 0 -100 0 0
-29z"/>
<path d="M7310 11705 l0 -35 95 0 95 0 0 35 0 35 -95 0 -95 0 0 -35z"/>
<path d="M7620 11705 l0 -35 100 0 100 0 0 35 0 35 -100 0 -100 0 0 -35z"/>
<path d="M7940 11705 l0 -35 100 0 100 0 0 35 0 35 -100 0 -100 0 0 -35z"/>
<path d="M7308 11585 c-2 -3 -3 -18 0 -35 l4 -30 93 0 c98 0 107 5 97 53 -3
15 -16 17 -96 17 -51 0 -95 -2 -98 -5z"/>
<path d="M7620 11555 l0 -35 100 0 100 0 0 35 0 35 -100 0 -100 0 0 -35z"/>
<path d="M7940 11555 l0 -35 100 0 100 0 0 35 0 35 -100 0 -100 0 0 -35z"/>
<path d="M7080 11085 l0 -95 40 0 40 0 0 95 0 95 -40 0 -40 0 0 -95z"/>
<path d="M7330 11085 l0 -95 35 0 35 0 0 95 0 95 -35 0 -35 0 0 -95z"/>
<path d="M7570 11085 l0 -95 40 0 40 0 0 95 0 95 -40 0 -40 0 0 -95z"/>
<path d="M7820 11085 l0 -95 35 0 35 0 0 95 0 95 -35 0 -35 0 0 -95z"/>
<path d="M8060 11085 l0 -95 40 0 40 0 0 95 0 95 -40 0 -40 0 0 -95z"/>
<path d="M8310 11085 l0 -95 35 0 35 0 0 95 0 95 -35 0 -35 0 0 -95z"/>
<path d="M7080 10785 l0 -95 40 0 40 0 0 95 0 95 -40 0 -40 0 0 -95z"/>
<path d="M7330 10785 l0 -95 35 0 35 0 0 95 0 95 -35 0 -35 0 0 -95z"/>
<path d="M7570 10785 l0 -95 40 0 40 0 0 95 0 95 -40 0 -40 0 0 -95z"/>
<path d="M7820 10785 l0 -95 35 0 35 0 0 95 0 95 -35 0 -35 0 0 -95z"/>
<path d="M8060 10785 l0 -95 40 0 40 0 0 95 0 95 -40 0 -40 0 0 -95z"/>
<path d="M8310 10785 l0 -95 35 0 35 0 0 95 0 95 -35 0 -35 0 0 -95z"/>
<path d="M7588 10582 c-16 -3 -18 -16 -18 -98 l0 -94 40 0 40 0 0 94 c0 89 -1
94 -22 98 -13 2 -31 2 -40 0z"/>
<path d="M8322 10582 c-8 -2 -12 -33 -12 -98 l0 -94 35 0 35 0 0 94 c0 90 -1
94 -23 98 -12 2 -28 3 -35 0z"/>
<path d="M7080 10485 l0 -95 40 0 40 0 0 95 0 95 -40 0 -40 0 0 -95z"/>
<path d="M7330 10485 l0 -95 35 0 35 0 0 95 0 95 -35 0 -35 0 0 -95z"/>
<path d="M7820 10485 l0 -95 35 0 35 0 0 95 0 95 -35 0 -35 0 0 -95z"/>
<path d="M8060 10485 l0 -95 40 0 40 0 0 95 0 95 -40 0 -40 0 0 -95z"/>
<path d="M7092 10282 c-8 -2 -12 -33 -12 -98 l0 -94 40 0 40 0 0 95 c0 52 -3
95 -7 96 -5 0 -17 2 -28 3 -12 1 -26 1 -33 -2z"/>
<path d="M7330 10188 l0 -98 35 0 35 0 0 98 0 97 -35 0 -35 0 0 -97z"/>
<path d="M7843 10282 c-22 -3 -23 -8 -23 -98 l0 -94 35 0 35 0 0 98 c0 103 1
102 -47 94z"/>
<path d="M8343 10283 l-33 -4 0 -95 0 -94 35 0 35 0 0 100 c0 55 -1 99 -2 98
-2 0 -18 -3 -35 -5z"/>
<path d="M7570 10185 l0 -95 40 0 40 0 0 95 0 95 -40 0 -40 0 0 -95z"/>
<path d="M8060 10185 l0 -95 40 0 40 0 0 95 0 95 -40 0 -40 0 0 -95z"/>
<path d="M8343 9983 l-33 -4 0 -95 0 -94 35 0 35 0 0 100 c0 55 -1 99 -2 98
-2 0 -18 -3 -35 -5z"/>
<path d="M7080 9885 l0 -95 40 0 40 0 0 95 0 95 -40 0 -40 0 0 -95z"/>
<path d="M7330 9885 l0 -95 35 0 35 0 0 95 0 95 -35 0 -35 0 0 -95z"/>
<path d="M7570 9885 l0 -95 40 0 40 0 0 95 0 95 -40 0 -40 0 0 -95z"/>
<path d="M7820 9885 l0 -95 35 0 35 0 0 95 0 95 -35 0 -35 0 0 -95z"/>
<path d="M8060 9885 l0 -95 40 0 40 0 0 95 0 95 -40 0 -40 0 0 -95z"/>
<path d="M4050 9535 l0 -35 140 0 140 0 0 35 0 35 -140 0 -140 0 0 -35z"/>
<path d="M4490 9535 l0 -35 140 0 140 0 0 35 0 35 -140 0 -140 0 0 -35z"/>
<path d="M4940 9535 l0 -35 140 0 140 0 0 35 0 35 -140 0 -140 0 0 -35z"/>
<path d="M6780 9315 l0 -35 115 0 115 0 0 35 0 35 -115 0 -115 0 0 -35z"/>
<path d="M6780 9125 l0 -35 115 0 115 0 0 35 0 35 -115 0 -115 0 0 -35z"/>
<path d="M6780 8930 l0 -40 115 0 115 0 0 40 0 40 -115 0 -115 0 0 -40z"/>
<path d="M6894 8773 l-112 -4 -4 -34 -4 -35 118 0 118 0 0 40 c0 22 -1 39 -2
38 -2 -1 -53 -4 -114 -5z"/>
<path d="M6780 8545 l0 -35 115 0 115 0 0 35 0 35 -115 0 -115 0 0 -35z"/>
<path d="M7440 9320 l0 -40 115 0 115 0 0 40 0 40 -115 0 -115 0 0 -40z"/>
<path d="M7790 9320 l0 -40 120 0 120 0 0 40 0 40 -120 0 -120 0 0 -40z"/>
<path d="M7543 9162 l-103 -3 0 -34 0 -35 115 0 115 0 0 34 c0 19 -6 35 -12
37 -7 2 -59 3 -115 1z"/>
<path d="M7903 9163 l-113 -4 0 -34 0 -35 120 0 120 0 0 40 c0 22 -3 39 -7 38
-5 -1 -59 -4 -120 -5z"/>
<path d="M7533 8972 l-93 -3 0 -34 0 -35 115 0 115 0 0 34 c0 41 -6 42 -137
38z"/>
<path d="M7898 8972 l-108 -3 0 -34 0 -35 120 0 120 0 0 34 c0 19 -6 35 -12
37 -7 2 -61 3 -120 1z"/>
<path d="M7440 8745 l0 -35 115 0 115 0 0 35 0 35 -115 0 -115 0 0 -35z"/>
<path d="M7790 8745 l0 -35 120 0 120 0 0 35 0 35 -120 0 -120 0 0 -35z"/>
<path d="M7440 8556 l0 -35 105 -3 c58 -2 110 -1 115 0 6 2 10 19 10 38 l0 34
-115 0 -115 0 0 -34z"/>
<path d="M7790 8555 l0 -35 104 0 c57 0 111 -3 120 -6 13 -5 16 2 16 35 l0 41
-120 0 -120 0 0 -35z"/>
<path d="M8450 9325 l0 -35 120 0 120 0 0 35 0 35 -120 0 -120 0 0 -35z"/>
<path d="M8450 9135 l0 -35 120 0 120 0 0 35 0 35 -120 0 -120 0 0 -35z"/>
<path d="M8450 8945 l0 -35 120 0 120 0 0 35 0 35 -120 0 -120 0 0 -35z"/>
<path d="M8450 8755 l0 -35 120 0 120 0 0 35 0 35 -120 0 -120 0 0 -35z"/>
<path d="M8450 8560 l0 -40 120 0 120 0 0 40 0 40 -120 0 -120 0 0 -40z"/>
<path d="M4050 9235 l0 -35 140 0 140 0 0 35 0 35 -140 0 -140 0 0 -35z"/>
<path d="M4492 9235 l3 -36 138 -2 137 -2 0 38 0 37 -141 0 -140 0 3 -35z"/>
<path d="M4940 9233 l0 -38 140 0 140 0 0 38 0 37 -140 0 -140 0 0 -37z"/>
<path d="M4494 8961 c-2 -2 -4 -19 -4 -38 l0 -33 140 0 140 0 0 38 0 37 -136
0 c-74 0 -138 -2 -140 -4z"/>
<path d="M4940 8928 l0 -38 140 0 140 0 0 38 0 37 -140 0 -140 0 0 -37z"/>
<path d="M4050 8925 l0 -35 140 0 140 0 0 35 0 35 -140 0 -140 0 0 -35z"/>
<path d="M4050 8625 l0 -35 140 0 140 0 0 35 0 35 -140 0 -140 0 0 -35z"/>
<path d="M4490 8625 l0 -35 140 0 140 0 0 35 0 35 -140 0 -140 0 0 -35z"/>
<path d="M4940 8625 l0 -35 140 0 140 0 0 35 0 35 -140 0 -140 0 0 -35z"/>
<path d="M4050 8320 l0 -40 140 0 140 0 0 40 0 40 -140 0 -140 0 0 -40z"/>
<path d="M4490 8320 l0 -40 140 0 140 0 0 40 0 40 -140 0 -140 0 0 -40z"/>
<path d="M4940 8320 l0 -40 140 0 140 0 0 40 0 40 -140 0 -140 0 0 -40z"/>
<path d="M6778 8028 c-10 -56 -6 -58 118 -58 l114 0 0 40 0 40 -114 0 c-110 0
-114 -1 -118 -22z"/>
<path d="M6883 7852 l-103 -3 0 -34 0 -35 115 0 115 0 0 34 c0 19 -6 35 -12
37 -7 2 -59 3 -115 1z"/>
<path d="M6778 7637 c-9 -45 -2 -47 118 -47 l114 0 0 35 0 35 -114 0 c-110 0
-114 -1 -118 -23z"/>
<path d="M6780 7435 l0 -35 115 0 115 0 0 35 0 35 -115 0 -115 0 0 -35z"/>
<path d="M6779 7278 c0 -2 -1 -18 -2 -36 l-2 -32 118 0 117 0 0 35 0 35 -115
0 c-63 0 -115 -1 -116 -2z"/>
<path d="M7908 8053 l-118 -4 0 -34 0 -35 120 0 120 0 0 40 c0 22 -1 39 -2 38
-2 -1 -56 -4 -120 -5z"/>
<path d="M7440 8015 l0 -35 115 0 115 0 0 35 0 35 -115 0 -115 0 0 -35z"/>
<path d="M7440 7825 l0 -35 115 0 115 0 0 35 0 35 -115 0 -115 0 0 -35z"/>
<path d="M7790 7825 l0 -35 120 0 120 0 0 35 0 35 -120 0 -120 0 0 -35z"/>
<path d="M7440 7635 l0 -35 115 0 115 0 0 35 0 35 -115 0 -115 0 0 -35z"/>
<path d="M7790 7636 l0 -35 120 -3 120 -3 0 38 0 37 -120 0 -120 0 0 -34z"/>
<path d="M7440 7445 l0 -35 115 0 115 0 0 35 0 35 -115 0 -115 0 0 -35z"/>
<path d="M7790 7445 l0 -35 120 0 120 0 0 35 0 35 -120 0 -120 0 0 -35z"/>
<path d="M7440 7250 l0 -40 114 0 c110 0 114 1 118 23 10 55 6 57 -118 57
l-114 0 0 -40z"/>
<path d="M7790 7250 l0 -40 120 0 120 0 0 40 0 40 -120 0 -120 0 0 -40z"/>
<path d="M8450 8025 l0 -35 120 0 120 0 0 35 0 35 -120 0 -120 0 0 -35z"/>
<path d="M8450 7835 l0 -35 120 0 120 0 0 35 0 35 -120 0 -120 0 0 -35z"/>
<path d="M8450 7640 l0 -40 120 0 120 0 0 40 0 40 -120 0 -120 0 0 -40z"/>
<path d="M8450 7445 l0 -35 120 0 120 0 0 35 0 35 -120 0 -120 0 0 -35z"/>
<path d="M8450 7255 l0 -35 120 0 120 0 0 35 0 35 -120 0 -120 0 0 -35z"/>
<path d="M4050 8015 l0 -35 140 0 140 0 0 35 0 35 -140 0 -140 0 0 -35z"/>
<path d="M4490 8015 l0 -35 140 0 140 0 0 35 0 35 -140 0 -140 0 0 -35z"/>
<path d="M4940 8015 l0 -35 140 0 140 0 0 35 0 35 -140 0 -140 0 0 -35z"/>
<path d="M4050 7715 l0 -35 140 0 140 0 0 35 0 35 -140 0 -140 0 0 -35z"/>
<path d="M4492 7715 l3 -36 138 -2 137 -2 0 38 0 37 -141 0 -140 0 3 -35z"/>
<path d="M4940 7713 l0 -38 140 0 140 0 0 38 0 37 -140 0 -140 0 0 -37z"/>
<path d="M4494 7441 c-2 -2 -4 -19 -4 -38 l0 -33 140 0 140 0 0 38 0 37 -136
0 c-74 0 -138 -2 -140 -4z"/>
<path d="M4940 7408 l0 -38 140 0 140 0 0 38 0 37 -140 0 -140 0 0 -37z"/>
<path d="M4050 7405 l0 -35 140 0 140 0 0 35 0 35 -140 0 -140 0 0 -35z"/>
<path d="M4050 7105 l0 -35 140 0 140 0 0 35 0 35 -140 0 -140 0 0 -35z"/>
<path d="M4490 7105 l0 -35 140 0 140 0 0 35 0 35 -140 0 -140 0 0 -35z"/>
<path d="M4940 7105 l0 -35 140 0 140 0 0 35 0 35 -140 0 -140 0 0 -35z"/>
<path d="M9690 6821 c0 -33 15 -39 83 -32 33 3 37 6 37 32 0 29 0 29 -60 29
-60 0 -60 0 -60 -29z"/>
<path d="M9930 6820 l0 -30 60 0 60 0 0 30 0 30 -60 0 -60 0 0 -30z"/>
<path d="M10170 6821 c0 -33 10 -39 60 -35 19 1 43 2 53 3 12 1 17 9 17 31 l0
30 -65 0 -65 0 0 -29z"/>
<path d="M10410 6820 l0 -30 65 0 65 0 0 30 0 30 -65 0 -65 0 0 -30z"/>
<path d="M10660 6820 l0 -30 60 0 60 0 0 30 0 30 -60 0 -60 0 0 -30z"/>
<path d="M10870 6820 l0 -30 65 0 65 0 0 30 0 30 -65 0 -65 0 0 -30z"/>
<path d="M11110 6820 l0 -30 65 0 65 0 0 30 0 30 -65 0 -65 0 0 -30z"/>
<path d="M11356 6823 c1 -27 3 -28 62 -31 l62 -3 0 31 0 30 -63 0 c-62 0 -63
0 -61 -27z"/>
<path d="M9690 6595 l0 -35 60 0 60 0 0 35 0 35 -60 0 -60 0 0 -35z"/>
<path d="M9930 6595 l0 -35 66 0 c56 0 65 2 60 16 -3 9 -6 24 -6 35 0 17 -8
19 -60 19 l-60 0 0 -35z"/>
<path d="M10170 6595 l0 -35 65 0 65 0 0 35 0 35 -65 0 -65 0 0 -35z"/>
<path d="M10410 6595 l0 -35 65 0 65 0 0 35 0 35 -65 0 -65 0 0 -35z"/>
<path d="M10660 6595 l0 -35 60 0 60 0 0 35 0 35 -60 0 -60 0 0 -35z"/>
<path d="M10870 6595 l0 -35 65 0 65 0 0 35 0 35 -65 0 -65 0 0 -35z"/>
<path d="M11110 6595 l0 -35 65 0 65 0 0 35 0 35 -65 0 -65 0 0 -35z"/>
<path d="M11360 6595 l0 -35 60 0 60 0 0 35 0 35 -60 0 -60 0 0 -35z"/>
<path d="M9728 6402 c-35 -3 -38 -5 -38 -35 l0 -32 60 3 c60 4 60 4 60 35 0
35 -3 36 -82 29z"/>
<path d="M9947 6402 c-11 -2 -17 -13 -17 -33 0 -29 0 -29 60 -29 60 0 60 0 60
29 0 27 -3 29 -43 32 -24 2 -51 3 -60 1z"/>
<path d="M10414 6401 c-2 -2 -4 -17 -4 -32 0 -27 2 -27 65 -31 l65 -3 0 32 0
31 -61 4 c-33 1 -63 1 -65 -1z"/>
<path d="M10923 6402 c-51 -3 -53 -4 -53 -33 l0 -29 65 0 65 0 0 29 c0 34 -7
37 -77 33z"/>
<path d="M11418 6403 c-57 -4 -58 -5 -58 -33 0 -30 0 -30 60 -30 l60 0 0 35
c0 19 -1 34 -2 33 -2 -1 -29 -3 -60 -5z"/>
<path d="M10170 6370 l0 -30 65 0 65 0 0 30 0 30 -65 0 -65 0 0 -30z"/>
<path d="M10660 6371 c0 -29 1 -29 60 -33 l60 -3 0 33 0 32 -60 0 c-60 0 -60
0 -60 -29z"/>
<path d="M11110 6370 l0 -30 65 0 65 0 0 30 0 30 -65 0 -65 0 0 -30z"/>
<path d="M9690 6145 l0 -35 60 0 60 0 0 35 0 35 -60 0 -60 0 0 -35z"/>
<path d="M9930 6145 l0 -35 59 0 c58 0 59 1 63 30 3 17 2 32 0 35 -3 3 -32 5
-64 5 l-58 0 0 -35z"/>
<path d="M10170 6145 l0 -35 65 0 65 0 0 35 0 35 -65 0 -65 0 0 -35z"/>
<path d="M10410 6145 l0 -35 65 0 65 0 0 35 0 35 -65 0 -65 0 0 -35z"/>
<path d="M10658 6145 l4 -35 59 0 59 0 0 35 0 35 -63 0 -63 0 4 -35z"/>
<path d="M10870 6145 l0 -35 65 0 65 0 0 35 0 35 -65 0 -65 0 0 -35z"/>
<path d="M11110 6145 l0 -35 65 0 65 0 0 35 0 35 -65 0 -65 0 0 -35z"/>
<path d="M11358 6145 l4 -35 59 0 59 0 0 35 0 35 -63 0 -63 0 4 -35z"/>
<path d="M9953 5952 c-18 -3 -23 -10 -23 -33 0 -29 0 -29 60 -29 53 0 60 2 60
20 0 11 1 23 3 28 2 8 -68 19 -100 14z"/>
<path d="M10188 5952 c-12 -2 -18 -13 -18 -33 l0 -29 65 0 65 0 0 30 c0 22 -5
30 -17 31 -10 0 -31 2 -48 3 -16 1 -38 0 -47 -2z"/>
<path d="M11173 5953 c-62 -4 -63 -4 -63 -33 l0 -30 65 0 65 0 0 35 c0 19 -1
34 -2 33 -2 -1 -31 -3 -65 -5z"/>
<path d="M9690 5920 l0 -30 60 0 60 0 0 30 0 30 -60 0 -60 0 0 -30z"/>
<path d="M10410 5920 l0 -30 65 0 65 0 0 30 0 30 -65 0 -65 0 0 -30z"/>
<path d="M10658 5920 c4 -29 5 -30 63 -30 59 0 59 0 59 30 l0 30 -63 0 -64 0
5 -30z"/>
<path d="M10870 5920 l0 -30 65 0 65 0 0 30 0 30 -65 0 -65 0 0 -30z"/>
<path d="M11358 5920 l-5 -30 64 0 63 0 0 30 c0 30 0 30 -59 30 -58 0 -59 -1
-63 -30z"/>
<path d="M9690 5695 l0 -35 60 0 60 0 0 35 0 35 -60 0 -60 0 0 -35z"/>
<path d="M9930 5695 l0 -35 59 0 59 0 4 35 4 35 -63 0 -63 0 0 -35z"/>
<path d="M10170 5695 l0 -35 65 0 65 0 0 35 0 35 -65 0 -65 0 0 -35z"/>
<path d="M10410 5695 l0 -35 65 0 65 0 0 35 0 35 -65 0 -65 0 0 -35z"/>
<path d="M10658 5713 c-10 -44 1 -53 63 -53 l59 0 0 35 0 35 -59 0 c-48 0 -59
-3 -63 -17z"/>
<path d="M10870 5695 l0 -35 65 0 65 0 0 35 0 35 -65 0 -65 0 0 -35z"/>
<path d="M11110 5695 l0 -35 65 0 65 0 0 35 0 35 -65 0 -65 0 0 -35z"/>
<path d="M11360 5695 l0 -35 60 0 60 0 0 35 0 35 -60 0 -60 0 0 -35z"/>
<path d="M6780 6765 l0 -35 115 0 115 0 0 35 0 35 -115 0 -115 0 0 -35z"/>
<path d="M6780 6575 l0 -35 115 0 115 0 0 35 0 35 -115 0 -115 0 0 -35z"/>
<path d="M6780 6380 l0 -40 115 0 115 0 0 40 0 40 -115 0 -115 0 0 -40z"/>
<path d="M6878 6222 l-98 -3 0 -34 0 -35 115 0 115 0 0 34 c0 41 -3 42 -132
38z"/>
<path d="M6780 5995 l0 -35 115 0 115 0 0 35 0 35 -115 0 -115 0 0 -35z"/>
<path d="M7440 6776 l0 -35 115 -3 115 -3 0 38 0 37 -115 0 -115 0 0 -34z"/>
<path d="M7790 6775 l0 -35 120 0 120 0 0 35 0 35 -120 0 -120 0 0 -35z"/>
<path d="M7440 6580 l0 -40 115 0 115 0 0 40 0 40 -115 0 -115 0 0 -40z"/>
<path d="M7790 6580 l0 -40 120 0 120 0 0 40 0 40 -120 0 -120 0 0 -40z"/>
<path d="M7528 6422 l-88 -3 0 -34 0 -35 115 0 115 0 0 38 c0 42 12 39 -142
34z"/>
<path d="M7813 6422 c-19 -3 -23 -10 -23 -38 l0 -34 120 0 120 0 0 34 0 35
-97 3 c-54 2 -108 2 -120 0z"/>
<path d="M7440 6195 l0 -35 115 0 c69 0 115 4 116 10 1 6 2 17 2 25 0 8 -1 20
-2 25 -1 6 -47 10 -116 10 l-115 0 0 -35z"/>
<path d="M7790 6195 l0 -35 120 0 120 0 0 35 0 35 -120 0 -120 0 0 -35z"/>
<path d="M7440 6005 l0 -35 115 0 115 0 0 35 0 35 -115 0 -115 0 0 -35z"/>
<path d="M7790 6005 l0 -35 120 0 120 0 0 35 0 35 -120 0 -120 0 0 -35z"/>
<path d="M8450 6775 l0 -35 120 0 120 0 0 35 0 35 -120 0 -120 0 0 -35z"/>
<path d="M8450 6585 l0 -35 120 0 120 0 0 35 0 35 -120 0 -120 0 0 -35z"/>
<path d="M8450 6395 l0 -35 120 0 120 0 0 35 0 35 -120 0 -120 0 0 -35z"/>
<path d="M8450 6205 l0 -35 120 0 120 0 0 35 0 35 -120 0 -120 0 0 -35z"/>
<path d="M8450 6016 l0 -35 98 -3 c139 -4 142 -3 142 38 l0 34 -120 0 -120 0
0 -34z"/>
<path d="M4050 6800 l0 -40 140 0 140 0 0 40 0 40 -140 0 -140 0 0 -40z"/>
<path d="M4490 6800 l0 -40 140 0 140 0 0 40 0 40 -140 0 -140 0 0 -40z"/>
<path d="M4940 6800 l0 -40 140 0 140 0 0 40 0 40 -140 0 -140 0 0 -40z"/>
<path d="M4050 6495 l0 -35 140 0 140 0 0 35 0 35 -140 0 -140 0 0 -35z"/>
<path d="M4490 6495 l0 -35 140 0 140 0 0 35 0 35 -140 0 -140 0 0 -35z"/>
<path d="M4940 6495 l0 -35 140 0 140 0 0 35 0 35 -140 0 -140 0 0 -35z"/>
<path d="M4050 6195 l0 -35 140 0 140 0 0 35 0 35 -140 0 -140 0 0 -35z"/>
<path d="M4492 6195 l3 -36 138 -2 137 -2 0 38 0 37 -141 0 -140 0 3 -35z"/>
<path d="M4940 6193 l0 -38 140 0 140 0 0 38 0 37 -140 0 -140 0 0 -37z"/>
<path d="M4494 5921 c-2 -2 -4 -19 -4 -38 l0 -33 140 0 140 0 0 38 0 37 -136
0 c-74 0 -138 -2 -140 -4z"/>
<path d="M4940 5888 l0 -38 140 0 140 0 0 38 0 37 -140 0 -140 0 0 -37z"/>
<path d="M4050 5885 l0 -35 140 0 140 0 0 35 0 35 -140 0 -140 0 0 -35z"/>
<path d="M4050 5585 l0 -35 140 0 140 0 0 35 0 35 -140 0 -140 0 0 -35z"/>
<path d="M4490 5585 l0 -35 140 0 140 0 0 35 0 35 -140 0 -140 0 0 -35z"/>
<path d="M4940 5585 l0 -35 140 0 140 0 0 35 0 35 -140 0 -140 0 0 -35z"/>
<path d="M23636 14209 c-21 -5 -62 -21 -90 -35 -139 -70 -223 -188 -250 -355
l-6 -37 -103 -4 c-89 -3 -110 -8 -167 -35 -121 -59 -205 -156 -243 -280 -17
-58 -21 -63 -41 -56 -11 4 -61 8 -111 8 -73 -1 -98 -5 -132 -23 -67 -35 -110
-78 -143 -144 -25 -51 -30 -73 -30 -134 0 -133 58 -231 173 -292 l52 -27 1377
-3 c1364 -2 1378 -2 1398 18 28 28 36 69 19 99 -10 18 -37 34 -89 54 -128 48
-148 58 -196 106 -65 63 -90 125 -109 260 -17 121 -38 186 -84 266 -85 147
-261 272 -429 305 -37 8 -101 11 -156 8 l-94 -5 -22 55 c-28 67 -121 168 -188
205 -94 51 -232 70 -336 46z m237 -49 c72 -22 149 -75 198 -135 36 -45 79
-131 79 -159 0 -13 5 -16 18 -11 33 14 207 18 265 5 101 -21 213 -84 297 -169
109 -110 161 -220 176 -371 11 -125 38 -193 106 -266 52 -57 93 -81 196 -118
91 -33 115 -54 96 -83 -11 -17 -87 -18 -1380 -18 l-1369 0 -54 30 c-197 109
-190 389 11 489 66 33 161 35 227 6 50 -23 61 -20 61 19 0 42 35 135 69 185
98 142 274 211 436 170 23 -6 25 -4 25 33 0 49 24 142 49 191 89 175 301 261
494 202z"/>
<path d="M15462 12854 c-162 -43 -293 -191 -324 -364 l-11 -62 -39 5 c-62 8
-167 -11 -233 -42 -116 -55 -205 -160 -239 -281 -16 -56 -19 -60 -39 -53 -12
4 -62 8 -112 8 -81 0 -95 -3 -143 -30 -65 -35 -107 -82 -140 -153 -21 -47 -24
-64 -20 -141 3 -72 9 -95 31 -133 36 -62 79 -103 141 -136 l51 -27 1365 -3
c751 -1 1375 0 1387 3 25 6 53 52 53 85 0 33 -41 65 -116 90 -97 32 -134 52
-182 100 -63 63 -91 131 -108 257 -17 128 -25 155 -72 248 -51 98 -163 208
-268 262 -114 59 -186 76 -316 71 l-106 -3 -22 53 c-27 63 -115 162 -177 199
-103 60 -245 79 -361 47z m251 -44 c72 -22 149 -75 198 -135 33 -41 79 -135
79 -160 0 -18 -3 -17 40 -5 54 16 208 13 270 -6 88 -26 186 -82 258 -149 114
-106 172 -228 192 -408 20 -189 113 -300 301 -362 91 -31 107 -45 91 -80 l-12
-25 -1367 2 -1368 3 -53 29 c-93 52 -145 138 -145 241 0 151 119 275 267 276
54 1 119 -14 143 -33 20 -16 30 -1 36 52 19 158 166 308 332 339 51 9 139 7
174 -4 19 -6 21 -2 21 32 0 90 45 205 107 274 111 123 277 168 436 119z"/>
<path d="M17770 3250 l0 -550 55 0 55 0 0 113 0 112 91 83 90 83 157 -196 156
-195 63 0 c35 0 63 2 63 4 0 3 -79 104 -175 226 -96 122 -175 226 -175 230 0
5 73 78 162 164 l163 156 -68 0 -68 0 -230 -210 -229 -211 0 371 0 370 -55 0
-55 0 0 -550z"/>
<path d="M11660 3220 l0 -520 55 0 55 0 2 417 3 417 330 -416 330 -417 48 -1
47 0 0 520 0 520 -55 0 -55 0 -2 -416 -3 -417 -309 389 c-170 214 -321 401
-335 417 -20 21 -34 27 -68 27 l-43 0 0 -520z"/>
<path d="M15273 3727 c3 -8 49 -86 103 -173 53 -87 143 -235 200 -329 l104
-170 0 -177 0 -178 55 0 55 0 0 181 0 180 205 335 c113 184 205 336 205 339 0
3 -24 5 -53 5 l-54 0 -167 -274 c-92 -151 -173 -281 -179 -290 -10 -13 -41 32
-187 272 l-175 287 -59 3 c-47 2 -57 0 -53 -11z"/>
<path d="M13068 3480 c-221 -39 -349 -270 -286 -515 24 -93 106 -187 201 -230
147 -68 345 -48 451 45 20 18 36 36 36 40 0 5 -12 22 -26 39 l-26 31 -30 -25
c-59 -50 -109 -68 -193 -73 -65 -3 -91 0 -139 18 -77 29 -137 89 -165 164 -35
94 -63 86 304 86 l325 0 0 54 c0 154 -94 293 -235 348 -51 20 -157 29 -217 18z
m172 -102 c61 -16 140 -95 163 -162 9 -27 17 -56 17 -63 0 -10 -54 -13 -276
-13 l-276 0 7 33 c18 80 72 155 138 189 72 37 133 41 227 16z"/>
<path d="M16482 3475 c-202 -45 -325 -233 -294 -446 27 -178 154 -305 330
-330 156 -22 297 34 385 154 65 88 89 233 58 355 -49 195 -265 316 -479 267z
m199 -100 c163 -58 235 -262 153 -432 -47 -97 -140 -153 -254 -153 -116 0
-207 56 -257 158 -24 49 -28 69 -28 142 0 73 4 93 28 142 32 65 91 121 151
142 54 19 153 20 207 1z"/>
<path d="M17501 3479 c-72 -12 -145 -54 -182 -103 l-29 -40 0 72 0 72 -50 0
-50 0 0 -390 0 -390 55 0 55 0 0 233 c0 255 7 300 56 364 32 42 110 80 174 85
44 3 45 4 50 43 3 22 4 46 2 53 -5 13 -5 13 -81 1z"/>
<path d="M13590 3477 c0 -4 259 -692 285 -760 6 -15 17 -17 58 -15 l51 3 120
313 c82 214 123 308 128 297 5 -8 40 -97 79 -197 38 -101 90 -236 115 -301
l46 -118 51 3 52 3 145 385 146 385 -39 3 c-22 2 -44 1 -51 -1 -6 -3 -65 -149
-131 -326 -66 -176 -122 -317 -126 -313 -3 4 -59 150 -124 325 l-118 317 -48
0 -47 0 -30 -77 c-16 -43 -71 -190 -122 -326 -51 -136 -95 -245 -97 -243 -3 3
-58 148 -122 323 l-118 318 -51 3 c-29 2 -52 1 -52 -1z"/>
</g>
</svg>
