<svg xmlns="http://www.w3.org/2000/svg" xmlns:xlink="http://www.w3.org/1999/xlink" width="500" zoomAndPan="magnify" viewBox="0 0 375 374.999991" height="500" preserveAspectRatio="xMidYMid meet" version="1.0"><defs><g/><clipPath id="90a0d3bdad"><path d="M 115.3125 0 L 260 0 L 260 300 L 115.3125 300 Z M 115.3125 0 " clip-rule="nonzero"/></clipPath></defs><path fill="#008080" d="M 161.875 121.609375 C 161.941406 121.609375 161.875 121.4375 161.632812 121.160156 C 161.734375 121.4375 161.804688 121.609375 161.875 121.609375 Z M 161.875 121.609375 " fill-opacity="1" fill-rule="nonzero"/><path fill="#008080" d="M 213.46875 121.609375 C 213.535156 121.609375 213.605469 121.4375 213.707031 121.160156 C 213.5 121.4375 213.398438 121.609375 213.46875 121.609375 Z M 213.46875 121.609375 " fill-opacity="1" fill-rule="nonzero"/><g clip-path="url(#90a0d3bdad)"><path fill="#008080" d="M 259.929688 226.140625 C 236.851562 159.394531 239.160156 102.199219 239.160156 102.199219 C 239.4375 108.140625 247.183594 127.035156 247.183594 127.035156 C 245.359375 93.917969 256.792969 55.890625 256.792969 55.890625 C 222.042969 86.707031 215.121094 117.109375 213.707031 121.160156 C 215.808594 118.308594 230.066406 103.261719 230.066406 103.261719 C 221.765625 138.441406 232.410156 187.082031 232.410156 187.082031 L 202.066406 176.742188 L 193.25 67.535156 L 208.300781 75.816406 C 198.417969 52.800781 187.671875 0 187.671875 0 C 187.671875 0 176.925781 52.800781 167.039062 75.816406 L 182.089844 67.535156 L 173.273438 176.742188 L 142.929688 187.082031 C 142.929688 187.082031 153.574219 138.441406 145.273438 103.261719 C 145.273438 103.261719 159.53125 118.34375 161.632812 121.160156 C 160.21875 117.109375 153.296875 86.738281 118.546875 55.890625 C 118.546875 55.890625 129.945312 93.917969 128.15625 127.035156 C 128.15625 127.035156 135.9375 108.140625 136.214844 102.199219 C 136.214844 102.199219 138.554688 159.394531 115.445312 226.140625 L 120.886719 226.140625 C 120.886719 226.140625 144.171875 212.332031 168.589844 206.59375 C 168.382812 209 168.863281 211.988281 171.929688 213.84375 C 171.929688 213.84375 168.554688 215.597656 168.554688 218.894531 C 168.554688 222.191406 175.648438 225.730469 175.648438 225.730469 C 175.648438 225.730469 180.679688 254.171875 170.3125 294.089844 C 170.3125 294.089844 177.992188 300 187.671875 300 C 197.347656 300 205.027344 294.089844 205.027344 294.089844 C 194.660156 254.171875 199.691406 225.730469 199.691406 225.730469 C 199.691406 225.730469 206.785156 222.15625 206.785156 218.894531 C 206.785156 215.597656 203.410156 213.84375 203.410156 213.84375 C 206.476562 211.953125 206.957031 208.964844 206.75 206.59375 C 231.203125 212.332031 254.453125 226.140625 254.453125 226.140625 Z M 137.179688 95.570312 C 136.902344 94.949219 136.730469 94.605469 136.730469 94.605469 C 142 101.890625 149.921875 133.183594 134.390625 186.671875 C 137.695312 167.433594 146.925781 118.34375 137.179688 95.570312 Z M 138.832031 202.644531 C 138.660156 202.75 128.15625 208.246094 127.085938 208.828125 C 127.085938 208.828125 127.570312 208.382812 128.429688 207.59375 C 139.074219 199.003906 151.160156 192.855469 164.800781 190.65625 C 161.046875 192.304688 150.785156 196.359375 138.832031 202.644531 Z M 197.554688 182.996094 C 197.933594 183.613281 198.449219 184.164062 198.96875 184.679688 C 197.554688 184.199219 196.488281 183.40625 195.730469 182.445312 C 194.972656 181.519531 194.179688 180.351562 193.59375 179.046875 C 191.21875 173.789062 189.597656 168.808594 189.359375 163.070312 C 193.457031 171.074219 195.558594 179.871094 197.554688 182.996094 Z M 197.933594 188.765625 C 196.210938 192.855469 191.941406 199.003906 188.632812 202.0625 C 189.632812 196.875 193.421875 191.480469 197.933594 188.765625 Z M 187.671875 19.992188 C 189.53125 63.621094 188.667969 119.648438 187.671875 142.835938 C 186.914062 125.078125 185.605469 67.878906 187.671875 19.992188 Z M 186.707031 202.0625 C 183.433594 199.003906 179.164062 192.890625 177.40625 188.765625 C 180.160156 190.449219 181.472656 192.066406 183.398438 194.503906 C 185.050781 197.113281 186.085938 198.867188 186.707031 202.0625 Z M 185.984375 163.035156 C 185.742188 168.808594 184.121094 173.71875 181.746094 179.011719 C 181.09375 180.453125 179.75 182.582031 178.441406 183.578125 C 177.476562 184.335938 176.683594 184.542969 176.375 184.644531 C 179.851562 181.414062 180.851562 173.101562 185.984375 163.035156 Z M 238.609375 94.605469 C 237.058594 97.390625 235.957031 102.886719 235.476562 105.53125 C 231.238281 131.226562 236.613281 161.214844 240.953125 186.671875 C 225.28125 132.773438 233.441406 101.785156 238.609375 94.605469 Z M 210.574219 190.691406 C 218.769531 191.996094 222.59375 193.609375 228.898438 196.324219 C 235.40625 199.3125 243.257812 204.089844 248.289062 208.828125 C 229.242188 198.214844 213.605469 191.996094 210.574219 190.691406 Z M 210.574219 190.691406 " fill-opacity="1" fill-rule="nonzero"/></g><g fill="#000000" fill-opacity="1"><g transform="translate(86.415575, 358.455066)"><g><path d="M 9.472656 -27.976562 L 0.753906 -27.976562 C 0.308594 -27.976562 0.265625 -27.3125 0.707031 -27.226562 C 2.214844 -26.960938 3.496094 -27.359375 3.496094 -25.011719 L 3.496094 -2.214844 C 3.496094 0.53125 2.699219 2.699219 1.59375 3.851562 C 1.0625 4.25 0.621094 4.425781 0.265625 4.425781 C -0.886719 4.425781 -1.417969 2.921875 -2.566406 2.480469 C -4.292969 1.816406 -5.3125 4.160156 -3.363281 5.089844 C -2.433594 5.578125 -1.019531 5.445312 -0.132812 5.355469 C 3.808594 4.914062 6.773438 1.859375 6.773438 -2.214844 L 6.773438 -25.011719 C 6.773438 -27.359375 8.058594 -26.960938 9.519531 -27.226562 C 9.960938 -27.3125 9.960938 -27.976562 9.472656 -27.976562 Z M 9.472656 -27.976562 "/></g></g></g><g fill="#000000" fill-opacity="1"><g transform="translate(96.286895, 358.455066)"><g><path d="M 19.257812 -0.707031 C 18.414062 -0.707031 17.886719 -1.019531 17.886719 -2.832031 C 17.886719 -6.773438 17.886719 -11.15625 17.886719 -15.050781 C 17.886719 -18.726562 14.121094 -20.671875 10.269531 -20.671875 C 8.058594 -20.671875 5.800781 -20.007812 4.207031 -18.679688 C 4.027344 -18.546875 3.851562 -18.414062 3.71875 -18.195312 C 3.675781 -18.195312 3.675781 -18.195312 3.628906 -18.148438 C 3.453125 -17.929688 3.277344 -17.707031 3.097656 -17.441406 C 2.832031 -17.132812 2.65625 -16.691406 2.523438 -16.292969 C 2.480469 -16.203125 2.433594 -16.113281 2.390625 -16.027344 C 2.390625 -15.980469 2.390625 -15.980469 2.390625 -15.9375 C 2.257812 -15.539062 2.167969 -15.183594 2.167969 -14.832031 C 2.214844 -13.238281 3.054688 -12.574219 3.894531 -12.574219 C 4.871094 -12.574219 5.84375 -13.546875 5.222656 -15.007812 C 4.691406 -16.203125 4.558594 -17.929688 6.332031 -18.8125 C 7.304688 -19.257812 8.410156 -19.476562 9.5625 -19.476562 C 12.261719 -19.476562 14.875 -18.148438 14.875 -15.050781 C 14.875 -13.855469 14.875 -12.707031 14.875 -11.554688 C 14.875 -11.246094 13.324219 -11.332031 11.246094 -11.199219 C 6.996094 -10.980469 0.929688 -9.917969 0.886719 -4.605469 C 0.886719 -2.035156 3.054688 0.398438 6.996094 0.398438 C 11.421875 0.398438 13.855469 -1.859375 14.875 -4.515625 C 14.875 -3.808594 14.875 -3.054688 14.875 -2.300781 C 14.875 -0.355469 16.292969 0.222656 17.753906 0.222656 C 18.28125 0.222656 18.8125 0.132812 19.300781 0 C 19.789062 -0.132812 19.699219 -0.707031 19.257812 -0.707031 Z M 7.925781 -1.019531 C 5.710938 -1.019531 4.339844 -2.613281 4.339844 -4.558594 C 4.339844 -10.09375 11.066406 -10.449219 14.875 -10.449219 C 14.875 -10.003906 14.875 -9.5625 14.875 -9.074219 C 14.742188 -2.65625 10.625 -1.019531 7.925781 -1.019531 Z M 7.925781 -1.019531 "/></g></g></g><g fill="#000000" fill-opacity="1"><g transform="translate(116.82633, 358.455066)"><g><path d="M 18.371094 -4.382812 C 17 -2.082031 14.433594 -1.105469 11.910156 -1.0625 C 8.101562 -0.972656 4.292969 -3.585938 4.292969 -10.226562 C 4.292969 -15.714844 6.863281 -19.390625 11.730469 -19.390625 C 12.75 -19.390625 13.8125 -19.125 14.785156 -18.636719 L 14.742188 -18.636719 C 14.964844 -18.59375 15.140625 -18.503906 15.273438 -18.371094 C 15.316406 -18.371094 15.363281 -18.328125 15.40625 -18.28125 C 16.601562 -17.488281 16.691406 -16.027344 16.335938 -14.917969 C 15.894531 -13.503906 16.824219 -12.660156 17.753906 -12.660156 C 18.636719 -12.660156 19.523438 -13.414062 19.390625 -15.097656 C 19.34375 -15.539062 19.125 -16.113281 18.769531 -16.691406 C 18.726562 -16.691406 18.726562 -16.734375 18.679688 -16.777344 C 18.546875 -16.957031 18.414062 -17.132812 18.28125 -17.355469 C 18.238281 -17.398438 18.238281 -17.441406 18.195312 -17.441406 L 17.972656 -17.707031 C 17.972656 -17.707031 17.929688 -17.753906 17.886719 -17.796875 C 17.796875 -17.929688 17.222656 -18.414062 17.089844 -18.546875 C 17.042969 -18.59375 17 -18.636719 17 -18.679688 L 16.957031 -18.679688 C 15.316406 -20.007812 13.238281 -20.671875 11.066406 -20.671875 C 5.003906 -20.671875 0.839844 -16.335938 0.929688 -10.136719 C 1.019531 -2.566406 6.199219 0.222656 11.15625 0.222656 C 14.742188 0.222656 18.148438 -1.371094 19.476562 -3.808594 C 19.789062 -4.339844 19.433594 -4.824219 19.035156 -4.824219 C 18.8125 -4.824219 18.546875 -4.691406 18.371094 -4.382812 Z M 18.371094 -4.382812 "/></g></g></g><g fill="#000000" fill-opacity="1"><g transform="translate(138.206813, 358.455066)"><g><path d="M 23.640625 -0.707031 C 22.179688 -0.972656 21.515625 -0.796875 19.609375 -2.746094 L 19.609375 -2.699219 L 11.820312 -10.933594 C 13.636719 -13.058594 15.582031 -15.316406 17.132812 -17.175781 L 17.132812 -17.132812 C 18.636719 -18.8125 19.832031 -19.390625 22.398438 -19.566406 C 22.796875 -19.609375 22.796875 -20.320312 22.3125 -20.320312 L 14.121094 -20.320312 C 13.636719 -20.320312 13.636719 -19.609375 14.078125 -19.566406 C 15.671875 -19.476562 17.265625 -19.257812 16.070312 -17.886719 C 16.070312 -17.886719 16.070312 -17.886719 16.113281 -17.929688 L 7.039062 -7.304688 L 7.039062 -31.164062 C 7.039062 -31.476562 6.773438 -31.476562 6.507812 -31.34375 C 5.046875 -30.632812 3.277344 -30.101562 1.683594 -29.703125 C 0.972656 -29.484375 1.195312 -28.90625 1.636719 -28.90625 C 3.71875 -28.90625 4.027344 -28.90625 4.027344 -26.5625 L 4.027344 -2.964844 C 4.027344 -0.621094 2.746094 -1.019531 1.238281 -0.753906 C 0.796875 -0.664062 0.839844 0 1.285156 0 L 9.785156 0 C 10.269531 0 10.269531 -0.664062 9.828125 -0.753906 C 8.367188 -1.019531 7.039062 -0.621094 7.039062 -2.964844 L 7.039062 -5.445312 C 7.660156 -6.152344 8.457031 -7.039062 9.339844 -8.058594 C 9.472656 -8.191406 9.695312 -8.277344 9.917969 -8.277344 C 10.136719 -8.277344 10.402344 -8.191406 10.625 -7.96875 L 15.761719 -2.566406 C 17 -1.285156 16.601562 -0.929688 15.40625 -0.707031 C 14.964844 -0.664062 15.007812 0 15.449219 0 L 23.59375 0 C 24.082031 0 24.082031 -0.664062 23.640625 -0.707031 Z M 23.640625 -0.707031 "/></g></g></g><g fill="#000000" fill-opacity="1"><g transform="translate(163.084323, 358.455066)"><g/></g></g><g fill="#000000" fill-opacity="1"><g transform="translate(172.778583, 358.455066)"><g><path d="M 29.96875 -0.929688 C 28.464844 -1.195312 27.179688 -0.839844 27.179688 -3.144531 L 27.179688 -25.011719 C 27.179688 -27.359375 28.464844 -26.960938 29.96875 -27.226562 C 30.414062 -27.3125 30.367188 -27.976562 29.925781 -27.976562 L 21.203125 -27.976562 C 20.71875 -27.976562 20.71875 -27.3125 21.160156 -27.226562 C 22.621094 -26.960938 23.90625 -27.359375 23.90625 -25.011719 L 23.90625 -15.140625 L 7.261719 -15.140625 L 7.261719 -25.011719 C 7.261719 -27.359375 8.542969 -26.960938 10.050781 -27.226562 C 10.492188 -27.3125 10.449219 -27.976562 10.003906 -27.976562 L 1.285156 -27.976562 C 0.796875 -27.976562 0.796875 -27.3125 1.238281 -27.226562 C 2.699219 -26.960938 3.984375 -27.359375 3.984375 -25.011719 L 3.984375 -3.144531 C 3.984375 -0.839844 2.699219 -1.195312 1.238281 -0.929688 C 0.796875 -0.886719 0.796875 -0.222656 1.285156 -0.222656 L 10.003906 -0.222656 C 10.449219 -0.222656 10.492188 -0.886719 10.050781 -0.929688 C 8.542969 -1.195312 7.261719 -0.839844 7.261719 -3.144531 L 7.261719 -14.121094 L 23.90625 -14.121094 L 23.90625 -3.144531 C 23.90625 -0.839844 22.621094 -1.195312 21.160156 -0.929688 C 20.71875 -0.886719 20.71875 -0.222656 21.203125 -0.222656 L 29.925781 -0.222656 C 30.367188 -0.222656 30.414062 -0.886719 29.96875 -0.929688 Z M 29.96875 -0.929688 "/></g></g></g><g fill="#000000" fill-opacity="1"><g transform="translate(203.986132, 358.455066)"><g><path d="M 19.257812 -0.707031 C 18.414062 -0.707031 17.886719 -1.019531 17.886719 -2.832031 C 17.886719 -6.773438 17.886719 -11.15625 17.886719 -15.050781 C 17.886719 -18.726562 14.121094 -20.671875 10.269531 -20.671875 C 8.058594 -20.671875 5.800781 -20.007812 4.207031 -18.679688 C 4.027344 -18.546875 3.851562 -18.414062 3.71875 -18.195312 C 3.675781 -18.195312 3.675781 -18.195312 3.628906 -18.148438 C 3.453125 -17.929688 3.277344 -17.707031 3.097656 -17.441406 C 2.832031 -17.132812 2.65625 -16.691406 2.523438 -16.292969 C 2.480469 -16.203125 2.433594 -16.113281 2.390625 -16.027344 C 2.390625 -15.980469 2.390625 -15.980469 2.390625 -15.9375 C 2.257812 -15.539062 2.167969 -15.183594 2.167969 -14.832031 C 2.214844 -13.238281 3.054688 -12.574219 3.894531 -12.574219 C 4.871094 -12.574219 5.84375 -13.546875 5.222656 -15.007812 C 4.691406 -16.203125 4.558594 -17.929688 6.332031 -18.8125 C 7.304688 -19.257812 8.410156 -19.476562 9.5625 -19.476562 C 12.261719 -19.476562 14.875 -18.148438 14.875 -15.050781 C 14.875 -13.855469 14.875 -12.707031 14.875 -11.554688 C 14.875 -11.246094 13.324219 -11.332031 11.246094 -11.199219 C 6.996094 -10.980469 0.929688 -9.917969 0.886719 -4.605469 C 0.886719 -2.035156 3.054688 0.398438 6.996094 0.398438 C 11.421875 0.398438 13.855469 -1.859375 14.875 -4.515625 C 14.875 -3.808594 14.875 -3.054688 14.875 -2.300781 C 14.875 -0.355469 16.292969 0.222656 17.753906 0.222656 C 18.28125 0.222656 18.8125 0.132812 19.300781 0 C 19.789062 -0.132812 19.699219 -0.707031 19.257812 -0.707031 Z M 7.925781 -1.019531 C 5.710938 -1.019531 4.339844 -2.613281 4.339844 -4.558594 C 4.339844 -10.09375 11.066406 -10.449219 14.875 -10.449219 C 14.875 -10.003906 14.875 -9.5625 14.875 -9.074219 C 14.742188 -2.65625 10.625 -1.019531 7.925781 -1.019531 Z M 7.925781 -1.019531 "/></g></g></g><g fill="#000000" fill-opacity="1"><g transform="translate(224.525566, 358.455066)"><g><path d="M 22.976562 -20.320312 L 15.007812 -20.320312 C 14.566406 -20.320312 14.566406 -19.65625 14.964844 -19.609375 C 16.425781 -19.34375 18.414062 -19.566406 17.796875 -17.796875 L 12.128906 -4.339844 C 11.863281 -3.675781 11.554688 -3.675781 11.289062 -4.339844 C 8.5 -10.890625 7.96875 -12.484375 5.710938 -17.839844 C 5.136719 -19.523438 6.417969 -19.34375 7.835938 -19.609375 C 8.234375 -19.65625 8.234375 -20.320312 7.792969 -20.320312 L -1.371094 -20.320312 C -1.859375 -20.320312 -1.859375 -19.65625 -1.417969 -19.609375 C 0.0429688 -19.34375 1.503906 -19.699219 2.433594 -17.53125 L 9.207031 -1.371094 C 9.5625 -0.574219 10.09375 0.621094 9.5625 1.992188 C 8.542969 4.382812 7.171875 7.082031 4.160156 7.082031 C 2.523438 7.082031 1.859375 6.152344 1.59375 4.605469 C 1.417969 3.628906 0.753906 3.1875 0.0898438 3.1875 C -0.929688 3.1875 -1.902344 4.207031 -1.0625 5.800781 C -0.308594 7.171875 1.371094 8.410156 3.761719 8.410156 C 7.214844 8.410156 9.253906 6.109375 10.582031 2.964844 C 11.289062 1.238281 11.996094 -0.441406 12.707031 -2.167969 L 17 -12.351562 C 17.707031 -14.078125 18.414062 -15.761719 19.125 -17.488281 C 19.125 -17.441406 19.125 -17.398438 19.125 -17.398438 C 20.054688 -19.609375 21.558594 -19.34375 23.019531 -19.609375 C 23.460938 -19.65625 23.460938 -20.320312 22.976562 -20.320312 Z M 22.976562 -20.320312 "/></g></g></g><g fill="#000000" fill-opacity="1"><g transform="translate(248.783344, 358.455066)"><g><path d="M 19.875 -11.597656 C 19.875 -17.132812 16.027344 -20.671875 10.582031 -20.671875 C 4.515625 -20.671875 0.839844 -16.335938 0.929688 -10.136719 C 1.019531 -2.566406 6.242188 0.222656 11.199219 0.222656 C 14.785156 0.222656 17.929688 -1.371094 19.257812 -3.808594 C 19.566406 -4.339844 19.210938 -4.824219 18.8125 -4.824219 C 18.59375 -4.824219 18.328125 -4.691406 18.148438 -4.382812 C 16.777344 -2.082031 14.476562 -1.105469 11.910156 -1.0625 C 8.101562 -0.972656 4.339844 -3.585938 4.292969 -10.183594 L 18.414062 -10.183594 C 19.433594 -10.183594 19.875 -10.847656 19.875 -11.597656 Z M 14.609375 -11.421875 L 4.382812 -11.421875 C 4.648438 -16.113281 6.640625 -19.257812 10.933594 -19.390625 C 14.875 -19.390625 16.957031 -16.558594 16.957031 -13.636719 C 16.957031 -12.175781 16.292969 -11.421875 14.609375 -11.421875 Z M 14.609375 -11.421875 "/></g></g></g><g fill="#000000" fill-opacity="1"><g transform="translate(270.429425, 358.455066)"><g><path d="M 10.050781 -12.042969 C 7.96875 -12.75 4.292969 -13.457031 4.292969 -16.203125 C 4.292969 -17.839844 5.886719 -19.476562 8.808594 -19.476562 C 11.246094 -19.476562 12.441406 -18.414062 12.925781 -16.558594 C 13.191406 -15.539062 13.855469 -15.140625 14.476562 -15.140625 C 15.714844 -15.140625 16.867188 -16.734375 15.007812 -18.59375 C 13.546875 -20.054688 11.597656 -20.585938 8.808594 -20.628906 C 5.355469 -20.671875 1.726562 -19.125 1.726562 -15.097656 C 1.726562 -10.714844 6.066406 -10.050781 9.296875 -8.941406 C 11.332031 -8.277344 14.699219 -7.261719 14.699219 -4.738281 C 14.699219 -2.789062 12.75 -0.796875 9.296875 -0.796875 C 5.753906 -0.796875 3.320312 -1.949219 1.859375 -3.230469 C 1.726562 -3.363281 1.550781 -3.410156 1.417969 -3.410156 C 0.972656 -3.410156 0.707031 -2.921875 1.152344 -2.480469 C 3.144531 -0.574219 6.152344 0.488281 9.121094 0.488281 C 12.972656 0.488281 17.265625 -1.0625 17.265625 -5.621094 C 17.265625 -9.738281 13.28125 -10.980469 10.050781 -12.042969 Z M 10.050781 -12.042969 "/></g></g></g></svg>