<svg xmlns="http://www.w3.org/2000/svg" version="1.1" xmlns:xlink="http://www.w3.org/1999/xlink" xmlns:svgjs="http://svgjs.dev/svgjs" viewBox="0 0 8.92075283319586 8.796160397390807"><g transform="matrix(1,0,0,1,0.7381828130823047,6.571477584308502)"><rect width="8.92075283319586" height="8.92075283319586" x="-0.7381828130823047" y="-6.633773802211027" fill="#ffffff"></rect><g><path d=" M 0.0735 1.3845 Q 0.054 1.3845 0.039 1.3755 Q 0.024 1.3665 0.024 1.3425 Q 0.024 1.3365 0.027 1.32075 Q 0.03 1.305 0.0405 1.254 L 0.0495 1.254 Q 0.075 1.26 0.09 1.26375 Q 0.105 1.2675 0.1245 1.2675 Q 0.156 1.2675 0.1785 1.25325 Q 0.201 1.239 0.213 1.1925 Q 0.225 1.146 0.225 1.0485 L 0.225 0.21899999999999997 L 0.10350000000000001 0.15900000000000003 L 0.10350000000000001 0.135 L 0.504 0.135 L 0.504 0.15900000000000003 L 0.381 0.21899999999999997 L 0.381 0.7635000000000001 Q 0.381 0.933 0.34725 1.0665 Q 0.3135 1.2 0.249 1.2705 Q 0.20700000000000002 1.317 0.18 1.341 Q 0.153 1.365 0.129 1.37475 Q 0.105 1.3845 0.0735 1.3845 M 0.8070703125 1.14 Q 0.7350703125 1.14 0.6878203125 1.09725 Q 0.6405703125 1.0545 0.6405703125 0.9795 Q 0.6405703125 0.906 0.6938203125 0.85275 Q 0.7470703125 0.7995 0.8790703125 0.768 L 1.0215703125 0.735 L 1.0215703125 0.63 Q 1.0215703125 0.576 0.9818203125 0.54 Q 0.9420703125000001 0.504 0.8895703125000001 0.504 Q 0.8340703125 0.504 0.8123203125 0.5325 Q 0.7905703125 0.5609999999999999 0.7905703125 0.6105 L 0.7905703125 0.6585 L 0.7830703125 0.6659999999999999 L 0.7005703125 0.6659999999999999 Q 0.6780703125 0.6659999999999999 0.6698203125 0.6577500000000001 Q 0.6615703125 0.6495 0.6615703125 0.6224999999999999 Q 0.6615703125 0.5895 0.6818203125 0.55575 Q 0.7020703125000001 0.522 0.7440703125 0.49649999999999994 Q 0.7890703125 0.46799999999999997 0.8355703125 0.45075 Q 0.8820703125 0.4335 0.9345703125 0.4335 Q 0.9915703124999999 0.4335 1.0448203125 0.44925000000000004 Q 1.0980703125 0.46499999999999997 1.1310703125 0.5025 Q 1.1640703125 0.54 1.1640703125 0.603 L 1.1640703125 1.0215 Q 1.1745703125 1.032 1.1933203125 1.0395 Q 1.2120703125 1.047 1.2450703125 1.047 L 1.2975703125 1.047 L 1.3035703125 1.05 L 1.3035703125 1.059 Q 1.2855703125 1.0905 1.2488203125 1.11525 Q 1.2120703125 1.14 1.1595703125 1.14 Q 1.1085703125 1.14 1.0770703125 1.11525 Q 1.0455703125 1.0905 1.0320703125000001 1.047 L 1.0215703125 1.047 Q 0.9825703125 1.086 0.9263203125 1.113 Q 0.8700703125 1.14 0.8070703125 1.14 M 0.7770703125 0.9465 Q 0.7770703125 1.0395 0.8865703125 1.0395 Q 0.9195703125000001 1.0395 0.9503203125 1.03275 Q 0.9810703125 1.026 1.0215703125 1.0095 L 1.0215703125 0.7875 Q 0.9135703125000001 0.8085 0.8610703125000001 0.8325 Q 0.8085703125 0.8565 0.7928203125 0.88425 Q 0.7770703125 0.912 0.7770703125 0.9465 M 1.7190629882812498 1.14 Q 1.5735629882812499 1.14 1.4880629882812497 1.0515 Q 1.4025629882812498 0.963 1.4025629882812498 0.8160000000000001 Q 1.4025629882812498 0.7050000000000001 1.4483129882812498 0.618 Q 1.4940629882812497 0.531 1.5735629882812499 0.48224999999999996 Q 1.6530629882812498 0.4335 1.7550629882812498 0.4335 Q 1.8180629882812498 0.4335 1.87506298828125 0.45375 Q 1.93206298828125 0.474 1.9620629882812497 0.507 Q 1.9845629882812497 0.534 1.9845629882812497 0.5519999999999999 Q 1.9845629882812497 0.564 1.98081298828125 0.57075 Q 1.9770629882812498 0.5775 1.9665629882812499 0.588 L 1.9050629882812498 0.6375 L 1.8945629882812498 0.6375 L 1.8435629882812499 0.5685 Q 1.8210629882812497 0.537 1.7895629882812498 0.51825 Q 1.7580629882812497 0.49949999999999994 1.71006298828125 0.49949999999999994 Q 1.6305629882812498 0.49949999999999994 1.5855629882812499 0.5655 Q 1.5405629882812497 0.6315 1.5405629882812497 0.747 Q 1.5405629882812497 0.8175 1.5638129882812497 0.879 Q 1.5870629882812497 0.9405 1.6418129882812498 0.978 Q 1.6965629882812499 1.0155 1.7910629882812499 1.0155 Q 1.8330629882812497 1.0155 1.8810629882812497 1.00125 Q 1.9290629882812498 0.987 1.9830629882812498 0.9585 L 1.9875629882812498 0.9585 L 1.9875629882812498 0.9765 Q 1.9530629882812498 1.0455 1.8825629882812498 1.09275 Q 1.8120629882812498 1.14 1.7190629882812498 1.14 M 2.1315688476562498 1.125 L 2.1315688476562498 1.101 L 2.22756884765625 1.053 L 2.22756884765625 0.17099999999999993 L 2.13606884765625 0.09450000000000003 L 2.13606884765625 0.08250000000000002 L 2.35806884765625 0 L 2.36856884765625 0 L 2.36856884765625 0.7395 L 2.60706884765625 0.5355 L 2.60706884765625 0.5265 L 2.53356884765625 0.47250000000000003 L 2.53356884765625 0.4485 L 2.82606884765625 0.4485 L 2.82606884765625 0.47250000000000003 L 2.73006884765625 0.525 L 2.49156884765625 0.708 L 2.78856884765625 1.05 L 2.88456884765625 1.101 L 2.88456884765625 1.125 L 2.66406884765625 1.125 L 2.61006884765625 1.047 L 2.36856884765625 0.765 L 2.36856884765625 1.0575 L 2.47356884765625 1.101 L 2.47356884765625 1.125 L 2.1315688476562498 1.125 M 3.4140234375 1.125 L 3.4140234375 1.101 L 3.5355234375 1.041 L 3.5355234375 0.21899999999999997 L 3.4140234375 0.15900000000000003 L 3.4140234375 0.135 L 3.8115234375 0.135 L 3.8115234375 0.15900000000000003 L 3.6930234375 0.21899999999999997 L 3.6930234375 0.573 L 4.1805234375 0.573 L 4.1805234375 0.21899999999999997 L 4.0605234375000006 0.15900000000000003 L 4.0605234375000006 0.135 L 4.4580234375000005 0.135 L 4.4580234375000005 0.15900000000000003 L 4.3365234375 0.21899999999999997 L 4.3365234375 1.041 L 4.4580234375000005 1.101 L 4.4580234375000005 1.125 L 4.0605234375000006 1.125 L 4.0605234375000006 1.101 L 4.1805234375 1.041 L 4.1805234375 0.6555 L 3.6930234375 0.6555 L 3.6930234375 1.041 L 3.8115234375 1.101 L 3.8115234375 1.125 L 3.4140234375 1.125 M 4.795491943359375 1.14 Q 4.723491943359375 1.14 4.676241943359375 1.09725 Q 4.628991943359375 1.0545 4.628991943359375 0.9795 Q 4.628991943359375 0.906 4.682241943359375 0.85275 Q 4.735491943359375 0.7995 4.867491943359375 0.768 L 5.009991943359375 0.735 L 5.009991943359375 0.63 Q 5.009991943359375 0.576 4.970241943359375 0.54 Q 4.930491943359375 0.504 4.877991943359375 0.504 Q 4.822491943359375 0.504 4.800741943359375 0.5325 Q 4.778991943359375 0.5609999999999999 4.778991943359375 0.6105 L 4.778991943359375 0.6585 L 4.771491943359375 0.6659999999999999 L 4.688991943359375 0.6659999999999999 Q 4.666491943359375 0.6659999999999999 4.658241943359375 0.6577500000000001 Q 4.649991943359375 0.6495 4.649991943359375 0.6224999999999999 Q 4.649991943359375 0.5895 4.6702419433593745 0.55575 Q 4.690491943359375 0.522 4.732491943359375 0.49649999999999994 Q 4.777491943359375 0.46799999999999997 4.823991943359375 0.45075 Q 4.870491943359375 0.4335 4.922991943359375 0.4335 Q 4.979991943359375 0.4335 5.033241943359375 0.44925000000000004 Q 5.086491943359375 0.46499999999999997 5.119491943359375 0.5025 Q 5.152491943359375 0.54 5.152491943359375 0.603 L 5.152491943359375 1.0215 Q 5.1629919433593745 1.032 5.181741943359375 1.0395 Q 5.200491943359375 1.047 5.2334919433593745 1.047 L 5.285991943359375 1.047 L 5.291991943359375 1.05 L 5.291991943359375 1.059 Q 5.273991943359375 1.0905 5.237241943359375 1.11525 Q 5.200491943359375 1.14 5.147991943359375 1.14 Q 5.096991943359375 1.14 5.065491943359375 1.11525 Q 5.033991943359375 1.0905 5.020491943359374 1.047 L 5.009991943359375 1.047 Q 4.970991943359375 1.086 4.914741943359375 1.113 Q 4.8584919433593745 1.14 4.795491943359375 1.14 M 4.7654919433593745 0.9465 Q 4.7654919433593745 1.0395 4.874991943359375 1.0395 Q 4.907991943359375 1.0395 4.938741943359375 1.03275 Q 4.969491943359375 1.026 5.009991943359375 1.0095 L 5.009991943359375 0.7875 Q 4.901991943359375 0.8085 4.849491943359375 0.8325 Q 4.796991943359375 0.8565 4.781241943359375 0.88425 Q 4.7654919433593745 0.912 4.7654919433593745 0.9465 M 5.438942138671875 1.4865 Q 5.404442138671874 1.4865 5.396192138671875 1.47675 Q 5.387942138671875 1.467 5.387942138671875 1.443 L 5.387942138671875 1.362 L 5.393942138671875 1.3545 L 5.462942138671875 1.3545 Q 5.5004421386718745 1.3545 5.521442138671874 1.3485 Q 5.542442138671874 1.3425 5.560442138671874 1.31625 Q 5.578442138671875 1.29 5.605442138671875 1.2285 L 5.654942138671874 1.116 L 5.374442138671874 0.5175 L 5.275442138671875 0.47250000000000003 L 5.275442138671875 0.4485 L 5.647442138671875 0.4485 L 5.647442138671875 0.47250000000000003 L 5.530442138671875 0.5175 L 5.530442138671875 0.525 L 5.722442138671875 0.9390000000000001 L 5.728442138671874 0.9390000000000001 L 5.885942138671875 0.5325 L 5.885942138671875 0.525 L 5.779442138671874 0.47250000000000003 L 5.779442138671874 0.4485 L 6.071942138671875 0.4485 L 6.071942138671875 0.47250000000000003 L 5.960942138671874 0.522 L 5.6639421386718745 1.2435 Q 5.650442138671875 1.278 5.6406921386718745 1.30125 Q 5.630942138671875 1.3245 5.6189421386718745 1.34625 Q 5.606942138671874 1.3679999999999999 5.584442138671875 1.3995 Q 5.554442138671875 1.443 5.515442138671874 1.46475 Q 5.4764421386718745 1.4865 5.438942138671875 1.4865 M 6.437912841796874 1.14 Q 6.2909128417968745 1.14 6.205412841796874 1.0515 Q 6.119912841796874 0.963 6.119912841796874 0.8160000000000001 Q 6.119912841796874 0.7050000000000001 6.165662841796874 0.618 Q 6.211412841796874 0.531 6.287162841796874 0.48224999999999996 Q 6.3629128417968746 0.4335 6.451412841796874 0.4335 Q 6.5714128417968745 0.4335 6.638912841796874 0.51525 Q 6.706412841796874 0.597 6.707912841796874 0.75 L 6.700412841796874 0.7575000000000001 L 6.257912841796874 0.7575000000000001 Q 6.259412841796874 0.8265 6.284162841796874 0.885 Q 6.308912841796874 0.9435 6.363662841796875 0.9795 Q 6.418412841796874 1.0155 6.511412841796874 1.0155 Q 6.5969128417968745 1.0155 6.704912841796874 0.9585 L 6.709412841796874 0.9585 L 6.709412841796874 0.9765 Q 6.673412841796874 1.0455 6.602912841796874 1.09275 Q 6.532412841796874 1.14 6.437912841796874 1.14 M 6.424412841796874 0.49949999999999994 Q 6.358412841796874 0.49949999999999994 6.3156628417968745 0.5489999999999999 Q 6.272912841796874 0.5985 6.260912841796874 0.6885 L 6.580412841796874 0.6885 Q 6.565412841796874 0.5865 6.5264128417968745 0.543 Q 6.487412841796874 0.49949999999999994 6.424412841796874 0.49949999999999994 M 7.1129121093749985 1.14 Q 7.0409121093749985 1.14 6.989162109374999 1.12725 Q 6.937412109374999 1.1145 6.884912109374999 1.0875 L 6.884912109374999 0.9195 L 6.907412109374999 0.9195 L 6.955412109374999 1.0005 Q 7.004912109374999 1.083 7.108412109374999 1.083 Q 7.168412109374999 1.083 7.200662109374999 1.056 Q 7.232912109374999 1.029 7.232912109374999 0.981 Q 7.232912109374999 0.942 7.212662109374999 0.9179999999999999 Q 7.192412109374999 0.894 7.154162109374999 0.876 Q 7.115912109374999 0.858 7.061912109374999 0.8325 Q 6.983912109374999 0.798 6.942662109374999 0.756 Q 6.9014121093749985 0.714 6.9014121093749985 0.6405000000000001 Q 6.9014121093749985 0.582 6.933662109374999 0.5355 Q 6.965912109374999 0.489 7.016912109374999 0.46124999999999994 Q 7.067912109374999 0.4335 7.124912109374999 0.4335 Q 7.178912109374999 0.4335 7.226912109374999 0.44625000000000004 Q 7.274912109374998 0.45899999999999996 7.321412109374998 0.483 L 7.321412109374998 0.6495 L 7.300412109374999 0.6495 L 7.250912109374999 0.5715 Q 7.201412109374999 0.49349999999999994 7.129412109374999 0.49349999999999994 Q 7.079912109374999 0.49349999999999994 7.049912109374999 0.51825 Q 7.0199121093749985 0.543 7.0199121093749985 0.5865 Q 7.0199121093749985 0.6345000000000001 7.055162109374999 0.66075 Q 7.0904121093749986 0.687 7.165412109374999 0.72 Q 7.208912109374999 0.7395 7.250912109374999 0.76125 Q 7.292912109374999 0.7829999999999999 7.320662109374999 0.82125 Q 7.348412109374999 0.8594999999999999 7.348412109374999 0.9299999999999999 Q 7.348412109374999 0.999 7.311662109374999 1.0455 Q 7.274912109374998 1.092 7.220912109374999 1.116 Q 7.166912109374999 1.14 7.1129121093749985 1.14" fill="#404040" fill-rule="nonzero"></path></g><g></g><g clip-path="url(#SvgjsClipPath1002)"><g clip-path="url(#SvgjsClipPath1000288823f2-aa9b-4823-bff6-f7ccbb9ebb5d)"><path d=" M 5.333987586615633 -0.24999999999998757 L 6.930626406780576 -3.01528256444871 L 6.945855317467149 -3.0416105117373293 L 5.334135082118667 -5.833294771226178 L 2.110583989794439 -5.833294771226178 L 0.513945169629497 -3.0679753329017023 L 0.49871625894294136 -3.041610511737311 L 2.1104733681671783 -0.2499999999999698 Z M 0.9593815887424656 -2.454394040348738 L 3.05842696606093 -0.35534866303027357 L 2.1712783892861403 -0.35534866303027357 Z M 5.175466794747523 -5.3159911682679 L 5.312305747672056 -5.660061302932098 L 5.54461116492468 -5.257509201321451 Z M 5.5658873912349875 -5.147440682194616 L 6.079872345375369 -1.9022077509267925 L 3.242685723205603 -0.45675182135485404 L 5.135532387305522 -5.215767973967489 Z M 5.06879067219009 -5.332879403363422 L 2.5746417161633834 -5.727909234320175 L 5.2258733829037745 -5.727909234320175 Z M 5.028856264748089 -5.232508713559978 L 3.1227350053765726 -0.44004795563810095 L 0.8289586901992001 -2.7338611446912267 L 2.3206544599671455 -5.66142563633498 Z M 5.2731456916209005 -0.35534866303027357 L 3.276093454639074 -0.35534866303027357 L 6.105425941273145 -1.7971172050267814 Z M 6.182197350593771 -1.9298631577425773 L 5.696863397914557 -4.99389786355331 L 6.82402403197465 -3.0415736378615756 Z M 2.1712783892861403 -5.727872360444385 L 2.2362501583653653 -5.727872360444385 L 0.7516341727422526 -2.8141724460842683 L 0.6203631750566366 -3.0415736378615756 Z" fill="#4e888f" transform="matrix(1,0,0,1,0,0)" fill-rule="nonzero"></path></g></g></g><defs><clipPath id="SvgjsClipPath1002"><path d=" M 0.49867938506715115 -5.833294771226196 h 6.4470284368969475 v 5.583294771226196 h -6.4470284368969475 Z"></path></clipPath><clipPath id="SvgjsClipPath1000288823f2-aa9b-4823-bff6-f7ccbb9ebb5d"><path d=" M 0.49867938506715115 -5.833294771226196 L 6.945707821964099 -5.833294771226196 L 6.945707821964099 -0.25 L 0.49867938506715115 -0.25 Z"></path></clipPath></defs></svg>